{"glyphs":{"0":{"ha":713,"x_min":33,"x_max":678,"o":"m 78 196 l 75 207 l 72 207 l 72 213 l 54 261 l 51 279 l 51 283 l 49 283 l 46 301 l 44 317 l 42 317 l 40 367 q 35 381 35 372 q 36 393 36 390 l 38 393 q 36 396 38 396 l 38 400 q 36 424 38 414 l 33 479 l 44 540 l 44 565 q 49 606 44 586 l 51 621 l 54 643 q 59 672 58 664 q 60 685 60 681 q 61 692 61 689 l 61 694 l 64 707 l 67 728 l 75 754 q 97 806 88 781 l 97 808 q 108 824 108 819 q 111 828 108 828 q 135 861 115 835 l 149 875 l 149 878 q 153 881 151 881 l 153 885 l 163 893 l 163 896 l 175 908 l 188 919 l 188 924 q 192 928 189 924 q 206 935 196 932 q 207 938 206 938 l 210 938 l 233 950 l 242 953 l 249 956 l 249 958 l 289 968 l 311 969 l 311 972 l 356 974 q 385 978 368 978 l 413 976 l 467 961 q 480 953 472 958 q 512 940 488 949 q 538 928 536 932 l 546 925 l 550 919 l 583 890 l 583 886 l 586 886 q 613 842 599 856 l 617 832 l 628 815 l 628 810 l 636 790 q 660 718 656 739 l 660 707 q 664 676 664 690 l 665 635 l 675 561 l 676 561 l 678 536 l 678 508 q 676 503 676 507 q 675 500 676 500 l 678 474 q 674 444 678 458 l 675 422 q 665 379 668 385 l 665 368 q 660 331 660 353 l 657 311 l 647 261 l 626 192 q 621 183 624 186 l 594 129 q 596 126 596 128 l 593 126 l 590 117 q 543 63 563 89 l 540 61 l 535 60 l 496 43 q 485 38 496 42 q 468 29 475 33 l 433 13 l 381 1 l 375 1 l 354 4 q 313 7 344 4 q 282 13 282 10 l 269 15 l 208 36 q 200 40 204 40 l 200 44 q 176 65 190 50 q 156 83 163 79 l 156 86 l 150 90 l 150 94 l 119 125 l 119 129 l 113 133 l 113 136 l 106 146 l 104 146 q 99 159 104 156 q 93 167 93 163 l 79 196 l 78 196 m 557 165 q 568 186 558 165 l 571 186 q 576 197 571 197 l 596 246 l 600 249 l 615 315 l 617 315 q 621 333 619 319 l 622 333 q 633 426 622 361 q 644 508 643 492 l 646 536 l 647 536 l 647 542 q 644 581 647 572 l 644 601 q 643 610 643 601 l 638 644 q 639 649 638 647 l 638 657 q 633 665 633 657 l 635 686 q 624 724 635 706 q 613 753 613 742 l 610 765 l 586 822 q 583 824 585 822 l 583 826 q 578 829 581 829 l 578 833 q 574 836 576 833 l 574 839 q 554 869 569 843 l 551 869 l 549 881 q 542 885 546 881 l 539 892 l 488 925 l 488 926 q 479 932 479 929 l 401 950 l 382 947 l 347 949 l 332 950 q 318 947 321 950 l 249 933 q 246 935 247 935 l 240 933 q 189 904 192 907 q 193 901 189 901 l 196 901 q 181 893 190 896 l 178 889 l 174 889 q 163 876 174 885 l 157 865 q 154 864 156 865 l 154 861 q 144 845 153 860 q 107 782 136 831 l 106 778 l 104 772 l 94 753 l 92 744 q 89 735 89 742 l 86 726 l 71 644 q 72 633 72 643 l 67 544 l 67 528 q 68 515 67 517 q 56 433 67 510 l 56 429 q 60 379 56 421 l 63 379 l 65 347 l 67 339 q 68 319 68 338 l 71 292 l 85 244 l 90 231 l 93 222 l 96 219 q 106 192 96 206 q 117 178 115 178 l 121 167 l 125 165 l 138 144 q 141 142 140 144 q 143 139 142 139 l 144 135 l 172 107 l 175 107 l 179 101 l 183 101 q 201 86 194 89 l 204 86 l 206 82 l 208 82 l 226 71 l 226 69 l 228 69 q 272 47 226 64 l 275 43 l 329 29 q 361 26 338 26 l 372 28 l 372 29 l 403 32 l 446 44 q 457 50 446 50 l 469 57 l 469 58 q 499 78 479 58 l 501 78 l 524 107 l 524 110 l 529 114 q 528 117 529 115 q 532 122 531 117 q 536 126 533 126 l 557 165 m 469 640 l 475 535 l 475 515 q 478 489 478 496 l 476 463 q 475 444 475 461 l 475 419 q 474 406 475 407 l 475 375 l 469 317 l 467 299 q 465 285 465 297 l 457 263 q 456 256 457 257 l 454 256 q 450 247 454 251 l 440 236 l 440 233 l 417 214 q 406 204 417 210 q 383 196 389 199 q 363 193 378 193 l 350 194 l 350 196 q 347 194 349 196 l 322 200 q 303 207 308 204 l 300 210 q 253 319 261 235 l 251 325 l 249 325 l 249 378 l 244 378 l 243 390 l 247 439 q 243 464 247 458 l 243 504 q 242 508 242 506 l 242 583 l 247 619 l 250 683 q 257 703 250 696 q 272 744 257 732 q 283 753 276 749 q 290 761 290 758 q 351 786 314 769 l 374 789 q 390 790 388 789 l 390 788 q 396 789 392 789 l 396 786 l 404 783 l 418 772 l 421 772 q 435 750 418 772 q 453 728 451 728 l 456 728 q 458 721 458 728 l 461 721 l 463 686 l 464 678 l 467 678 l 469 644 q 468 640 469 642 l 469 640 m 453 351 l 451 403 l 453 403 l 453 426 l 454 426 l 454 475 l 456 488 l 453 488 l 454 492 q 456 494 454 493 l 453 494 l 451 528 q 453 531 451 529 l 451 531 q 444 604 451 583 l 439 688 l 438 688 l 435 706 l 433 710 q 427 716 432 710 q 415 731 422 722 q 361 750 397 750 q 296 721 325 750 l 296 718 q 285 697 290 715 l 285 689 l 282 689 q 283 679 283 688 l 281 679 q 268 615 268 619 l 267 571 l 265 569 l 267 571 l 267 569 q 265 549 267 550 l 264 549 l 267 544 q 263 506 263 528 q 269 457 263 485 l 271 418 l 274 418 l 275 369 q 276 343 275 353 l 278 343 l 279 315 l 281 315 l 282 308 l 286 279 l 297 254 l 299 254 q 339 225 299 235 l 344 222 l 407 232 l 408 236 l 411 236 q 413 239 413 236 l 417 239 l 422 244 l 422 246 q 439 265 428 246 q 440 275 439 274 l 451 308 q 453 329 453 311 l 453 351 z "},"1":{"ha":508,"x_min":-14,"x_max":446,"o":"m 446 971 l 444 943 q 446 940 444 942 l 444 935 l 446 815 l 446 814 l 443 789 l 443 728 q 444 711 443 713 l 444 653 l 446 653 q 443 638 443 644 l 442 600 l 439 599 l 442 599 l 439 571 l 438 428 l 435 383 l 435 382 l 433 382 l 429 233 l 431 233 q 429 157 429 190 l 429 138 l 432 92 l 432 76 q 429 63 432 68 l 431 57 l 426 44 l 429 21 l 411 21 l 414 11 l 407 8 l 407 7 q 385 8 406 8 l 276 8 l 224 15 q 221 13 222 15 q 217 11 219 11 l 217 13 l 214 11 l 214 13 q 211 17 211 15 l 210 22 q 211 26 210 25 l 208 136 l 208 174 l 211 207 l 210 207 q 218 365 217 364 l 217 396 q 215 409 215 397 q 217 448 215 421 q 222 533 219 475 q 226 575 226 543 l 225 575 l 228 628 q 226 631 228 631 l 226 643 l 228 657 l 226 672 q 228 675 228 674 l 226 675 l 228 696 l 228 715 q 211 685 218 706 q 206 679 207 685 q 204 672 206 674 l 201 672 q 192 653 197 658 l 190 653 l 183 636 l 181 631 l 175 626 l 161 624 l 157 626 l 140 629 l 138 626 l 126 629 l 115 628 l 117 629 l 100 633 l 101 636 q 64 643 76 643 q -7 660 -6 658 l -10 660 l -8 664 q -14 667 -11 664 l -14 671 l -12 669 q -4 685 -8 681 l -4 686 q -1 688 -3 686 l 0 694 l 4 704 q 10 721 10 714 l 13 721 l 47 796 l 47 801 q 50 803 49 803 l 51 807 q 65 836 65 825 l 68 843 l 71 843 l 89 878 q 104 921 89 888 l 113 933 q 114 940 114 938 l 121 953 l 124 963 q 134 983 131 971 q 142 997 138 994 l 142 993 q 150 994 143 994 l 183 996 l 194 994 q 201 996 200 994 l 201 999 l 235 1000 l 240 997 l 240 1000 l 253 999 l 253 996 q 271 994 269 996 l 271 997 q 285 996 272 996 l 354 999 l 381 996 l 381 992 l 413 996 l 413 994 q 425 997 422 997 l 438 992 q 439 989 439 992 q 440 983 439 986 q 439 978 440 979 l 442 978 l 444 971 l 446 971 m 403 553 l 406 617 l 406 626 l 404 783 l 406 794 q 404 800 404 796 l 407 888 l 407 913 q 410 914 408 914 l 410 928 l 408 967 l 372 967 l 372 964 l 325 964 l 282 958 l 247 958 q 163 957 203 958 l 163 958 q 153 957 161 957 l 144 957 l 146 953 l 144 953 l 124 917 l 124 913 q 119 911 122 911 l 115 899 l 92 850 l 88 836 l 85 835 l 71 801 l 58 775 l 50 753 l 47 753 l 44 740 q 37 724 42 738 q 31 707 32 710 l 29 707 q 22 694 29 706 q 15 679 15 682 q 17 682 17 681 l 161 644 q 167 649 164 644 q 183 678 167 658 l 183 681 l 186 681 l 210 732 l 213 732 l 224 756 l 243 782 q 251 789 246 788 l 251 786 l 254 788 q 263 775 258 788 q 256 757 256 768 q 257 744 256 746 l 254 696 q 256 683 254 685 l 256 664 q 254 636 256 647 l 257 636 l 254 635 l 256 625 l 256 607 q 253 579 256 582 l 251 579 q 254 574 251 574 q 253 556 253 571 l 253 538 q 246 306 246 379 q 244 211 246 232 l 246 33 q 263 32 247 32 l 265 33 l 274 32 l 339 39 q 357 40 343 40 l 375 40 q 392 47 386 40 q 403 176 403 64 l 401 236 q 403 258 401 257 q 401 263 401 260 l 401 301 l 400 328 q 401 344 400 342 l 399 346 q 403 432 403 372 l 401 464 l 403 475 l 403 507 q 404 518 404 508 l 403 553 z "},"2":{"ha":692,"x_min":38,"x_max":644,"o":"m 596 893 l 597 886 l 599 882 l 601 882 l 603 875 q 609 865 606 872 q 614 856 613 857 l 619 825 l 622 825 l 625 811 l 638 717 l 640 708 l 640 689 q 644 658 640 688 l 635 583 l 617 522 l 597 488 q 594 486 596 486 l 594 482 q 592 481 592 482 q 569 449 589 474 q 568 453 569 451 l 526 419 l 518 415 l 514 415 q 478 397 483 397 l 476 397 l 458 389 q 446 388 447 389 l 433 385 q 388 363 390 363 l 388 361 l 378 357 q 344 339 364 353 l 347 338 q 328 324 331 331 l 325 324 q 313 313 314 313 l 300 296 q 282 264 293 288 q 265 231 271 240 l 282 201 l 322 200 l 336 200 q 353 201 338 201 l 392 203 q 400 201 399 203 q 424 204 419 204 q 431 203 429 204 l 431 201 q 433 203 432 203 l 471 203 l 471 206 l 485 206 l 525 203 l 525 201 l 526 201 q 531 202 528 203 q 538 201 535 201 l 553 203 l 579 201 q 619 206 610 201 l 626 196 l 626 199 l 629 197 l 629 188 q 625 161 625 181 l 626 129 l 628 75 q 626 72 628 74 l 628 72 l 626 60 l 626 53 l 628 42 l 628 40 l 626 21 l 625 21 q 626 17 625 19 q 626 13 626 14 l 624 14 q 621 13 622 14 q 618 13 619 13 q 619 7 619 11 l 618 7 q 608 11 617 11 l 601 11 l 582 10 l 569 11 l 556 11 l 458 6 q 453 7 457 7 l 453 6 l 443 7 l 442 6 l 425 8 q 419 7 421 8 q 381 3 413 6 q 346 -1 350 0 q 339 -1 342 -1 l 332 -1 q 322 0 324 -1 l 322 1 q 306 3 319 3 l 274 3 l 213 1 l 129 1 q 111 -1 115 -1 q 106 0 107 -1 l 64 3 l 60 7 l 56 7 l 56 10 l 51 10 q 47 21 50 10 q 42 24 44 22 q 38 26 39 26 q 39 43 39 28 l 39 82 l 42 113 l 42 135 l 39 135 l 42 146 l 39 146 l 39 158 l 42 158 l 42 196 q 58 293 58 271 l 60 293 q 64 311 61 307 l 65 311 l 69 325 l 72 325 q 85 353 82 350 l 96 364 l 96 367 q 135 400 129 400 l 139 404 l 142 404 q 143 407 143 404 l 147 407 q 179 432 163 415 l 182 432 q 183 436 183 433 l 193 439 q 286 500 206 451 l 296 504 l 300 504 q 301 508 300 507 l 335 525 l 338 531 l 369 551 l 369 554 l 374 554 q 397 579 376 558 l 397 582 q 415 603 400 583 l 418 611 l 425 643 l 426 678 q 410 721 414 721 l 410 725 l 407 729 q 401 735 404 729 q 390 742 397 742 l 383 743 l 383 746 l 350 756 l 332 756 l 332 753 l 319 750 l 315 750 l 274 708 l 271 700 l 264 683 l 257 642 q 260 625 260 628 l 257 624 l 257 600 l 254 600 q 235 582 254 582 l 217 583 l 208 582 l 208 581 q 189 582 190 581 l 161 582 l 161 581 q 140 579 160 579 l 138 579 l 119 581 l 119 579 q 115 581 117 579 l 79 579 l 72 579 l 72 576 q 75 575 74 576 q 50 580 56 575 q 44 596 44 585 l 44 669 l 46 672 l 43 696 q 49 742 43 697 l 58 797 l 60 808 l 63 808 l 64 818 l 75 851 l 89 882 l 104 901 l 107 901 l 111 907 l 115 907 q 142 929 115 911 l 142 932 l 156 938 l 156 939 q 161 940 157 940 l 161 943 l 210 958 q 263 969 254 969 l 281 971 l 333 976 l 365 976 q 393 979 385 979 l 447 975 l 447 974 l 467 969 l 467 968 l 479 967 q 529 949 496 956 l 529 947 q 571 919 549 942 l 574 919 l 594 896 l 596 893 m 539 463 q 544 469 539 469 q 550 471 549 469 l 550 474 l 553 474 q 575 499 554 478 l 575 501 q 578 503 576 501 l 578 508 l 583 513 l 586 522 q 589 524 588 522 l 589 528 l 593 531 l 610 585 l 613 585 l 615 601 q 619 635 619 631 l 619 683 q 617 710 619 690 l 617 725 l 615 739 q 601 813 601 786 l 599 813 l 599 815 q 563 897 575 897 l 563 901 q 560 903 560 901 l 560 906 q 550 914 553 906 l 546 914 q 522 931 546 918 q 492 943 497 943 l 482 944 l 481 947 l 458 954 l 440 956 l 422 958 l 419 958 l 350 963 l 329 960 q 272 953 321 960 l 243 943 l 243 940 l 194 932 q 179 928 182 931 l 179 926 q 160 911 172 926 l 157 911 q 156 907 156 910 l 143 903 l 108 872 l 96 840 q 94 835 96 838 l 89 818 l 85 801 q 75 751 83 800 l 74 704 l 72 693 l 69 693 l 72 685 l 69 685 l 68 663 q 69 657 69 661 l 68 657 q 69 642 69 656 l 68 642 q 69 626 69 635 q 75 603 67 603 l 83 601 l 83 597 l 97 600 l 97 597 l 167 597 l 200 603 l 200 600 l 201 603 l 211 604 l 217 604 q 225 607 222 604 l 222 607 q 219 608 221 608 l 219 611 l 231 611 q 236 628 236 625 q 232 657 232 647 l 233 665 l 235 665 q 241 690 236 668 q 253 728 246 711 l 265 750 l 275 758 l 278 764 l 282 764 q 289 772 283 772 l 292 772 l 300 776 q 311 782 303 779 q 324 788 319 785 l 347 790 l 347 792 l 354 793 q 419 768 361 793 l 440 743 l 443 735 l 446 735 l 451 686 l 453 678 l 456 678 l 456 653 l 458 647 l 457 628 q 458 622 457 624 l 457 622 q 456 613 456 621 q 426 560 453 586 l 426 556 q 396 532 425 556 l 392 531 q 384 524 392 526 q 374 521 376 521 l 374 519 q 369 517 372 518 q 367 514 367 517 l 364 514 q 363 511 363 514 l 358 511 q 351 502 353 506 q 292 472 349 499 l 285 469 l 285 468 q 271 458 278 467 l 261 456 l 261 453 l 254 451 l 251 447 l 215 426 q 204 419 208 425 l 201 419 l 199 415 l 194 415 l 174 400 q 171 396 174 399 l 168 396 l 142 369 l 139 369 l 122 353 l 119 353 q 111 344 119 347 q 96 325 104 332 l 96 322 q 85 306 85 311 q 83 297 85 300 l 76 263 l 78 247 q 69 175 78 233 l 72 156 l 69 156 l 69 111 l 67 110 l 67 58 q 65 56 67 57 l 65 50 q 67 37 65 40 q 81 33 69 33 l 88 33 q 90 35 89 33 l 101 35 q 115 31 111 35 l 111 28 l 117 28 l 117 33 l 125 28 l 203 35 l 215 32 q 219 33 218 32 l 318 33 l 318 35 l 342 36 l 401 38 q 417 40 403 38 l 438 36 l 492 36 l 513 38 q 533 36 531 38 l 588 38 l 588 40 l 592 38 l 592 40 q 612 45 608 40 q 615 68 615 50 l 617 71 l 610 160 l 611 169 q 610 176 611 172 q 539 182 560 182 l 539 186 q 509 185 524 185 q 494 186 494 185 l 469 182 l 440 183 q 433 184 436 183 q 428 183 429 185 l 404 183 l 369 181 l 346 182 q 311 179 343 179 l 257 181 l 257 186 q 244 190 249 186 l 246 250 l 249 250 q 250 263 249 261 l 251 263 q 250 258 250 261 l 257 281 q 269 300 258 281 q 280 314 269 306 q 293 331 290 322 l 296 331 l 296 333 l 314 346 q 322 351 317 346 l 356 368 l 357 372 l 363 375 q 380 382 371 378 q 399 390 389 386 l 399 393 l 411 396 l 417 396 l 500 438 l 503 438 q 504 440 504 439 l 508 440 l 539 463 m 296 301 l 296 303 q 290 293 294 303 l 292 293 q 296 301 296 297 z "},"3":{"ha":683,"x_min":38,"x_max":632,"o":"m 417 975 l 464 971 l 472 968 l 472 965 l 506 951 q 516 948 515 949 q 517 944 517 947 l 539 935 q 550 926 550 931 l 554 926 q 566 908 558 914 q 575 903 574 903 l 575 900 l 581 896 l 581 892 l 590 886 l 607 854 l 618 824 q 625 786 625 796 l 626 699 l 629 699 l 626 686 l 629 685 l 626 685 l 626 664 q 632 643 632 654 l 626 611 l 626 608 l 629 608 l 626 597 l 629 597 l 631 553 q 629 549 629 551 l 631 514 q 629 500 631 501 l 628 474 q 626 469 626 474 l 628 469 q 629 467 628 468 l 626 467 l 626 408 l 625 374 l 626 351 q 624 338 626 340 l 625 338 q 624 335 625 336 l 621 279 l 614 224 q 615 218 615 222 l 614 218 q 613 201 614 203 l 611 201 l 615 182 l 613 182 q 601 151 604 157 l 600 151 l 599 142 l 597 142 q 575 96 597 135 l 574 92 q 569 90 571 92 l 558 74 l 547 63 q 524 47 547 60 q 496 35 500 35 q 490 32 493 32 q 485 31 486 32 l 485 28 l 439 21 q 311 3 369 3 l 311 4 l 306 3 l 264 6 l 251 7 l 251 10 l 160 26 q 142 31 150 31 l 122 43 l 118 43 q 106 54 118 47 l 103 60 l 100 60 l 100 63 l 99 61 q 68 117 83 61 l 49 204 l 50 203 l 50 308 l 51 304 l 75 307 l 136 313 l 149 313 q 193 319 188 319 l 226 318 l 243 301 q 244 299 244 300 l 244 297 q 252 282 244 296 q 261 267 260 268 l 261 264 l 269 256 l 272 256 q 274 253 272 254 l 278 253 q 293 243 278 249 l 296 239 l 300 238 q 310 235 303 235 l 315 233 q 340 228 321 228 l 379 239 l 379 242 l 396 247 l 399 247 q 401 253 401 250 l 406 254 l 418 275 l 421 289 l 421 315 q 400 371 401 369 l 400 374 l 386 382 q 385 385 385 383 l 381 385 q 378 389 379 386 q 367 396 375 396 l 367 397 l 357 401 l 331 404 l 261 404 q 253 403 261 404 q 239 404 253 403 l 239 400 l 236 401 l 232 411 q 228 410 231 410 l 228 411 q 225 417 225 414 l 228 431 l 228 440 l 229 483 l 228 507 q 231 572 228 547 l 229 578 l 231 589 q 229 596 229 593 l 238 600 l 242 600 l 258 601 q 265 600 261 601 l 297 600 l 306 597 l 306 600 l 357 606 l 364 606 q 415 642 415 622 l 419 674 l 418 715 l 408 736 l 407 736 l 396 747 l 369 756 l 369 758 l 364 760 q 286 746 306 760 q 272 731 279 742 q 263 719 264 721 l 263 717 l 253 708 l 250 700 q 240 685 246 699 l 239 685 q 229 676 236 676 l 160 678 l 76 676 q 50 678 60 676 l 50 675 l 43 676 l 42 675 l 42 711 l 38 739 l 43 806 l 46 806 q 56 835 53 825 q 61 848 60 846 q 65 851 63 850 q 69 853 68 851 l 90 888 q 99 894 92 889 q 126 919 121 911 l 131 919 q 138 926 131 921 q 149 932 144 932 l 151 935 q 165 940 154 935 l 165 942 q 197 953 181 942 l 208 958 l 208 960 q 265 971 235 960 l 285 974 l 383 976 l 417 975 m 594 786 l 597 790 l 585 838 l 578 875 q 571 881 576 879 l 571 886 l 554 906 l 526 922 l 432 950 l 361 954 l 340 954 q 321 953 328 954 l 258 944 q 240 943 243 944 l 240 942 l 231 943 l 190 933 l 186 931 q 132 896 158 929 l 128 896 q 126 892 128 893 q 124 889 125 892 l 114 885 q 93 860 93 864 l 90 858 q 75 838 76 839 l 75 835 q 54 792 68 828 l 50 744 l 51 742 q 54 717 51 735 q 61 699 57 699 q 68 700 65 700 l 71 700 q 192 713 132 700 l 211 713 l 211 715 l 215 715 l 215 719 l 218 719 l 218 722 q 226 718 225 718 l 233 743 q 293 785 258 785 q 314 792 293 785 l 314 793 q 324 794 318 794 q 346 790 329 794 l 374 789 l 374 786 q 404 774 401 776 l 406 774 q 407 771 406 772 l 410 771 q 426 749 424 757 l 428 749 q 439 713 428 743 l 440 713 l 439 703 l 443 658 q 442 647 443 649 l 433 618 q 410 596 425 599 l 410 593 q 383 583 392 588 l 383 582 l 371 581 l 365 581 q 325 575 360 581 l 322 574 l 322 575 q 311 574 313 575 l 303 575 l 274 574 q 253 575 272 575 l 251 574 l 249 544 l 258 433 q 278 431 261 431 l 304 432 l 351 426 l 400 417 q 408 413 404 417 q 413 407 413 408 l 417 406 q 426 397 417 403 l 426 394 q 431 386 431 392 l 442 275 l 440 264 l 425 239 l 421 233 l 421 231 q 365 188 378 188 q 364 189 364 188 l 364 186 q 354 185 356 186 l 354 183 l 313 182 l 301 183 l 271 199 q 269 201 271 200 l 265 201 q 264 204 265 203 l 261 204 l 242 225 l 236 243 l 232 244 q 226 271 228 261 q 222 283 225 281 l 211 286 q 142 285 168 285 q 92 281 99 279 q 74 279 85 282 l 74 275 l 71 275 l 68 263 l 68 236 l 65 232 l 68 232 l 65 224 l 68 224 l 68 206 q 79 153 71 186 l 81 153 l 82 140 l 83 140 q 85 133 85 139 l 99 108 q 125 79 125 82 l 174 56 l 174 54 q 213 42 208 42 l 213 39 l 232 36 q 233 33 233 35 l 278 28 q 297 26 294 28 l 318 26 l 321 25 q 374 31 335 25 l 374 32 q 390 33 383 33 l 444 44 l 444 46 q 451 47 447 46 l 472 56 q 513 74 494 56 l 515 74 q 524 81 522 81 l 524 85 q 550 115 525 85 l 550 118 l 553 118 q 574 200 556 125 l 575 200 l 576 215 l 579 231 l 581 244 q 579 253 581 251 l 594 363 l 597 363 l 597 371 l 600 429 l 599 432 q 600 453 599 440 l 599 453 l 600 463 l 600 478 l 601 478 l 600 528 l 599 533 l 600 533 q 599 602 599 585 q 601 639 599 619 l 603 700 l 604 700 l 597 782 q 594 786 594 785 z "},"4":{"ha":651,"x_min":15,"x_max":629,"o":"m 539 964 l 543 906 l 544 799 l 544 788 l 547 788 l 549 781 l 551 725 l 550 724 l 551 706 q 549 693 551 699 l 550 682 l 550 621 l 551 600 l 553 567 l 551 550 q 553 519 553 543 l 553 489 q 628 481 607 489 q 626 472 626 479 l 628 457 q 626 401 626 422 l 628 364 q 626 350 628 351 l 626 290 l 629 290 l 629 288 q 625 289 628 289 l 629 271 l 610 257 l 585 258 q 568 257 581 257 q 551 253 556 257 q 544 235 546 249 l 544 211 l 539 151 q 531 47 531 114 l 529 21 q 528 14 528 19 l 525 14 q 524 8 524 11 q 515 4 524 4 q 514 8 515 7 l 510 6 l 510 8 l 432 8 q 421 7 431 7 l 407 7 q 358 4 360 6 l 333 4 l 322 3 q 321 10 322 8 l 318 25 l 318 94 l 321 99 l 319 99 q 318 104 318 100 l 321 107 l 321 142 q 322 144 321 143 l 321 146 l 322 146 l 324 190 q 322 207 324 196 l 324 207 l 324 235 q 307 276 324 276 l 299 276 l 279 279 l 279 278 q 218 277 233 276 q 196 278 203 278 q 188 276 189 278 l 64 275 l 49 274 q 31 307 31 274 q 33 317 31 314 q 33 319 33 319 q 32 322 32 319 l 33 326 l 32 343 q 31 346 32 344 l 31 364 l 19 454 l 19 476 l 17 476 l 15 481 l 35 513 l 38 528 q 44 547 40 547 l 44 551 q 60 570 49 551 q 71 593 71 589 l 69 593 l 71 593 l 69 594 l 101 639 l 121 672 l 125 675 l 125 678 q 139 700 124 678 q 169 744 154 722 q 183 767 185 767 l 183 771 q 186 772 185 771 l 186 775 q 208 811 196 782 q 233 847 229 843 l 236 854 q 258 881 250 872 q 265 892 265 890 l 265 896 q 274 906 268 896 q 282 917 281 915 l 282 919 l 313 960 l 313 964 l 318 968 l 317 974 l 329 985 l 332 986 l 342 981 q 346 982 344 981 l 346 983 q 384 982 347 982 q 422 983 421 982 l 422 982 q 426 981 425 981 q 429 981 428 981 l 429 983 l 443 982 l 481 983 l 503 985 q 508 986 504 986 l 522 983 q 525 985 525 983 l 528 988 l 540 983 l 539 964 m 597 279 l 607 278 l 608 293 q 611 315 611 307 l 611 390 q 614 410 611 396 l 614 417 l 611 417 l 611 465 l 597 463 l 582 464 q 538 461 557 464 l 538 458 q 521 476 521 458 l 522 499 l 519 643 l 518 678 l 515 678 l 515 747 l 513 757 l 513 815 l 510 838 l 511 858 q 510 868 511 867 l 508 957 l 490 960 l 464 958 l 371 956 l 371 957 q 363 956 365 956 l 342 956 l 338 943 l 333 940 l 333 938 q 310 908 332 938 q 274 854 289 879 l 260 833 l 260 831 l 257 831 q 253 824 257 828 l 253 821 q 215 761 221 786 l 213 758 q 207 746 213 757 l 204 746 q 199 738 204 744 l 185 714 q 169 690 181 710 q 149 653 150 657 l 149 649 q 142 638 144 649 q 110 592 121 608 q 94 567 100 575 q 86 555 89 560 q 81 547 83 550 q 75 542 78 542 q 58 493 75 501 l 54 481 q 44 474 49 478 l 44 457 q 43 450 43 456 l 43 428 l 42 425 l 43 425 q 51 296 51 306 l 78 297 l 115 296 l 126 296 l 163 297 q 194 294 182 297 l 329 293 l 339 279 q 350 215 346 265 l 347 174 l 347 113 l 344 113 l 342 108 l 336 50 q 337 47 336 49 q 336 44 338 44 l 336 42 q 344 25 343 25 l 392 28 l 399 28 l 426 26 q 429 25 426 25 l 429 28 l 481 28 q 504 29 500 28 l 506 31 l 508 51 l 510 51 q 508 58 508 53 l 510 128 l 514 128 l 513 136 l 515 163 l 515 192 l 518 193 l 515 193 l 515 213 l 513 239 l 514 251 l 514 269 q 525 289 525 281 l 532 288 q 533 283 533 286 l 533 281 l 597 279 m 411 718 l 401 621 l 400 507 l 403 507 l 403 478 l 400 478 q 396 481 397 481 l 394 476 q 396 474 396 476 l 394 471 q 358 462 385 461 q 321 463 331 463 l 260 460 l 260 458 l 206 457 l 206 456 l 201 458 q 194 457 199 458 l 193 465 l 189 465 l 189 461 q 185 468 185 464 l 193 476 l 206 511 l 208 511 q 224 550 211 514 l 224 553 l 228 556 l 228 560 q 233 563 231 560 l 267 614 l 274 626 l 272 629 l 275 629 l 290 650 l 293 650 l 313 681 l 313 685 q 317 688 314 685 l 317 692 l 324 697 l 324 700 q 348 728 343 718 q 354 739 353 739 l 354 743 q 361 747 358 747 l 388 772 l 390 772 q 392 776 392 774 q 400 781 393 779 l 397 764 l 399 735 l 407 736 q 411 718 411 725 m 289 585 l 282 581 l 282 576 q 279 575 279 576 l 279 572 q 265 546 274 571 l 254 514 q 242 499 242 501 q 236 492 239 492 l 229 482 q 228 481 228 482 q 226 476 226 478 l 300 476 l 311 479 q 328 478 322 479 q 367 481 339 478 l 369 500 l 371 500 q 369 504 371 503 l 371 515 l 371 543 q 369 547 371 546 l 371 547 q 361 619 371 578 l 363 694 l 361 694 q 351 678 353 686 l 349 678 q 344 671 347 674 l 343 671 q 339 665 343 665 l 339 661 l 324 646 l 321 638 q 317 636 319 636 l 314 628 l 311 628 q 294 604 307 624 l 294 601 l 288 596 l 288 593 l 282 589 l 289 585 m 549 775 l 550 779 l 547 779 l 549 775 z "},"5":{"ha":699,"x_min":44,"x_max":647,"o":"m 307 694 q 417 689 367 694 l 417 686 q 457 678 440 686 l 493 671 l 497 668 l 507 664 l 507 663 l 583 610 l 588 610 l 603 590 l 606 590 q 619 555 606 588 q 642 474 633 522 l 644 457 l 644 439 l 647 439 l 644 436 l 647 435 l 644 435 l 643 390 q 635 218 642 325 l 638 218 q 636 201 636 210 q 624 126 633 171 l 621 124 l 611 106 l 610 103 l 578 63 l 575 63 l 568 54 l 565 54 q 504 22 554 43 l 439 8 l 428 8 l 428 6 l 357 1 l 324 3 q 251 1 306 1 l 207 10 q 199 8 206 8 q 192 10 193 8 l 192 11 l 175 15 q 138 31 156 24 l 135 31 l 103 63 l 93 76 l 64 154 l 61 190 l 61 239 l 58 239 q 64 300 60 296 l 72 301 l 72 303 l 124 301 l 138 301 l 181 304 l 238 306 q 243 299 243 304 l 251 299 l 257 288 l 261 283 l 264 267 q 269 246 265 260 l 292 226 l 324 217 l 333 215 l 360 218 q 408 256 403 250 l 408 258 l 413 260 q 432 318 432 306 l 432 332 l 433 351 l 432 403 l 431 413 l 415 444 q 396 460 399 460 l 393 460 l 393 463 q 374 467 389 463 l 374 468 q 319 476 322 476 l 319 478 q 267 488 279 488 q 243 486 254 488 l 219 485 l 171 488 l 164 488 l 132 486 l 75 486 l 75 485 q 58 483 74 483 q 51 492 58 490 l 53 494 q 49 500 53 499 q 44 507 44 500 q 47 508 46 507 l 46 540 l 44 551 l 51 731 l 49 772 q 47 775 47 772 l 50 775 l 50 783 l 51 817 q 50 890 51 853 l 49 928 q 53 958 49 946 l 61 963 l 74 961 l 74 963 q 215 971 189 971 l 247 971 l 350 972 l 408 976 q 426 978 424 976 l 444 978 l 465 972 l 640 968 l 642 961 l 643 882 l 639 881 l 640 819 q 643 818 642 819 l 639 775 q 640 772 640 775 l 639 771 l 635 765 l 556 754 l 496 761 l 496 758 l 482 757 q 433 754 456 757 l 346 753 q 313 756 326 756 l 258 754 q 260 739 258 742 l 263 721 q 268 699 265 699 l 268 696 l 281 696 q 285 694 282 694 l 307 694 m 357 668 l 342 667 q 295 670 307 667 q 282 674 283 674 l 278 675 l 278 678 l 268 678 q 251 675 254 678 q 240 681 242 678 q 239 704 239 685 l 238 761 l 233 761 q 249 776 238 774 l 253 774 l 283 776 l 339 781 q 365 788 344 781 q 364 783 365 785 l 375 783 q 381 785 376 785 l 451 785 l 451 792 l 478 792 l 478 789 l 485 792 l 488 789 q 621 794 496 790 q 624 860 624 814 q 617 933 624 906 l 614 933 l 611 950 l 600 947 q 586 950 597 947 l 483 951 l 481 950 l 458 951 q 446 947 447 951 l 443 950 q 440 949 440 950 l 439 949 l 393 950 l 369 949 l 315 949 l 301 951 l 238 951 l 149 944 l 117 938 l 78 943 l 75 938 l 74 894 l 71 894 q 69 881 69 890 l 69 851 q 68 786 69 818 l 71 786 l 71 704 l 75 618 q 76 610 75 611 l 78 518 l 92 515 l 122 511 l 158 511 l 175 513 l 211 511 l 236 508 l 300 503 q 371 490 336 490 l 397 486 l 397 485 q 424 468 424 469 l 428 465 l 428 463 q 444 428 436 449 l 451 410 l 453 396 q 458 340 453 385 l 460 313 l 457 313 q 444 264 444 271 l 435 243 q 432 242 432 243 l 432 239 l 428 238 l 404 208 l 401 208 q 400 206 400 207 l 396 206 q 371 190 372 192 q 318 182 338 182 l 313 182 l 313 185 q 271 206 304 185 l 263 210 l 246 257 l 243 257 l 240 281 l 240 283 l 189 283 l 183 282 l 179 282 l 164 285 l 86 278 q 76 276 85 276 l 76 274 q 74 238 74 271 q 81 189 74 204 l 82 171 l 104 107 q 110 97 110 101 l 110 94 l 113 94 q 129 71 115 82 q 143 58 143 60 l 146 58 l 186 35 l 189 35 q 190 32 190 33 l 253 22 q 271 21 254 21 q 386 26 288 21 q 413 31 397 31 l 443 31 l 510 51 l 514 54 q 521 57 521 54 l 521 58 q 554 78 521 61 l 575 104 l 575 107 q 607 165 586 118 l 610 169 q 619 243 610 214 l 624 315 l 622 332 q 626 383 622 338 l 622 433 l 619 447 q 614 467 617 458 l 607 490 q 557 560 600 511 q 514 611 514 610 q 493 626 493 624 l 457 644 l 453 650 q 357 668 383 660 z "},"6":{"ha":699,"x_min":42,"x_max":665,"o":"m 285 478 l 315 494 l 315 496 q 349 507 322 496 q 376 521 376 518 l 376 522 q 401 524 379 524 l 428 524 l 494 511 l 497 507 l 560 485 q 567 479 560 483 q 575 472 575 475 l 579 472 q 590 464 586 464 l 590 460 l 593 460 q 600 451 597 456 q 608 444 604 444 l 618 429 q 626 408 626 421 l 628 406 l 629 400 l 647 385 l 649 374 l 651 374 l 664 279 q 665 267 665 278 l 664 244 l 664 222 l 661 222 q 660 211 661 213 l 644 160 l 643 150 l 640 139 l 628 113 q 624 111 626 111 l 624 107 q 621 106 622 107 l 621 103 q 610 89 617 103 q 597 74 604 75 l 593 76 q 582 64 582 65 l 579 64 q 532 36 538 42 q 529 38 531 38 l 529 35 q 483 21 521 35 l 335 1 l 335 3 l 326 0 l 325 3 l 256 7 l 256 8 q 247 10 254 10 l 247 13 q 240 14 242 13 l 240 15 l 218 22 l 214 22 l 214 25 l 200 31 q 168 50 196 31 l 165 50 l 133 83 l 131 83 q 90 119 97 117 l 90 124 q 85 135 85 124 l 68 175 l 57 193 q 56 190 57 190 l 50 217 l 51 228 l 49 244 l 49 254 l 51 289 q 50 311 51 301 l 47 340 l 44 340 l 43 392 l 42 418 l 44 429 l 44 432 q 43 439 44 438 l 47 547 l 44 547 l 47 551 l 47 638 l 49 639 l 47 639 q 50 657 47 654 l 50 699 q 51 729 51 717 l 50 738 l 51 764 l 61 796 l 71 801 l 75 814 l 78 814 l 86 832 q 100 858 99 858 l 100 863 q 107 867 104 867 l 132 890 q 144 903 144 897 l 147 903 q 149 906 149 904 l 153 906 l 168 917 q 210 941 179 928 q 260 954 240 954 l 289 967 l 299 967 l 299 969 l 333 974 l 442 975 q 475 965 453 971 q 511 954 497 958 q 569 925 547 943 l 594 890 q 605 869 600 879 q 614 854 610 860 l 628 814 l 632 789 l 635 789 l 632 756 l 635 756 l 636 743 q 638 711 636 714 q 636 700 636 710 q 637 684 636 690 q 638 676 638 678 q 640 672 639 674 q 640 669 640 671 q 624 660 639 667 q 601 664 624 663 l 540 661 l 518 661 q 500 658 504 658 l 467 658 q 449 657 456 658 q 443 694 443 663 l 442 722 l 439 722 q 432 744 439 724 q 429 746 431 744 l 429 749 l 419 758 l 415 758 q 414 761 415 761 l 411 761 l 410 765 l 368 779 q 363 781 364 779 l 357 778 l 347 779 q 336 772 339 775 l 336 771 q 316 750 333 771 q 289 726 299 729 l 289 724 l 286 713 l 283 706 l 282 703 l 281 685 l 278 681 l 275 657 l 274 654 l 275 654 l 268 588 l 271 497 l 271 483 q 274 469 271 472 l 285 475 l 285 478 m 558 81 q 571 88 567 81 l 588 94 q 591 99 589 96 q 596 103 593 101 l 596 106 q 606 122 603 119 l 607 125 l 610 135 l 611 135 q 619 156 619 143 l 631 199 l 633 214 l 633 285 q 628 369 633 297 l 625 369 l 624 374 q 622 385 624 383 l 604 397 l 603 401 q 601 406 601 403 q 600 411 601 410 l 599 419 l 585 446 q 582 447 583 447 l 582 451 l 568 465 l 564 465 l 549 476 q 543 478 549 478 q 535 479 538 478 l 535 481 q 511 483 526 482 q 460 496 464 488 q 450 503 456 504 q 439 503 444 503 q 420 501 436 504 q 386 497 404 497 q 357 494 365 497 l 367 493 l 363 492 q 333 479 363 489 l 333 478 q 328 472 331 478 q 324 467 326 467 l 321 464 l 289 446 l 289 444 q 284 442 288 443 q 281 439 281 442 l 261 429 l 254 415 l 249 415 q 246 410 249 413 l 243 410 q 242 413 242 411 l 242 414 q 236 431 236 419 l 239 431 l 239 442 l 238 465 q 242 503 238 494 l 243 606 q 250 661 247 635 q 256 708 253 706 l 257 708 l 258 722 l 281 749 l 283 749 q 286 763 285 760 q 293 765 288 765 l 283 768 l 293 772 l 293 774 l 303 775 l 339 794 q 370 804 358 804 q 418 785 382 804 l 421 785 q 422 782 421 783 l 425 782 q 444 765 440 765 l 444 761 q 460 734 454 761 q 467 681 467 707 l 479 676 l 503 676 l 519 675 q 529 676 528 675 l 589 679 q 621 683 603 683 l 619 772 l 599 839 l 599 843 l 588 864 l 576 878 l 572 878 l 572 881 q 540 911 561 883 l 536 911 l 521 919 l 519 919 l 517 924 l 486 933 l 436 946 l 436 943 q 433 946 433 943 l 363 946 q 332 940 347 943 q 310 936 317 938 q 303 935 304 935 l 303 933 l 244 917 l 238 917 q 221 913 228 913 l 168 892 l 160 886 l 143 868 l 143 865 q 139 862 140 863 q 133 856 138 861 l 121 844 l 88 768 l 83 725 l 85 706 q 81 671 85 686 l 78 624 l 78 539 l 75 536 l 76 533 l 75 533 l 74 499 l 71 453 q 72 435 71 438 l 74 386 q 72 382 72 385 l 79 283 q 83 256 79 267 l 88 210 l 115 133 q 142 115 125 124 l 142 113 q 174 78 153 97 q 201 58 196 58 l 207 58 q 211 57 210 58 l 211 56 l 217 54 l 251 38 q 342 28 253 36 l 372 31 l 394 32 l 457 44 l 457 46 q 464 48 458 46 q 496 57 469 50 l 510 64 q 558 81 525 64 m 335 225 q 331 236 331 236 l 328 236 l 324 268 l 328 296 l 332 297 q 350 325 332 307 l 350 326 q 370 334 353 326 q 397 344 388 342 l 396 347 l 447 356 l 447 354 l 483 354 l 485 351 q 500 340 489 351 l 500 338 l 504 335 q 508 329 504 335 l 508 326 q 517 309 513 324 q 522 288 522 294 l 517 285 l 522 286 l 515 264 l 497 228 q 478 210 482 213 l 429 188 q 418 186 428 186 l 394 189 l 388 188 l 372 192 l 368 190 q 357 200 368 193 l 356 203 l 351 203 l 338 225 l 335 225 m 471 225 l 472 233 l 476 233 q 486 247 486 243 l 486 249 q 493 261 493 249 l 493 290 q 478 319 493 308 q 442 329 463 329 q 408 322 421 329 q 385 314 396 315 l 385 311 l 378 308 l 379 307 l 376 307 l 360 290 l 360 288 q 343 265 346 268 l 343 250 l 346 240 l 349 240 l 349 236 l 357 226 l 357 219 l 360 219 l 360 217 l 385 208 q 386 206 385 207 q 389 207 388 207 l 394 204 l 396 206 l 396 203 q 440 213 424 203 l 461 221 l 461 224 l 471 225 z "},"7":{"ha":661,"x_min":22,"x_max":638,"o":"m 467 443 l 464 432 l 461 432 l 431 378 l 429 371 l 425 369 l 413 347 l 413 342 q 403 329 404 333 l 403 325 l 383 294 l 383 290 l 382 292 l 382 288 l 378 285 l 354 240 l 354 236 l 351 236 l 331 200 q 324 188 328 192 l 324 183 q 310 165 322 183 l 310 160 q 286 124 308 160 l 246 42 q 226 3 226 6 l 225 3 q 224 8 224 4 q 214 11 215 11 l 201 8 l 199 11 l 199 8 q 186 10 197 10 l 154 7 l 124 8 l 72 7 l 39 3 l 36 1 l 38 3 q 29 7 29 3 l 22 8 l 22 17 q 46 75 32 35 l 47 75 l 50 81 l 51 81 q 57 89 51 89 l 58 97 q 61 99 60 97 l 78 131 l 78 135 l 79 133 q 99 179 99 163 l 100 179 q 119 217 117 217 l 138 256 q 142 264 139 257 q 154 279 151 279 l 154 285 l 158 288 q 183 339 158 292 q 185 346 183 344 l 186 346 q 197 376 192 360 l 200 379 l 203 389 l 211 411 q 215 417 215 415 l 215 418 l 239 460 l 240 460 l 256 493 l 257 493 l 268 522 q 283 558 272 528 l 285 558 l 288 568 l 294 585 l 297 589 l 300 596 l 303 600 l 317 635 l 322 646 l 324 646 q 325 650 325 647 l 326 650 q 343 689 343 682 l 347 696 l 349 694 l 375 750 l 375 754 q 379 756 376 756 l 381 763 l 386 776 q 379 778 381 776 l 379 779 l 361 778 l 283 781 q 269 779 271 781 q 179 785 251 782 l 142 786 q 75 788 113 786 l 39 786 l 31 786 l 29 803 l 29 804 l 32 819 l 33 819 l 35 833 l 36 838 q 38 849 38 839 l 36 868 q 38 871 36 869 l 35 890 l 36 947 l 39 960 l 38 960 q 36 965 36 961 q 40 967 38 967 l 40 971 l 38 971 q 42 976 39 976 q 86 979 64 976 l 119 979 q 138 978 135 979 l 211 981 q 219 982 213 982 l 239 981 l 342 981 q 353 982 343 982 l 450 981 q 463 979 461 981 l 463 982 l 468 979 l 496 981 q 506 979 504 981 q 511 981 508 981 l 521 979 l 540 981 l 551 979 l 551 982 q 576 981 553 981 q 606 983 599 981 l 606 981 l 613 982 q 636 974 624 982 q 635 921 636 950 l 632 918 l 635 917 l 633 908 l 636 875 l 638 874 l 635 872 l 638 871 l 636 865 l 638 865 l 635 822 q 633 794 633 801 q 636 785 633 788 l 638 775 l 619 729 l 615 719 l 614 719 l 558 614 q 557 610 557 613 q 556 608 557 608 l 543 588 l 540 583 q 533 571 539 578 l 526 558 l 525 551 l 511 526 l 511 521 q 504 513 506 521 q 499 504 503 504 l 499 500 q 468 443 468 444 l 467 443 m 186 39 l 207 33 l 211 35 l 211 38 q 214 39 213 39 l 214 43 l 217 43 l 217 47 q 228 67 224 61 q 233 75 232 74 l 240 90 l 243 97 l 264 133 l 265 140 l 275 156 l 278 156 q 294 186 290 186 l 321 236 l 322 236 l 332 256 l 346 279 l 350 292 l 353 292 l 367 319 q 372 333 369 326 q 376 344 375 340 q 386 361 379 357 q 404 400 386 382 l 433 456 l 446 483 l 460 504 l 475 539 l 481 550 q 483 551 482 550 l 529 638 l 535 647 q 563 699 535 650 l 563 704 q 581 731 567 704 l 581 735 l 582 733 l 583 740 l 586 740 q 589 746 586 742 q 603 779 597 763 l 607 783 l 607 799 l 608 826 l 607 892 q 604 924 607 900 q 601 954 601 947 l 603 953 l 603 956 l 608 956 l 608 965 l 496 968 q 493 969 494 968 q 478 968 492 968 l 463 968 l 425 967 l 322 958 l 310 960 l 268 957 q 254 958 256 957 q 233 956 243 956 l 196 957 l 196 956 l 165 956 q 124 958 154 956 l 64 956 q 61 958 61 956 q 53 938 53 958 l 54 917 l 51 917 q 53 911 53 915 q 47 865 47 901 l 49 842 q 47 832 49 839 l 50 824 q 64 808 50 808 l 81 810 q 96 806 85 806 l 165 808 q 406 794 235 808 l 436 792 l 435 783 l 433 783 q 435 768 435 782 l 432 768 l 429 763 l 425 751 q 422 749 422 750 l 419 739 l 417 739 l 403 710 l 400 700 l 396 694 l 394 689 l 379 657 l 376 657 l 367 632 q 361 625 361 632 l 358 621 q 357 618 357 621 l 343 594 l 339 582 l 336 582 q 333 569 333 571 l 329 565 l 322 547 q 319 546 321 547 l 319 542 l 317 542 l 301 510 l 296 501 l 282 472 q 281 467 281 471 q 279 463 281 464 l 276 463 l 275 458 l 261 429 l 253 410 q 238 379 238 382 l 235 374 l 233 374 l 208 322 l 207 318 l 203 315 l 193 293 l 190 293 l 190 288 q 175 258 186 288 l 164 235 l 161 228 l 160 228 q 149 210 157 222 q 115 133 115 136 l 114 133 q 104 115 114 129 l 89 83 l 89 79 q 85 78 86 79 q 82 68 85 78 l 81 68 l 76 58 l 75 60 l 69 46 l 68 40 l 65 40 l 65 26 q 75 25 67 25 l 101 26 l 185 39 l 186 40 l 186 39 m 614 811 l 615 811 l 617 819 l 614 819 l 614 811 z "},"8":{"ha":681,"x_min":19,"x_max":638,"o":"m 569 896 l 571 890 l 585 878 l 585 875 q 607 847 599 868 q 618 822 615 826 l 621 822 l 621 810 q 622 800 621 801 l 636 767 l 638 749 l 638 692 l 633 646 l 631 646 l 631 638 l 628 638 q 614 593 615 594 l 611 585 l 608 583 l 600 569 l 597 565 l 596 563 q 574 532 596 560 l 574 531 q 571 529 571 531 l 567 522 l 561 522 l 529 486 l 540 479 l 540 476 q 608 396 581 444 l 615 369 q 625 336 624 353 l 628 328 l 631 228 l 631 215 l 628 215 l 622 189 l 614 164 q 606 128 611 143 l 593 94 q 592 89 592 93 l 571 69 l 571 67 q 543 40 567 54 q 515 26 519 26 q 510 28 510 26 l 507 25 q 495 19 499 21 q 475 13 492 17 l 453 7 l 453 6 q 413 4 414 6 l 379 1 l 324 -8 l 304 -10 l 304 -8 q 272 -6 285 -6 l 175 13 l 132 31 q 83 71 117 51 l 83 74 q 81 75 82 75 l 81 79 q 78 81 79 79 l 78 83 l 49 117 l 31 168 l 29 182 l 25 182 q 19 249 19 215 l 21 288 l 24 326 l 39 397 l 43 397 l 60 429 l 60 435 l 63 438 q 81 467 65 447 q 99 490 97 486 l 107 501 q 100 500 103 500 l 100 507 q 101 511 100 510 q 75 540 92 517 l 75 543 q 72 544 74 543 l 72 547 q 61 571 61 568 l 60 571 l 46 613 l 44 613 q 28 709 28 688 q 35 758 28 731 l 39 789 l 39 813 l 43 813 l 51 849 q 100 922 97 922 q 128 951 108 925 l 131 951 q 147 965 147 964 l 183 978 l 221 989 l 261 999 l 293 999 q 294 997 293 997 l 297 997 l 340 1000 l 382 997 l 382 993 q 383 996 383 994 l 383 997 l 465 978 l 465 976 l 467 976 l 467 978 q 501 954 468 978 l 536 931 l 540 931 q 569 896 542 925 m 578 578 l 585 596 l 589 599 l 608 674 q 606 678 606 676 l 608 678 l 608 713 l 606 713 q 604 724 604 714 l 599 744 q 593 774 596 764 q 588 792 588 790 l 585 792 l 578 813 q 540 864 540 861 l 536 864 l 524 872 q 511 883 511 878 l 508 883 q 463 928 503 893 l 461 928 q 460 931 460 928 l 454 932 q 449 936 453 932 l 433 947 l 365 968 l 346 972 q 264 965 278 972 l 242 960 l 239 957 l 228 954 l 228 953 q 219 949 225 953 l 219 947 q 208 943 213 947 l 208 942 q 192 932 200 933 l 192 929 l 185 928 q 175 921 181 924 q 165 911 168 914 q 158 904 161 908 l 154 904 q 132 883 147 894 l 132 881 l 126 876 l 126 874 l 118 867 l 117 864 q 111 857 117 863 l 108 850 q 104 853 107 850 l 106 853 q 111 861 108 858 l 113 865 l 117 868 l 117 874 q 124 878 121 878 l 129 889 q 138 894 135 889 q 153 911 146 904 l 156 911 l 156 914 q 160 917 160 914 l 160 919 l 168 924 q 172 928 169 925 q 185 940 182 935 l 192 944 q 201 951 197 949 q 207 954 206 953 l 207 953 l 211 958 q 228 963 218 958 l 228 964 q 238 965 229 965 l 239 968 l 258 974 l 221 968 l 214 965 l 188 958 l 160 938 l 156 938 l 142 921 l 139 921 q 117 900 125 913 l 117 897 q 113 896 114 897 l 104 881 l 104 878 l 94 864 l 90 861 l 75 833 l 49 739 l 46 718 q 44 709 44 717 q 49 689 44 701 l 49 654 q 66 604 50 644 q 83 563 82 564 l 85 563 l 100 542 q 99 543 99 542 l 99 540 l 104 536 l 104 532 q 122 515 106 532 l 125 515 q 128 513 128 513 q 139 504 131 513 l 150 503 l 150 492 l 147 489 q 125 475 128 482 l 118 472 l 110 469 l 106 464 l 103 464 l 97 457 l 82 444 l 82 440 l 64 415 l 63 408 q 57 399 63 399 l 57 400 q 56 392 56 399 l 51 389 l 46 363 l 43 319 l 39 319 l 36 304 l 36 246 l 39 232 q 47 193 43 215 q 56 163 51 171 l 57 149 l 60 149 q 69 125 60 139 q 79 106 79 111 l 81 100 q 83 99 82 100 l 83 96 l 94 89 l 94 86 q 124 63 100 86 l 126 63 l 126 60 l 131 60 q 142 56 135 56 l 143 50 l 210 25 l 239 21 q 251 17 247 21 l 254 17 l 314 11 l 314 13 l 365 13 l 365 15 q 476 44 460 39 l 476 47 l 488 49 l 488 51 l 522 67 l 526 71 l 531 71 l 565 104 l 567 108 q 569 110 568 108 l 585 135 l 597 168 l 600 176 l 603 176 q 610 211 607 203 q 614 239 614 219 l 615 264 l 611 318 q 594 376 601 365 l 594 379 q 583 399 586 399 l 583 403 q 579 408 579 403 l 578 408 q 547 443 547 439 l 546 443 q 544 446 546 444 l 492 478 l 486 488 q 489 493 486 490 q 506 507 500 501 l 508 507 l 508 510 l 517 514 l 525 514 q 565 553 556 533 l 568 553 l 579 571 q 578 578 578 572 m 388 381 l 397 372 l 397 371 q 406 364 404 368 q 408 358 407 360 l 422 326 l 422 321 l 425 321 l 425 297 l 422 297 l 422 285 q 398 258 418 275 q 367 240 378 240 l 367 238 q 318 231 346 231 q 276 240 290 231 l 263 244 l 246 260 l 246 265 q 240 272 243 265 l 238 289 l 236 289 q 233 296 233 292 l 239 296 l 239 299 l 246 293 l 246 299 q 244 304 244 300 l 244 311 q 242 322 244 314 l 249 356 q 271 385 264 371 l 276 385 l 299 394 l 328 401 l 354 399 l 388 381 m 238 690 l 243 710 l 244 710 q 261 739 247 710 l 269 747 l 293 761 l 311 768 q 318 767 315 767 l 318 768 l 369 758 q 371 753 369 754 l 372 753 q 380 746 375 750 q 386 740 385 742 l 406 700 l 407 689 l 410 679 q 406 663 410 678 l 404 663 q 400 647 400 650 l 400 644 q 389 631 390 635 l 388 631 q 371 618 386 625 q 322 599 371 614 l 293 597 l 293 599 q 283 600 292 600 l 283 604 l 246 625 l 236 644 l 231 674 l 228 682 l 233 679 l 233 686 q 238 683 235 686 l 238 690 m 394 285 l 397 293 l 397 299 q 396 336 397 318 l 394 336 q 389 343 393 339 l 388 349 l 375 358 q 374 361 375 360 l 354 371 q 325 376 336 376 l 315 376 l 290 367 l 274 353 l 274 349 q 265 339 265 349 l 264 339 q 263 336 264 338 l 263 335 q 261 321 261 333 q 263 285 261 308 l 271 271 l 276 271 l 300 256 l 307 254 l 314 254 q 364 257 339 254 l 364 258 q 381 271 369 260 q 392 285 392 282 l 394 285 m 261 706 l 264 671 l 265 665 q 285 629 278 632 l 285 628 l 294 625 l 297 625 l 299 621 l 339 621 q 360 646 351 625 l 363 646 l 363 644 q 361 642 363 643 q 360 629 360 635 l 367 631 q 368 633 367 632 l 369 633 q 371 638 371 633 l 374 638 l 376 642 l 382 643 q 383 645 383 643 q 386 650 383 647 l 383 692 l 376 708 l 374 708 q 372 713 374 711 l 368 724 l 361 726 q 357 733 361 731 l 356 733 l 313 742 q 297 740 300 742 l 296 738 l 288 736 l 275 724 l 272 719 l 272 717 q 268 715 271 715 l 268 713 q 264 711 267 711 l 261 706 m 113 490 l 110 490 q 100 479 107 486 q 90 467 93 472 l 92 467 q 115 492 111 482 l 113 490 m 257 261 l 260 261 l 260 258 q 264 256 261 258 l 263 260 l 261 260 l 258 265 q 251 272 251 265 l 247 276 l 247 283 l 246 274 q 257 261 256 261 m 258 265 l 258 263 l 260 261 l 257 261 q 246 274 256 261 l 247 283 l 247 276 l 251 272 q 258 265 251 265 m 260 258 q 264 256 261 258 l 263 260 l 261 260 l 260 261 l 260 258 z "},"9":{"ha":713,"x_min":40,"x_max":657,"o":"m 400 988 l 449 986 l 517 975 l 553 958 l 572 947 q 618 901 571 946 q 631 861 631 864 l 639 835 l 644 740 q 646 738 644 739 l 646 707 l 649 707 q 644 636 644 669 q 650 565 644 603 l 651 493 l 656 493 l 656 474 q 657 461 657 472 l 654 429 l 656 394 l 650 306 q 646 267 647 294 q 642 228 644 239 l 632 178 l 632 174 q 622 135 625 157 l 625 136 l 593 89 l 589 89 l 563 56 l 560 56 q 554 49 558 51 l 508 22 l 475 14 l 460 8 q 415 0 458 7 l 406 0 l 406 1 q 361 3 363 1 l 315 4 l 315 7 l 271 11 l 268 10 l 189 33 l 189 35 q 163 44 181 35 q 131 61 131 57 l 126 61 q 117 72 126 68 q 74 120 96 82 q 54 167 53 158 l 54 169 l 51 201 l 49 201 l 49 213 q 47 224 49 222 l 46 224 l 40 317 l 47 319 q 51 317 47 317 l 51 319 l 153 321 l 210 324 l 213 324 l 213 325 l 244 324 l 246 322 l 247 325 q 258 321 257 321 l 257 313 q 261 308 258 308 l 263 304 q 315 260 268 288 l 319 257 l 335 256 l 335 254 q 396 278 393 274 q 399 285 399 282 l 410 304 l 411 304 q 426 407 426 368 q 414 425 426 425 q 407 422 411 422 l 404 422 q 336 410 394 422 l 336 407 l 331 407 q 310 408 325 408 l 289 408 q 257 411 264 408 l 226 418 l 226 421 q 176 436 183 432 q 153 456 167 442 l 126 474 l 126 478 q 99 499 103 488 q 60 575 76 547 q 47 619 50 617 l 46 619 l 42 669 l 43 735 l 49 772 l 51 772 q 64 844 63 843 l 65 844 q 114 910 94 894 q 142 931 133 926 q 156 938 150 936 q 163 940 161 939 q 182 948 174 946 q 194 954 190 950 q 206 958 206 954 l 210 960 q 260 971 215 960 q 344 981 336 981 l 400 988 m 608 171 l 611 192 l 618 219 l 618 560 l 624 581 l 624 764 l 622 764 q 621 788 622 786 l 619 788 q 592 875 619 833 q 550 926 565 917 l 533 936 l 528 942 l 486 956 q 397 960 403 960 l 385 957 l 278 951 l 278 949 l 214 942 l 204 940 q 161 914 163 915 l 158 914 l 156 913 l 117 875 q 97 838 100 847 q 93 828 94 828 l 92 829 l 89 825 l 76 726 q 78 665 76 700 l 76 636 l 79 586 l 81 586 q 84 574 82 581 q 88 561 86 567 l 94 543 l 110 518 l 147 485 q 160 474 158 474 l 165 475 q 167 472 165 474 l 226 447 l 296 438 l 318 438 q 340 435 338 435 l 375 436 l 421 442 q 431 447 422 442 q 446 453 439 453 q 449 440 446 443 l 457 431 l 454 431 l 457 392 l 454 310 l 451 310 l 447 279 l 403 224 l 397 218 l 369 210 q 351 208 363 208 q 331 211 339 208 l 269 233 q 267 236 268 235 q 258 246 261 239 q 246 261 258 256 l 247 267 q 238 308 239 288 q 224 310 225 308 l 204 308 l 204 306 l 160 306 l 79 297 l 79 294 l 74 294 q 67 280 67 292 q 68 267 67 268 l 88 196 q 99 167 96 167 l 101 150 q 135 93 106 146 l 154 82 q 196 57 156 79 q 208 53 200 53 l 208 50 l 294 29 l 294 26 l 306 25 l 408 29 q 411 31 410 29 l 411 29 q 418 31 417 29 l 418 29 l 458 35 l 482 39 l 482 42 l 488 42 l 515 54 l 525 57 l 563 78 q 582 106 578 93 l 585 110 q 588 119 585 117 l 600 147 l 600 154 l 603 154 q 607 171 606 169 l 608 171 m 294 731 l 314 758 l 321 761 q 333 763 322 763 l 333 764 l 386 761 q 417 750 394 760 l 417 749 l 449 707 l 450 697 q 444 663 449 696 q 431 621 440 631 l 424 619 q 417 610 422 613 l 406 603 l 399 600 l 365 600 l 363 596 l 325 611 l 322 611 q 313 618 318 613 l 294 638 l 294 640 l 292 640 l 283 671 q 282 674 282 671 l 285 676 l 282 676 l 281 685 l 282 697 l 292 729 q 294 731 292 731 m 372 750 l 317 736 l 304 715 q 301 688 301 696 q 339 621 301 658 l 361 614 l 361 611 l 388 611 l 388 614 q 396 615 389 615 l 406 621 l 435 672 l 438 686 q 419 728 438 707 q 372 750 400 750 z "}," ":{"ha":278,"x_min":0,"x_max":0,"o":""},"!":{"ha":301,"x_min":53,"x_max":243,"o":"m 229 560 l 232 493 l 233 479 q 232 474 232 478 l 235 315 l 238 257 l 239 258 q 240 253 240 257 q 242 246 240 249 l 240 242 l 232 239 q 225 238 231 238 l 225 240 l 125 238 q 108 235 122 238 q 92 236 106 236 l 76 236 q 74 231 74 233 q 53 239 65 239 q 56 240 54 240 l 56 242 q 58 240 57 242 l 58 242 q 63 244 61 244 q 61 249 61 246 l 61 250 q 63 253 63 250 l 61 285 l 61 303 q 58 325 58 317 l 60 392 l 60 440 q 61 443 60 442 l 60 444 l 61 444 q 60 454 60 446 l 61 464 l 58 478 l 60 497 l 60 522 q 58 535 58 525 l 58 549 l 57 549 l 56 807 q 58 868 56 838 q 63 900 61 899 l 64 914 q 63 932 63 917 l 63 951 l 64 968 l 71 969 q 74 971 72 969 l 74 972 q 76 974 75 972 l 81 971 q 138 976 125 971 l 156 978 l 165 978 l 192 976 q 231 978 194 978 q 239 971 238 971 l 239 967 q 236 961 236 964 l 236 957 l 235 954 q 235 952 236 954 q 235 942 235 950 l 236 753 l 235 753 q 229 560 229 640 m 222 496 l 221 529 l 221 615 q 218 731 221 711 l 218 758 l 217 782 q 219 797 219 790 l 219 833 q 221 836 219 835 l 219 843 q 221 847 221 844 l 219 847 q 218 868 218 856 q 221 889 218 881 l 219 958 l 140 957 l 93 958 q 81 956 85 958 q 78 902 78 954 q 79 671 78 850 l 71 599 l 72 593 l 71 593 l 71 590 q 72 586 71 588 l 69 585 l 72 579 l 71 272 q 78 251 71 251 l 101 251 q 111 254 104 254 l 119 254 q 225 267 204 258 q 222 417 222 414 l 222 496 m 238 121 l 235 7 l 232 7 l 232 1 q 225 -4 228 1 q 222 -3 224 -4 l 221 0 q 206 4 217 4 q 190 1 197 1 l 178 1 q 146 -1 158 -1 q 114 3 133 -1 l 108 1 l 108 3 l 82 4 q 71 3 79 4 l 71 6 q 65 11 65 10 l 65 32 q 74 156 68 117 l 72 156 q 68 161 68 160 l 69 163 q 82 169 69 165 l 82 171 q 110 176 88 176 l 182 171 l 219 174 q 240 167 233 174 l 242 156 l 243 151 q 240 133 240 149 l 238 121 m 85 150 l 82 101 l 82 83 q 83 54 83 71 l 85 32 q 85 26 86 31 q 88 19 85 21 q 101 17 92 17 l 129 19 l 129 18 l 171 22 l 185 21 l 222 26 q 226 90 225 33 l 224 133 q 213 145 221 143 q 169 147 204 147 q 93 151 97 150 l 85 150 z "},"\"":{"ha":525,"x_min":57,"x_max":474,"o":"m 471 672 l 469 667 q 474 649 469 656 l 467 646 q 460 644 465 644 l 460 646 l 433 644 q 425 646 432 646 l 425 644 q 422 646 424 646 l 410 646 q 401 644 403 646 l 375 644 q 364 643 365 644 q 350 644 363 644 l 338 644 q 336 642 336 643 l 332 643 q 325 647 329 643 l 325 675 q 324 680 324 676 q 322 685 324 683 l 321 813 l 322 819 l 322 832 l 321 882 l 324 940 l 326 957 q 325 975 325 958 l 326 983 l 332 983 l 338 986 q 340 985 339 986 l 365 985 l 388 988 l 465 988 l 471 985 l 467 949 l 467 860 q 468 856 467 857 l 468 853 q 467 844 467 850 l 467 833 q 465 829 467 831 l 467 822 q 465 813 465 821 l 467 799 l 467 789 q 465 776 467 779 q 467 763 467 775 l 471 703 l 469 703 q 471 696 471 699 l 469 690 l 471 690 l 469 690 l 471 682 q 469 675 469 678 l 471 672 m 68 983 l 74 986 q 76 985 75 986 l 101 985 l 124 988 l 201 988 l 207 985 l 204 968 l 203 860 q 204 856 203 857 l 204 853 q 203 844 203 851 l 203 814 q 201 776 203 792 q 203 763 203 775 l 203 735 q 206 669 203 689 q 210 649 210 650 l 203 646 q 196 644 201 644 l 196 646 l 169 644 q 161 646 168 646 l 161 644 q 158 646 160 646 l 146 646 q 138 644 139 646 l 111 644 q 100 643 101 644 q 86 644 99 644 l 74 644 q 72 642 72 643 l 58 646 l 61 647 l 61 675 q 60 680 60 676 q 58 685 60 683 l 60 717 l 60 738 q 61 740 60 739 q 60 744 60 742 l 61 750 q 60 756 60 751 l 60 776 q 58 782 58 778 l 58 789 l 57 813 l 58 819 l 58 832 l 57 882 l 60 940 l 63 957 q 61 975 61 958 l 63 983 l 68 983 m 68 772 l 69 754 l 67 750 l 67 710 l 71 683 q 72 672 71 674 l 72 653 l 94 651 q 103 653 97 653 l 118 653 q 132 654 119 654 l 179 654 q 196 658 189 654 l 190 844 q 192 860 192 847 q 190 874 192 872 l 190 894 q 192 904 190 903 l 190 933 q 192 946 190 936 l 192 979 l 126 978 l 85 978 q 75 967 75 978 l 76 926 l 76 889 l 72 861 q 74 858 72 860 l 69 846 l 69 808 q 71 806 69 807 l 68 806 q 69 803 68 803 l 71 782 q 68 772 68 779 m 332 772 l 333 754 q 332 747 332 753 l 333 746 l 332 746 l 332 686 l 335 683 q 336 672 335 674 l 333 661 q 336 660 335 661 l 336 653 l 358 651 q 367 653 361 653 l 382 653 q 396 654 383 654 l 443 654 q 456 657 453 654 q 460 658 460 660 q 454 786 460 697 l 453 808 q 454 817 453 815 l 454 831 l 456 860 q 454 874 456 872 l 454 894 q 456 904 454 903 l 454 933 q 456 946 454 936 l 456 979 l 390 978 l 357 978 l 347 979 q 339 972 339 979 q 340 939 340 951 l 340 889 l 336 861 q 338 858 336 860 l 333 846 l 335 782 q 332 772 332 779 z "},"#":{"ha":929,"x_min":26,"x_max":896,"o":"m 894 642 l 896 626 l 894 572 q 896 554 896 569 l 896 536 q 889 529 889 533 l 883 529 q 878 532 881 532 q 874 532 878 532 l 874 533 l 868 532 q 849 533 850 532 q 765 531 779 531 q 749 532 750 531 q 690 357 728 474 l 769 356 q 782 354 771 354 l 831 353 q 853 354 846 353 q 871 353 854 353 l 871 347 q 872 344 872 346 l 878 342 q 875 336 876 340 l 874 336 q 875 329 874 331 l 875 308 q 879 285 876 290 l 881 288 l 881 271 q 879 256 881 258 q 881 238 881 253 l 881 219 q 874 213 874 217 l 868 213 q 863 215 865 215 l 858 215 l 858 217 l 647 217 q 600 111 636 217 l 590 83 l 589 83 q 571 33 571 46 q 567 18 567 25 l 564 11 l 558 8 q 549 1 556 1 q 542 0 543 1 l 542 -1 l 515 0 l 506 1 l 506 0 l 497 1 q 496 -1 497 0 l 494 1 l 451 0 q 432 1 433 0 l 431 0 l 411 -1 l 400 3 l 397 -1 q 394 6 394 -1 q 402 37 394 14 q 420 85 410 60 q 440 144 431 110 q 468 218 450 178 l 460 218 l 451 219 l 450 218 q 447 219 449 218 l 383 219 q 369 218 382 218 l 303 218 q 282 161 299 199 q 244 61 265 124 l 243 61 q 242 56 242 60 l 240 56 q 228 18 228 28 l 225 11 l 224 11 q 220 5 224 8 q 214 1 217 1 q 208 1 211 0 q 203 0 206 1 l 203 -1 l 176 0 l 167 1 l 167 0 q 160 1 164 0 q 158 -1 160 0 l 156 -1 l 156 1 l 113 0 q 93 1 94 0 l 92 0 l 74 -1 l 61 3 q 60 -1 61 0 q 57 8 57 -1 q 92 111 57 18 q 129 215 106 164 l 119 214 q 83 215 111 217 q 54 211 56 213 l 36 214 l 33 219 q 32 225 32 221 q 35 226 35 225 l 32 256 q 33 265 33 257 l 32 265 q 36 279 36 269 l 29 313 q 31 326 31 314 l 29 343 q 26 344 26 343 q 30 351 26 346 q 33 364 33 357 l 38 361 q 36 358 38 358 l 43 356 l 44 357 l 47 354 l 50 357 l 104 357 l 136 358 l 186 357 q 199 401 199 388 l 200 406 l 199 406 q 224 472 211 426 q 243 532 238 517 l 239 532 q 236 533 238 532 l 219 531 l 135 531 q 119 533 126 533 l 117 531 q 113 532 114 531 l 57 528 l 53 529 l 51 547 l 49 547 l 49 681 l 51 675 l 119 674 q 156 675 121 675 l 276 672 q 297 685 290 672 q 318 747 304 699 q 347 840 340 826 l 350 854 q 351 868 350 867 l 353 868 q 351 872 351 869 q 354 874 353 872 l 358 888 q 383 883 367 883 l 417 885 l 429 885 l 433 883 l 450 885 l 467 883 q 479 886 471 883 l 493 886 l 504 888 q 514 881 510 888 l 513 876 l 514 876 q 522 881 517 881 q 524 874 522 875 l 522 874 q 521 861 521 872 l 519 861 q 481 744 501 817 q 461 675 461 689 l 483 674 q 486 675 483 675 l 500 675 l 500 674 q 503 674 503 674 q 506 675 503 675 l 507 674 l 507 675 q 521 674 508 674 l 529 674 l 629 675 q 638 700 632 688 q 688 850 657 742 l 689 854 q 690 868 689 867 l 692 868 q 690 872 690 869 q 693 874 692 872 l 696 888 q 722 883 704 883 l 756 885 l 768 885 l 772 883 l 789 885 l 806 883 q 818 886 810 883 l 832 886 l 842 888 q 853 881 849 888 l 851 876 l 853 876 q 860 881 856 881 q 861 874 860 875 l 860 874 q 858 861 858 872 l 856 850 l 853 843 l 850 840 q 847 828 847 832 l 844 826 l 799 672 l 846 669 q 868 671 861 669 q 896 668 876 668 l 896 651 l 894 642 m 433 865 l 425 868 l 368 868 l 367 865 l 367 863 l 368 867 q 367 863 368 863 l 365 860 q 363 846 363 860 l 354 811 q 353 807 354 808 l 349 789 q 314 692 325 703 l 311 679 l 301 658 q 286 657 300 657 l 124 657 q 108 660 117 657 l 96 660 q 61 622 61 660 l 65 565 q 58 544 65 544 q 79 547 60 544 l 90 547 q 104 548 94 547 q 118 549 114 549 l 115 551 l 117 551 l 131 549 l 219 547 l 242 550 q 246 549 243 549 l 267 549 q 230 439 246 494 q 208 367 214 383 q 197 344 203 350 q 161 333 183 333 q 106 340 139 333 q 63 347 72 347 l 42 331 l 49 296 l 50 256 l 64 231 l 75 231 q 89 231 78 231 q 103 232 100 232 l 100 235 l 101 235 l 115 232 l 154 232 q 107 106 118 147 l 101 90 l 85 50 q 75 23 75 31 q 76 15 75 15 q 131 19 108 19 l 204 13 q 214 28 210 13 q 219 47 217 39 q 221 54 222 54 l 221 56 l 240 99 l 240 103 q 242 105 242 103 q 243 108 242 107 l 250 131 l 254 139 q 258 146 257 142 l 275 192 q 290 235 283 211 l 368 235 q 381 236 379 235 l 450 236 l 460 235 l 493 235 q 446 106 468 181 l 440 90 q 415 15 424 61 q 503 11 457 11 q 550 22 550 11 q 549 25 550 25 q 564 60 550 26 q 571 78 564 71 l 582 117 q 594 142 586 131 q 603 158 603 154 q 615 194 603 171 q 622 217 619 214 q 627 224 625 221 q 632 229 629 228 q 647 233 640 233 l 653 232 l 654 232 q 664 231 657 232 q 674 231 671 231 l 672 232 l 713 232 q 725 233 724 232 q 734 232 726 232 q 744 235 742 232 l 765 233 q 775 235 772 235 q 818 228 782 228 q 860 235 854 228 q 865 261 865 242 q 839 336 865 336 l 829 336 q 808 338 810 336 l 785 338 q 768 340 782 338 l 668 340 l 693 419 q 715 483 699 436 q 738 553 731 531 q 751 549 746 549 q 758 551 756 549 l 781 550 q 790 551 788 551 q 794 550 792 550 l 804 550 q 829 551 807 550 q 876 538 851 551 l 876 551 l 879 604 l 886 653 q 867 654 868 653 q 854 653 865 653 l 844 653 q 824 654 825 653 l 778 656 l 793 715 q 828 824 815 803 l 838 842 q 851 868 851 867 l 828 869 q 804 868 814 869 l 789 868 q 773 865 778 865 q 764 868 768 865 l 710 868 l 703 850 q 656 710 661 733 q 649 681 651 688 q 646 658 646 675 l 511 657 q 501 658 503 657 l 500 658 l 483 657 q 481 658 482 657 l 439 658 q 485 807 439 669 l 490 824 q 500 849 494 838 q 510 871 510 868 l 508 872 q 474 868 486 868 l 447 868 q 438 867 443 867 q 433 865 433 867 m 476 340 l 328 340 q 400 553 376 471 l 543 551 q 564 550 544 550 l 606 550 q 576 460 590 508 q 536 342 561 411 l 496 340 q 486 342 488 340 l 475 342 l 476 340 m 406 356 l 414 357 l 467 358 l 467 357 l 468 357 q 471 358 468 358 l 485 358 l 485 357 l 490 358 l 492 357 l 492 358 q 496 357 493 357 l 514 357 l 525 358 q 582 533 533 375 q 562 533 572 533 q 543 535 551 533 l 540 535 l 533 533 l 525 535 l 475 535 l 467 536 l 465 535 q 463 536 464 535 l 411 535 q 382 447 401 506 q 351 357 363 388 l 386 357 l 406 356 z "},"$":{"ha":618,"x_min":15,"x_max":603,"o":"m 442 613 l 406 611 q 396 614 403 613 q 381 624 381 615 q 375 656 378 632 q 368 695 372 681 q 349 723 364 710 q 318 736 333 736 q 286 728 303 736 l 272 708 q 258 667 258 690 q 394 528 258 603 l 453 499 q 424 507 443 499 q 435 500 428 504 q 453 490 450 493 l 453 497 q 478 464 460 486 q 522 401 522 410 l 560 351 q 576 299 563 336 q 593 185 589 263 q 587 166 593 183 q 580 147 581 149 q 574 130 579 144 q 565 112 568 115 q 556 97 563 108 q 542 79 549 85 q 527 65 536 74 q 510 50 518 56 q 469 26 503 44 q 417 1 436 7 l 417 -10 l 414 -11 l 417 -11 l 414 -12 l 414 -21 l 417 -21 l 417 -112 q 418 -118 417 -117 l 418 -119 q 419 -122 418 -121 l 413 -124 q 408 -126 413 -126 q 406 -125 408 -125 l 244 -124 l 231 -125 l 228 -125 q 225 -126 226 -125 l 203 -126 q 213 -122 203 -122 l 208 -86 q 210 -25 210 -46 l 211 -17 l 208 -17 l 208 -1 l 183 7 q 76 67 99 35 q 15 219 39 107 l 26 321 l 26 338 q 85 342 58 342 l 183 338 l 197 338 q 213 339 211 338 q 222 336 215 338 q 237 327 235 335 q 241 297 239 319 q 246 262 243 275 q 256 233 249 249 q 308 200 268 200 q 332 210 319 200 l 344 233 l 358 253 l 344 303 l 331 324 l 297 357 q 241 409 256 399 q 207 438 226 419 q 176 460 188 456 q 158 472 165 465 q 146 483 150 478 q 117 518 129 506 l 88 549 q 26 717 28 610 q 21 739 21 726 q 31 773 22 742 q 44 812 40 804 q 63 844 49 819 q 94 878 78 868 q 211 915 147 908 l 211 924 l 208 924 q 210 928 211 926 q 210 953 210 931 l 211 1006 l 211 1033 q 208 1042 208 1036 l 207 1043 l 211 1043 l 213 1046 l 222 1047 q 229 1046 225 1047 l 340 1044 q 379 1046 358 1044 l 419 1049 q 422 1049 421 1049 l 422 1046 l 414 1043 l 414 939 l 418 939 l 417 917 q 477 899 429 917 q 542 860 525 881 q 590 768 576 825 q 597 741 592 763 q 603 717 601 719 l 590 626 q 592 613 590 614 q 563 610 572 610 l 536 610 l 442 613 m 394 -78 l 396 -22 l 394 21 q 463 40 421 21 q 472 50 467 40 q 483 60 478 60 l 506 72 q 546 110 535 92 q 562 152 557 128 q 571 184 567 176 q 575 210 575 192 q 565 246 575 228 l 569 276 q 530 350 564 300 q 483 428 496 400 l 457 451 l 429 488 l 397 504 l 349 536 l 331 553 l 278 574 l 269 589 q 238 677 238 646 q 262 731 238 708 q 306 753 286 753 q 342 749 325 753 q 390 697 382 724 q 396 663 393 688 q 401 628 399 639 l 558 628 l 568 632 q 567 643 567 633 l 572 701 q 568 765 572 743 q 538 817 564 788 q 463 874 513 847 q 396 894 440 883 l 388 982 q 386 1013 388 1007 q 378 1019 385 1019 l 363 1018 l 360 1019 l 265 1021 l 235 1019 l 231 1019 q 232 994 232 1018 l 231 939 l 231 903 q 149 888 196 903 q 83 845 103 872 q 57 787 64 818 q 47 749 50 756 q 43 728 43 743 q 51 694 43 714 l 49 667 q 84 597 54 644 q 125 528 114 550 l 126 517 l 163 496 l 163 497 l 196 474 l 192 474 l 199 469 q 229 449 208 458 q 242 425 235 432 q 262 411 250 418 q 278 400 274 404 l 292 389 l 310 369 l 349 364 q 379 265 379 301 q 356 206 379 228 q 301 183 333 183 l 289 183 q 276 186 281 186 q 234 229 242 210 q 225 258 226 249 q 222 287 224 267 q 217 321 219 307 l 60 321 l 50 314 l 44 250 q 96 106 44 171 q 231 25 147 42 l 233 -10 l 231 -10 q 233 -72 233 -72 l 231 -87 l 235 -89 l 231 -89 l 233 -90 l 235 -92 l 339 -97 q 364 -100 358 -100 q 378 -91 369 -100 q 389 -82 386 -82 q 394 -85 392 -82 l 394 -78 z "},"%":{"ha":839,"x_min":25,"x_max":807,"o":"m 599 976 l 650 981 q 651 974 651 979 l 650 974 l 651 969 q 660 974 653 974 l 661 967 l 660 967 q 658 951 658 965 l 649 929 l 646 917 l 635 888 l 636 885 l 621 846 q 503 492 593 756 q 401 194 413 228 q 381 145 390 160 q 372 124 372 131 l 364 104 q 363 96 364 104 l 343 49 q 339 38 343 42 l 336 24 l 332 17 q 331 13 332 14 l 325 15 l 324 22 l 321 15 q 319 8 321 10 l 326 8 q 317 4 321 3 q 310 4 313 6 l 310 3 l 281 4 l 281 6 l 269 4 l 261 6 q 260 3 261 4 l 257 3 l 257 6 l 210 4 q 188 6 189 4 l 186 4 l 167 3 l 154 7 l 151 1 q 149 14 149 1 q 186 126 149 26 q 261 325 226 257 q 260 328 260 325 q 269 354 269 338 q 272 353 271 354 q 307 450 303 447 l 304 451 q 372 638 335 511 q 432 818 410 764 l 444 854 q 450 876 450 865 l 456 892 q 458 906 458 903 l 471 944 q 472 960 472 946 l 474 960 q 472 964 474 963 q 475 965 474 964 l 475 971 q 479 982 476 972 q 513 976 489 976 l 544 978 l 599 976 m 608 963 l 542 965 q 504 960 510 965 l 492 940 l 490 932 l 471 876 q 469 867 471 868 l 457 826 q 456 817 456 825 l 442 782 q 440 775 440 781 l 417 703 q 414 701 417 701 l 414 696 q 411 694 413 694 l 404 668 q 403 665 403 667 l 403 658 q 400 657 401 658 l 396 638 q 376 579 393 635 q 374 577 374 579 q 375 574 374 575 q 371 563 371 569 l 364 549 l 338 472 q 332 457 332 467 l 301 382 q 300 374 300 381 q 296 363 296 369 l 290 346 q 288 344 289 346 l 286 342 l 283 331 l 281 328 l 268 292 q 267 286 268 288 l 265 286 q 264 278 265 279 l 256 260 q 251 251 256 256 q 250 244 251 246 l 244 226 q 235 199 242 226 q 221 153 228 172 l 213 129 q 208 119 213 124 l 207 111 l 189 64 q 188 57 189 58 l 178 33 l 174 14 l 201 15 l 201 17 l 214 15 q 240 18 228 18 l 269 18 q 310 22 297 18 l 311 29 q 313 35 311 33 l 358 164 l 360 174 l 364 181 l 365 192 l 367 192 q 368 196 367 194 l 369 196 q 371 204 369 203 l 389 249 q 390 254 389 253 l 401 289 q 403 299 403 290 l 404 299 q 406 304 406 300 l 415 328 q 417 338 417 329 q 421 347 421 342 l 426 356 l 428 365 q 463 463 463 453 l 465 465 q 469 483 467 479 l 471 483 q 472 488 472 485 q 476 499 476 492 l 488 528 l 489 533 l 490 538 q 493 542 492 538 q 497 550 494 547 l 519 622 q 521 629 519 628 l 524 631 l 535 669 q 536 678 536 671 l 538 678 q 539 690 539 679 l 550 719 q 553 733 550 729 q 557 742 557 736 q 565 765 564 756 q 568 778 567 774 l 579 804 l 581 813 l 592 842 q 596 851 592 851 l 599 861 q 600 869 599 868 l 608 893 q 610 903 610 894 q 629 964 625 943 l 608 963 m 799 381 l 800 365 l 801 354 q 803 347 801 349 l 801 346 l 807 311 l 807 296 l 806 279 l 807 267 q 806 254 807 256 l 801 217 q 799 196 799 197 l 792 160 q 783 135 792 151 q 775 118 775 119 q 774 114 775 117 l 767 96 l 751 81 l 743 71 l 735 65 q 707 53 710 56 l 701 51 q 699 50 700 51 l 668 40 q 665 42 667 40 l 665 40 l 663 42 l 663 40 l 651 42 l 635 43 l 635 44 q 628 43 629 44 l 604 50 l 557 79 l 554 85 l 547 90 l 547 92 q 544 93 546 93 l 543 97 q 538 100 538 97 l 518 133 l 513 149 l 513 154 q 510 161 513 158 l 501 217 q 500 224 500 219 q 499 229 500 228 l 500 229 l 499 233 l 500 233 l 499 246 q 497 257 499 256 l 503 313 q 504 325 503 324 l 513 390 l 528 429 q 531 432 531 431 q 532 435 531 433 l 540 447 q 547 457 540 447 l 571 483 l 571 485 q 624 506 574 485 l 653 508 q 665 510 663 508 q 668 510 667 511 l 681 511 l 689 508 q 692 507 690 508 l 694 507 q 712 500 700 506 q 732 494 724 494 l 733 493 q 740 488 740 493 l 743 488 l 747 482 l 753 478 l 756 475 q 761 465 758 469 q 772 450 772 453 q 778 442 774 446 l 799 381 m 310 571 l 303 560 q 301 556 303 558 l 294 538 l 279 522 l 271 513 l 240 496 l 229 493 q 226 492 228 493 l 196 482 q 193 483 194 482 l 193 482 l 190 483 l 190 482 l 179 483 l 163 485 l 163 486 q 156 485 157 486 l 132 492 l 119 493 q 106 500 107 500 l 106 503 q 94 513 100 506 q 85 521 88 519 l 82 526 q 78 529 79 528 q 75 532 78 531 l 61 547 l 61 550 l 50 569 l 40 590 l 40 596 q 38 603 40 600 l 29 658 q 28 665 28 661 q 26 671 28 669 l 28 671 l 26 675 l 28 675 l 26 688 q 25 699 26 697 l 31 754 q 32 767 31 765 l 40 832 q 47 847 43 839 q 52 859 50 854 q 56 868 54 864 q 60 876 57 872 l 75 899 l 81 903 l 81 904 q 83 906 82 906 l 88 913 l 99 925 l 99 926 q 101 929 100 926 q 108 932 103 932 q 111 936 111 935 l 115 938 q 121 939 119 938 l 151 947 l 181 950 q 192 951 190 950 q 196 951 194 953 l 208 953 l 217 950 q 219 949 218 950 l 222 949 q 240 942 228 947 q 260 936 251 936 l 261 935 q 268 929 268 935 l 271 929 l 275 924 l 289 910 l 292 910 q 297 899 294 901 l 297 897 q 326 828 324 838 l 326 822 l 328 807 l 329 796 q 331 789 329 790 l 329 788 l 335 708 q 333 696 335 697 l 329 658 q 326 638 326 639 l 319 601 l 318 589 l 314 579 q 313 575 313 578 q 310 571 310 572 m 743 467 l 733 475 l 732 475 q 726 481 732 476 l 725 479 q 713 488 715 488 l 713 489 l 676 497 q 665 496 674 497 l 649 496 q 642 497 644 497 q 635 496 639 497 l 607 488 q 602 486 606 486 q 599 488 599 486 q 608 492 606 492 l 608 493 q 592 488 599 488 l 590 488 l 581 481 l 581 479 q 571 474 571 475 l 575 474 l 547 443 l 549 442 l 539 429 l 536 418 l 533 418 l 531 410 q 526 403 531 408 l 528 400 l 524 393 l 515 357 q 517 350 517 356 l 513 324 l 514 301 l 513 301 q 514 288 513 289 l 510 275 l 508 249 l 510 232 l 513 204 q 514 193 514 203 l 517 176 l 518 169 l 524 156 q 525 151 524 153 l 535 131 q 564 92 554 111 l 565 92 q 567 89 565 90 l 569 89 q 571 86 569 86 l 588 76 q 590 75 588 75 l 593 72 q 596 71 596 72 l 629 56 q 636 54 631 54 l 661 53 q 675 54 663 54 q 718 76 706 71 q 731 81 731 81 q 732 83 732 82 l 732 89 l 765 146 l 768 154 l 769 160 q 771 167 769 165 l 778 192 q 790 260 778 203 l 790 271 l 793 299 l 793 308 q 792 319 793 318 l 792 339 l 789 350 l 789 357 q 790 360 790 357 l 776 403 l 754 447 q 751 449 753 449 l 744 464 q 743 467 743 465 m 306 633 q 318 701 306 644 l 318 785 q 317 792 318 790 l 317 799 q 318 801 318 799 l 304 844 l 296 868 q 292 878 294 875 l 290 881 l 279 890 l 272 906 q 261 917 269 907 l 260 917 q 258 919 260 918 l 244 928 q 240 929 243 929 l 240 931 l 204 939 q 193 938 201 939 l 176 938 q 169 939 172 939 q 163 938 167 939 l 136 933 l 136 935 l 132 933 q 108 922 119 933 l 108 921 q 99 914 101 919 q 103 915 99 915 q 96 911 100 913 l 88 904 l 83 896 q 79 889 79 896 l 75 885 l 76 883 l 61 860 l 43 799 q 44 792 44 797 l 40 765 l 42 743 l 40 743 q 42 729 40 731 l 38 717 l 36 690 l 38 674 l 40 646 q 42 635 42 644 l 44 618 l 46 611 l 60 576 l 69 560 l 78 547 l 94 531 l 97 531 q 99 528 97 528 l 135 507 l 157 497 q 164 496 158 496 l 189 494 q 203 496 190 496 l 224 504 q 233 508 229 504 l 250 519 q 268 543 260 529 l 278 564 q 279 567 278 565 l 293 588 l 296 596 l 297 601 q 299 608 297 607 l 306 633 m 129 800 l 128 817 q 131 826 128 824 l 150 849 l 156 851 q 168 858 156 854 q 178 860 176 858 l 196 860 q 199 861 197 861 l 222 840 l 225 835 q 226 832 225 833 l 235 790 q 238 681 235 786 l 229 608 q 225 599 229 607 q 221 596 224 599 l 221 594 l 217 589 l 196 576 l 182 574 q 147 588 157 578 q 135 606 138 599 q 131 635 133 613 l 126 751 q 125 754 126 753 l 129 800 m 628 410 q 640 417 628 413 q 650 418 649 417 l 668 418 q 671 419 669 419 l 685 413 l 704 369 l 707 349 q 708 254 708 339 l 708 253 q 707 183 708 226 l 701 167 q 697 157 701 165 q 693 154 696 157 l 693 153 l 689 147 l 686 146 q 683 143 686 143 l 682 140 q 668 135 669 136 l 654 132 q 619 147 629 136 q 608 164 610 157 q 603 193 606 171 l 599 222 l 601 358 q 606 379 601 375 l 606 392 q 614 399 610 396 q 621 407 621 403 l 628 410 m 693 358 l 692 371 l 692 381 l 689 386 l 686 386 q 685 390 686 390 l 683 390 l 679 396 l 676 396 q 675 399 676 399 l 668 403 q 633 393 643 403 q 625 389 629 393 q 621 381 621 385 l 611 344 l 610 303 q 608 291 608 301 q 611 261 608 281 l 614 206 l 617 188 l 621 169 q 631 155 624 163 q 640 147 639 147 l 642 147 q 644 149 642 149 l 657 147 q 664 146 660 147 l 675 150 l 688 158 l 692 168 l 696 183 l 696 246 l 700 275 l 699 296 q 694 331 699 321 l 693 358 m 215 600 l 219 610 q 221 614 219 613 l 224 625 l 226 738 q 222 772 226 763 l 221 800 q 207 838 221 828 l 204 838 q 203 840 204 840 l 196 844 l 190 844 q 163 838 178 844 q 149 822 149 832 l 139 786 l 138 744 q 136 733 136 743 q 139 703 136 722 l 142 647 l 144 629 l 149 611 q 159 597 151 604 q 168 589 167 589 l 169 589 q 172 590 169 590 l 185 589 q 192 588 188 589 l 203 592 l 215 600 m 776 432 l 778 425 l 785 408 l 778 431 l 776 432 z "},"&":{"ha":785,"x_min":11,"x_max":789,"o":"m 628 1 l 599 -3 q 557 21 574 -3 l 514 51 l 467 21 q 228 0 399 0 q 200 6 210 0 q 40 150 74 53 q 22 229 28 186 q 11 290 15 272 l 11 364 q 104 524 36 475 q 172 569 143 563 l 150 597 q 128 624 133 618 q 110 647 124 629 q 94 673 97 665 q 81 697 90 681 q 69 724 72 713 q 63 750 67 735 q 56 825 56 778 q 84 919 56 872 q 150 990 113 965 q 294 1028 231 1028 q 415 1011 358 1028 l 481 983 l 542 928 q 564 830 564 893 q 533 697 564 767 q 438 574 503 628 l 503 471 q 515 526 503 485 q 546 567 528 567 q 656 558 596 567 l 714 550 q 744 554 732 550 q 747 506 747 524 q 682 211 747 346 l 771 83 l 779 67 q 789 38 789 44 l 786 -1 l 718 -3 l 628 1 m 726 533 l 713 532 q 694 533 697 532 l 669 536 q 581 549 640 543 l 565 544 q 556 543 564 543 q 544 547 547 543 l 544 521 q 514 406 533 497 l 414 576 q 490 662 472 635 q 515 724 507 689 q 538 790 522 760 q 553 852 553 821 q 526 917 553 883 l 474 964 q 335 1008 378 1008 q 172 978 244 1008 l 160 971 l 161 972 q 127 948 136 958 q 104 908 118 938 l 93 890 q 76 821 76 864 q 81 755 76 778 q 101 703 85 732 q 124 665 118 675 q 164 613 131 654 q 206 561 197 572 q 169 542 188 553 q 132 524 150 532 q 101 489 124 511 q 33 361 51 438 l 33 292 l 42 249 q 111 81 53 138 q 183 37 135 56 q 296 18 232 18 q 360 24 324 18 q 396 32 396 31 q 408 26 397 26 q 447 39 419 26 l 492 71 l 513 78 l 589 25 l 628 19 l 769 19 l 769 38 q 763 56 769 44 q 754 72 756 68 l 757 71 l 657 208 q 726 533 726 364 m 388 368 q 414 324 399 368 q 429 257 429 281 l 429 253 l 415 226 l 415 229 q 389 211 411 219 q 358 201 367 203 q 325 207 350 200 l 326 206 q 250 231 274 206 q 226 296 226 257 q 265 396 226 331 q 270 403 268 403 q 278 404 272 403 q 292 407 285 406 l 325 414 q 359 395 350 403 q 385 365 368 388 q 388 368 385 368 m 244 285 q 308 226 244 236 q 327 219 317 224 q 344 214 338 214 q 363 222 350 214 q 385 226 368 222 q 401 235 401 231 l 417 267 q 401 317 417 276 l 388 351 l 383 349 q 369 363 378 349 q 359 379 361 376 q 353 386 357 382 q 326 397 344 392 q 288 390 297 392 q 276 382 278 388 q 272 375 274 376 q 244 285 244 317 m 258 794 l 260 810 l 260 822 q 274 858 260 844 l 283 874 l 283 871 q 304 882 289 882 q 328 875 319 882 q 338 865 338 868 l 336 865 q 349 795 349 853 q 329 714 349 738 l 328 707 q 304 697 318 697 q 263 769 276 697 q 258 794 258 783 m 304 708 q 335 737 325 708 q 346 803 346 765 q 310 871 346 871 l 301 871 q 286 864 293 871 l 276 850 q 265 794 265 850 q 268 774 265 793 q 304 708 278 708 z "},"'":{"ha":257,"x_min":56,"x_max":208,"o":"m 71 642 l 64 644 q 56 646 57 644 l 56 647 l 60 647 l 60 675 l 57 685 l 58 715 l 58 738 q 60 740 58 739 q 58 744 58 742 l 60 750 q 57 756 57 753 l 58 764 l 58 782 q 57 789 58 786 l 56 810 l 57 814 l 56 819 l 57 825 l 56 825 l 56 890 l 58 940 l 61 957 q 60 975 60 958 l 61 983 l 68 983 q 72 985 69 983 q 75 985 74 986 l 100 985 l 122 988 l 200 988 l 206 985 l 203 978 q 204 975 203 976 q 203 968 203 974 l 201 949 l 201 860 q 202 854 201 857 q 203 845 203 851 q 201 838 203 839 l 201 822 q 200 815 200 821 q 201 808 200 808 l 200 776 q 201 763 201 775 l 203 717 l 203 660 l 208 649 q 194 644 197 644 l 168 646 l 168 644 q 160 646 167 646 l 144 646 q 72 644 117 646 q 71 642 71 643 m 74 974 l 75 961 l 74 961 q 75 958 75 961 l 75 954 q 74 951 75 953 l 75 933 l 69 846 l 69 808 l 68 808 q 69 806 68 807 l 67 806 l 69 803 l 69 782 l 71 668 l 69 660 l 68 658 l 71 658 l 71 653 l 93 651 q 101 653 94 653 l 117 653 q 131 654 118 654 l 178 654 q 190 656 189 654 q 189 660 189 657 l 188 676 q 189 678 188 678 q 190 674 190 678 l 192 665 l 194 658 l 193 732 l 193 764 q 188 811 189 807 q 189 817 188 815 l 189 831 l 190 860 q 189 874 190 872 l 189 886 l 188 896 q 189 899 189 896 q 190 904 189 903 l 189 933 l 190 946 l 190 979 l 125 978 l 82 978 q 74 974 74 978 m 168 649 l 150 650 l 146 649 l 168 649 z "},"(":{"ha":436,"x_min":43,"x_max":400,"o":"m 399 838 l 397 826 l 397 804 l 396 804 q 397 800 396 801 q 365 790 393 804 q 315 763 338 776 q 279 717 293 749 q 263 666 265 685 q 256 620 260 647 q 250 574 253 593 q 240 492 240 524 l 244 442 q 267 258 244 303 q 300 219 279 235 q 334 199 301 215 q 369 182 367 182 l 371 181 q 379 182 372 182 q 381 179 379 181 l 400 179 l 400 33 l 396 10 q 389 8 390 10 l 389 7 q 318 1 389 1 q 78 149 163 1 q 53 210 53 189 l 56 225 q 54 231 56 229 l 51 243 l 43 349 l 44 357 l 46 357 q 51 406 51 401 l 51 471 l 56 663 l 54 696 q 57 717 54 703 l 58 738 q 92 866 58 801 q 183 956 126 931 q 199 963 186 958 q 213 968 211 967 l 299 976 l 324 976 l 358 975 q 397 960 397 972 l 397 840 l 399 838 m 386 156 q 351 172 376 165 l 351 174 q 323 186 343 178 q 297 199 303 194 q 240 265 251 233 l 239 265 l 236 279 q 232 290 232 279 l 221 349 q 215 378 215 358 q 218 393 218 386 l 219 394 l 219 536 l 224 549 q 222 553 222 550 l 225 556 l 225 564 l 224 618 l 225 638 l 225 650 q 228 665 225 651 q 231 667 229 665 q 249 713 249 703 l 267 739 l 268 739 l 285 763 l 288 763 q 306 781 290 771 q 332 797 322 790 l 332 799 l 367 807 q 372 863 367 847 l 375 889 l 375 933 q 371 943 375 943 l 364 946 l 364 947 q 336 953 351 953 l 306 950 l 222 931 l 201 922 q 194 918 197 921 l 181 911 q 175 910 179 910 l 168 907 l 131 879 l 121 875 q 106 856 111 863 q 100 846 100 849 l 99 842 q 90 828 94 842 l 88 825 l 75 768 l 75 426 l 69 411 q 71 403 69 404 l 69 396 l 71 396 l 69 335 q 71 326 69 328 l 72 247 l 76 226 q 81 211 78 217 l 94 165 l 100 153 l 111 136 q 128 111 111 125 l 135 103 l 138 103 q 157 86 151 89 q 158 83 158 85 l 201 57 l 318 28 q 331 26 329 28 l 364 21 q 371 19 368 19 l 385 22 l 382 36 l 382 53 q 386 86 382 72 l 386 156 m 265 713 l 258 697 l 257 689 l 251 672 l 246 661 q 236 592 238 622 l 235 556 q 233 548 233 554 q 236 542 233 542 l 239 561 l 244 610 q 243 614 244 613 l 246 624 q 244 628 246 626 l 253 649 q 265 707 253 682 l 267 707 l 265 713 m 238 397 q 235 390 235 394 l 235 372 q 236 369 235 371 l 235 325 l 238 325 q 239 314 239 324 l 242 306 q 246 292 246 300 l 247 292 q 243 322 247 307 q 238 397 240 382 m 269 717 q 272 722 269 719 q 275 726 275 725 l 274 725 q 267 713 269 724 l 269 714 l 269 717 z "},")":{"ha":435,"x_min":31,"x_max":388,"o":"m 375 225 l 378 210 q 353 149 378 189 q 244 34 306 67 q 113 1 183 1 q 42 7 42 1 l 42 8 q 35 10 40 10 l 31 33 l 31 179 l 50 179 q 51 182 51 181 q 60 181 58 182 l 61 182 q 97 199 64 182 q 131 219 129 215 q 181 322 172 250 q 186 442 186 374 l 190 492 q 184 558 190 524 q 174 619 178 593 q 166 669 171 646 q 147 721 161 692 q 33 800 119 775 q 35 804 35 801 l 33 804 l 33 826 l 32 838 l 33 840 l 33 960 q 72 975 33 972 l 107 976 l 132 976 l 218 968 q 232 963 219 967 q 335 870 299 940 q 372 738 372 800 l 374 717 q 376 696 376 703 l 375 663 l 379 471 l 379 406 q 385 357 379 401 l 386 357 q 388 349 386 357 l 379 243 l 376 231 q 375 225 375 229 m 79 172 q 44 156 54 165 l 44 86 q 49 53 49 72 l 49 36 l 46 22 l 60 19 q 67 21 63 19 l 100 26 q 113 28 101 28 l 221 54 l 229 57 l 267 81 l 272 83 q 274 86 272 85 l 276 88 q 293 103 283 93 l 296 103 q 310 122 307 117 q 315 128 314 126 l 331 153 l 336 165 l 350 211 q 354 226 353 217 l 358 247 l 360 326 q 361 335 361 328 l 360 396 l 361 396 l 360 403 q 361 411 361 404 l 356 426 l 356 768 l 343 825 l 340 828 q 332 842 336 842 l 331 846 q 325 856 331 849 q 310 875 319 863 l 300 879 l 263 907 l 256 910 q 250 911 251 910 l 236 918 q 229 922 233 921 l 208 931 l 125 950 l 94 953 q 67 947 79 953 l 67 946 l 60 943 q 56 933 56 943 l 56 889 l 58 863 q 64 807 64 847 l 99 799 l 99 797 q 123 781 114 788 q 135 773 132 775 q 143 763 139 771 l 146 763 l 163 739 l 164 739 l 182 713 q 200 667 182 703 q 203 665 201 665 q 206 650 206 651 l 206 638 l 207 618 l 206 564 l 206 556 l 208 553 q 207 549 208 550 l 211 536 l 211 394 l 213 393 q 215 378 213 386 q 210 349 215 358 l 199 290 q 194 279 199 279 l 192 265 l 190 265 q 175 239 188 256 q 151 213 163 222 q 133 199 139 203 q 108 186 128 194 q 79 174 88 178 l 79 172 m 178 649 l 186 628 q 185 624 185 626 l 188 614 q 186 610 186 613 l 192 561 l 194 542 q 197 548 197 542 q 196 556 197 554 l 194 592 q 185 661 194 603 l 179 672 l 174 689 l 172 697 l 169 704 q 165 713 167 704 l 164 707 l 165 707 q 178 649 178 682 m 183 292 l 185 292 q 192 314 185 293 q 193 325 192 324 l 196 325 l 194 369 q 196 372 196 371 l 196 390 q 193 397 196 394 q 188 322 190 382 q 183 292 183 307 m 156 726 l 161 717 l 161 714 l 164 713 q 157 725 161 724 l 156 726 z "},"*":{"ha":510,"x_min":31,"x_max":485,"o":"m 129 740 q 121 750 121 744 l 107 764 l 108 765 q 101 768 108 767 l 103 769 l 44 835 l 38 838 q 36 847 36 844 q 38 850 36 850 l 31 858 q 33 860 32 858 l 38 858 q 50 868 46 858 l 61 882 l 60 882 l 71 896 l 72 894 l 86 908 q 90 911 86 911 l 104 926 q 118 944 106 933 l 121 942 l 144 968 q 146 967 144 967 q 153 972 147 967 q 185 944 176 949 l 204 925 l 206 926 l 218 913 q 231 900 221 911 q 249 883 240 889 l 250 883 l 263 874 l 311 922 l 313 921 q 334 942 313 922 q 364 969 356 961 q 369 964 365 965 l 367 961 q 381 952 378 958 q 385 944 383 946 l 385 946 q 425 906 411 924 q 464 869 449 878 l 464 867 l 475 856 l 474 854 q 476 853 475 853 l 481 854 l 481 850 q 482 846 481 846 l 443 801 l 443 800 q 422 775 443 793 q 390 743 397 754 l 392 743 l 389 739 q 396 731 389 738 q 406 722 403 724 l 404 721 q 453 669 429 689 l 451 669 q 461 658 456 660 l 460 657 q 469 649 464 653 q 476 642 474 644 q 480 638 478 640 q 483 633 482 635 q 485 622 485 629 q 446 579 481 614 l 406 542 q 397 532 403 539 q 388 522 390 525 l 386 524 l 379 514 l 378 515 l 369 506 l 369 507 q 360 501 364 506 q 325 533 338 524 l 281 575 q 275 579 279 575 l 275 578 q 263 591 271 583 q 251 601 254 599 q 229 581 243 597 q 210 564 215 565 l 208 565 l 157 514 q 118 544 144 518 q 85 575 92 571 l 74 585 l 75 586 q 49 613 64 586 l 46 610 q 38 617 43 611 q 31 624 33 622 l 35 629 l 33 631 l 60 656 q 65 663 60 663 l 64 664 l 94 694 l 93 696 l 121 724 l 119 725 q 128 732 121 729 l 125 735 l 129 740 m 170 943 q 166 944 170 943 q 160 948 163 946 q 158 953 158 950 q 160 960 158 956 l 158 961 l 142 944 l 149 944 q 125 928 133 929 l 96 894 q 97 897 96 896 q 51 847 51 857 q 56 846 51 846 l 56 843 l 76 819 l 78 814 q 83 813 78 813 l 124 768 l 133 758 l 133 760 q 149 738 142 744 q 144 725 144 729 q 138 717 142 717 l 138 718 l 97 675 q 88 663 97 668 l 74 646 q 75 651 74 650 q 64 643 72 649 q 40 625 40 628 l 56 632 q 109 569 74 604 q 157 535 144 535 q 175 556 169 535 q 209 587 194 574 q 226 604 224 600 q 235 613 229 608 q 241 617 240 617 q 254 621 242 617 q 285 597 272 603 q 297 589 297 590 q 285 588 297 588 q 299 579 290 586 l 317 563 q 363 522 360 522 l 435 590 l 468 626 q 424 676 447 640 l 426 675 l 371 736 q 372 742 371 740 l 375 750 l 389 764 l 386 764 q 392 771 386 765 l 414 794 q 456 849 456 825 l 456 851 l 454 854 l 454 857 q 444 867 451 861 l 443 867 q 436 869 438 867 q 411 899 421 889 l 386 922 q 370 935 375 931 q 363 942 365 940 q 360 944 361 943 q 357 946 358 946 q 356 947 356 946 q 335 924 346 947 l 336 922 l 310 899 q 288 879 290 879 l 260 853 q 242 872 264 853 q 215 892 221 890 l 206 903 l 192 913 q 170 943 178 940 m 454 854 l 456 853 l 454 854 z "},"+":{"ha":618,"x_min":26,"x_max":583,"o":"m 401 722 l 404 717 l 413 719 l 415 715 l 415 708 q 417 701 417 707 l 414 679 q 415 672 414 674 l 417 672 q 415 669 417 671 l 417 638 l 418 638 q 417 617 418 629 q 418 567 417 604 l 419 551 q 421 549 419 550 l 447 550 q 456 549 449 549 l 476 549 q 503 547 492 549 l 524 544 l 524 546 q 526 544 525 546 l 528 544 q 546 546 538 546 l 583 544 q 582 535 582 543 l 579 535 l 582 521 q 581 506 581 519 l 582 506 q 581 493 581 504 l 581 492 q 582 489 581 490 l 581 488 l 582 488 l 582 458 q 583 420 582 431 q 583 408 585 410 l 582 379 q 581 376 582 378 l 578 357 q 583 351 578 354 q 546 343 583 343 l 436 343 l 429 336 l 419 335 l 414 333 q 417 321 414 331 l 408 207 l 406 207 l 406 190 q 397 160 406 164 l 378 157 q 364 156 376 156 q 268 160 351 156 l 238 158 l 238 160 l 224 158 l 208 161 q 196 172 196 161 l 193 179 l 194 186 q 192 251 192 214 l 192 296 l 190 333 q 61 339 161 339 l 42 339 q 32 350 39 342 l 33 397 q 29 450 33 431 l 29 508 l 28 508 l 26 528 q 27 533 26 532 q 35 535 28 535 l 35 536 l 43 535 l 58 536 q 68 538 60 538 l 75 536 q 82 538 79 538 q 85 536 85 538 l 88 538 q 114 539 104 538 l 144 540 q 196 544 174 542 l 196 546 q 201 547 200 546 l 201 563 l 206 610 q 207 626 206 624 l 207 638 q 203 657 203 650 l 203 660 l 206 660 l 210 696 l 211 696 l 210 704 l 210 706 q 218 725 210 708 l 222 725 q 236 715 231 715 q 243 717 242 715 l 335 721 l 360 724 l 360 719 l 386 719 l 401 722 m 550 521 l 528 517 l 499 517 l 429 519 l 403 519 q 401 525 403 524 l 401 538 q 394 539 400 539 l 393 693 l 390 693 l 390 699 q 358 703 390 703 l 314 701 l 249 701 q 237 696 244 699 q 228 678 229 693 q 226 605 226 664 q 226 525 226 546 l 224 525 l 224 522 l 210 525 l 208 524 l 178 519 q 81 510 86 510 l 56 510 l 53 460 l 50 458 l 51 456 q 53 453 53 456 l 51 444 l 51 424 q 53 421 51 422 l 50 418 q 53 415 50 415 l 53 408 l 54 386 q 53 368 53 385 l 65 364 l 82 364 q 138 361 96 361 l 200 361 q 229 357 204 361 l 231 343 q 225 286 231 332 l 229 189 q 328 185 233 185 q 371 186 361 185 l 372 188 q 376 228 374 197 q 382 274 378 260 l 383 289 l 382 315 l 383 329 q 393 367 383 367 l 396 364 l 406 365 q 493 364 478 365 l 549 364 q 553 372 553 369 l 551 382 q 553 389 551 388 l 554 389 l 554 510 l 556 514 l 557 514 q 560 519 560 517 l 550 521 z "},",":{"ha":261,"x_min":43,"x_max":224,"o":"m 117 -137 l 104 -139 l 101 -139 q 103 -136 101 -137 l 99 -136 l 99 -107 l 101 -104 l 103 -85 q 108 -43 106 -65 q 111 -15 110 -21 l 113 -1 l 111 4 l 94 3 l 68 3 l 68 4 q 51 3 53 4 l 51 6 q 46 11 46 10 l 43 68 l 46 113 q 54 156 50 126 l 53 156 q 49 161 49 160 l 50 163 q 64 172 50 167 q 90 176 78 176 l 163 171 l 200 174 q 221 167 214 174 l 224 150 l 222 150 l 215 65 l 217 65 q 215 63 217 64 l 215 7 l 213 7 l 210 -4 l 211 -7 l 213 -24 q 200 -115 213 -47 q 201 -128 201 -117 q 196 -139 201 -139 q 189 -137 190 -139 l 186 -139 q 117 -137 185 -137 m 110 18 l 124 19 l 125 21 l 124 17 l 122 -6 l 124 -6 q 119 -79 124 -42 q 114 -124 114 -117 q 122 -125 115 -125 q 144 -124 129 -125 l 183 -126 l 185 -126 l 183 -122 l 185 -122 q 192 -67 188 -108 q 199 -15 197 -26 l 201 7 l 200 14 l 206 88 q 207 90 206 89 l 206 90 q 204 113 204 101 l 204 133 l 201 146 l 176 144 l 131 150 q 124 149 128 150 l 89 150 q 74 151 76 150 l 65 150 q 64 133 64 149 l 65 65 l 67 42 l 67 28 l 68 19 q 72 17 68 17 l 82 17 l 110 19 l 110 18 z "},"-":{"ha":724,"x_min":50,"x_max":722,"o":"m 717 382 q 714 317 717 342 l 715 317 q 719 311 718 317 l 721 290 l 721 286 l 722 272 l 721 271 q 711 283 715 271 l 640 278 l 558 278 l 558 274 l 499 272 l 411 272 q 326 271 354 272 l 326 268 l 251 265 l 251 263 l 229 263 l 67 265 q 60 274 67 268 q 50 288 53 279 l 53 288 l 53 314 l 50 314 l 51 315 q 53 319 51 318 l 50 321 l 53 333 l 53 472 q 55 481 53 479 q 60 489 57 483 l 54 494 q 67 499 58 499 l 181 506 q 196 503 196 506 l 194 501 l 488 501 l 550 507 l 588 510 l 588 507 l 707 515 l 721 501 q 718 496 718 499 l 715 472 q 719 382 715 411 l 717 382 m 665 335 l 664 354 q 665 363 664 361 l 667 363 l 671 411 l 671 422 l 665 456 l 667 474 q 665 482 667 481 q 653 479 654 479 l 164 471 l 164 468 q 140 466 153 467 q 122 465 128 465 q 108 463 115 464 q 97 460 100 461 q 92 457 94 460 q 86 443 86 453 l 86 428 q 88 378 86 403 q 88 353 89 354 l 89 344 l 88 338 l 88 328 q 100 304 88 304 l 168 303 l 281 304 l 346 308 l 349 310 l 364 308 l 601 308 l 646 311 l 647 314 l 647 311 l 657 314 q 640 319 650 317 q 665 335 665 319 m 633 317 l 628 315 q 618 321 624 315 q 628 319 626 321 l 633 319 l 633 317 m 635 317 l 635 319 l 639 319 q 635 317 636 317 z "},".":{"ha":263,"x_min":39,"x_max":217,"o":"m 217 167 l 217 146 l 214 124 q 213 74 214 124 l 213 57 l 211 47 l 213 38 q 211 7 211 36 l 208 7 l 208 1 l 199 -3 q 183 4 194 4 l 182 4 l 167 1 l 154 1 q 126 -1 146 -1 q 90 3 106 -1 l 85 1 q 51 3 69 3 l 47 3 l 47 6 q 42 11 42 10 l 42 32 q 40 56 40 33 l 39 88 l 42 113 q 50 156 46 126 q 44 163 44 157 l 49 168 l 58 171 q 83 176 64 176 l 158 171 l 199 172 q 217 167 211 172 m 201 75 l 201 90 q 200 133 200 113 l 200 138 q 197 146 200 143 l 172 144 l 144 149 l 126 149 l 126 150 q 119 149 124 150 l 119 150 q 69 151 72 150 l 61 150 q 60 133 60 149 l 60 32 q 61 25 61 31 q 78 17 61 17 l 113 18 q 161 21 135 21 l 199 26 q 200 42 200 28 l 201 75 z "},"/":{"ha":572,"x_min":28,"x_max":540,"o":"m 33 7 l 31 1 q 28 8 28 1 q 33 35 28 15 q 45 72 39 54 q 58 107 51 89 q 65 126 65 125 l 88 188 q 108 242 101 229 q 117 271 114 254 q 138 317 125 307 l 140 325 q 139 328 139 325 q 149 351 149 338 l 149 354 q 151 353 150 354 q 186 450 183 447 l 183 451 q 215 533 199 479 q 242 613 232 588 q 270 698 251 638 q 292 765 289 758 q 313 820 296 771 q 329 876 329 869 l 332 882 l 335 892 l 340 908 l 350 944 q 351 960 351 946 l 353 960 q 351 964 353 963 q 354 965 353 964 l 354 971 q 358 982 357 974 q 397 976 368 976 q 476 978 425 976 l 479 976 q 529 981 503 981 q 531 974 531 979 l 529 969 l 531 969 q 539 974 533 974 l 540 967 l 539 967 q 538 951 538 965 l 525 917 l 518 900 l 515 892 l 515 885 l 514 885 q 503 853 513 885 q 457 700 474 747 q 375 463 440 653 q 290 216 310 272 q 260 145 269 160 q 251 124 251 131 l 222 49 q 218 38 222 42 q 206 14 218 35 l 204 22 l 201 15 l 200 15 q 199 8 200 10 l 206 8 q 196 4 200 3 q 189 4 192 6 l 189 3 l 160 4 l 149 6 l 149 4 l 140 6 q 139 3 140 4 l 136 3 l 136 6 l 89 4 q 67 6 68 4 l 65 4 l 46 3 l 33 7 m 264 238 q 269 253 264 240 l 271 253 l 281 289 l 282 289 q 303 351 303 350 l 306 357 l 308 360 l 325 406 l 328 417 l 329 417 q 344 467 340 450 l 347 469 q 351 488 349 483 l 353 488 q 354 492 354 489 q 366 517 361 499 q 371 538 371 536 l 372 542 q 379 554 375 542 l 386 575 l 388 586 l 389 586 l 392 603 l 408 649 l 417 674 q 418 682 418 675 l 419 682 q 435 732 431 724 q 439 746 439 740 l 443 754 q 464 817 443 765 l 489 889 l 490 897 q 492 907 492 899 q 511 968 507 947 l 493 968 l 489 967 q 433 969 475 969 q 386 964 392 969 l 374 944 l 360 907 q 354 881 357 888 l 353 881 q 351 871 353 872 l 340 833 l 339 831 q 338 821 338 829 l 311 751 l 308 743 l 306 736 l 296 703 l 296 700 q 293 699 294 699 l 278 642 q 274 629 274 639 l 264 599 q 256 581 256 583 q 257 578 256 579 q 253 567 253 574 l 250 564 l 224 486 q 219 476 222 479 q 215 471 215 472 l 214 461 l 194 417 q 193 410 193 415 l 188 396 q 182 378 182 386 q 178 367 178 374 l 153 306 l 151 296 l 150 296 q 149 290 150 292 l 133 256 q 119 206 119 214 l 117 199 l 115 199 q 114 192 114 196 q 113 188 114 189 l 110 176 l 92 126 l 90 124 l 89 115 l 60 38 l 56 18 l 83 19 l 83 21 l 96 19 q 190 24 176 22 l 194 39 l 197 47 l 199 53 l 201 53 l 219 108 q 224 122 221 114 q 226 132 226 129 l 228 138 q 231 144 229 138 q 254 208 239 171 l 263 229 l 264 238 m 183 446 l 182 446 l 183 447 l 183 446 z "},":":{"ha":285,"x_min":51,"x_max":232,"o":"m 165 636 l 208 639 q 229 632 222 639 l 231 621 l 232 617 l 231 615 q 224 531 224 597 l 225 531 l 224 510 q 221 472 224 503 l 221 467 q 214 461 217 467 q 211 463 213 461 l 210 465 q 194 469 206 469 l 165 468 q 110 467 136 467 q 76 469 85 467 q 60 468 61 469 l 60 471 q 54 476 54 475 l 51 521 q 63 621 51 531 l 61 621 q 57 626 57 625 l 58 628 q 61 632 58 629 l 61 633 q 100 642 82 642 l 165 636 m 232 151 q 229 133 229 149 l 228 133 l 224 65 l 225 65 q 224 7 224 42 l 221 7 l 221 1 q 214 -4 217 1 q 211 -3 213 -4 l 210 0 q 194 4 206 4 l 167 1 q 132 0 154 0 q 76 3 110 0 l 76 4 q 60 3 61 4 l 60 6 q 54 11 54 10 l 53 32 l 54 32 q 53 56 53 33 l 51 65 l 54 113 q 63 156 60 135 l 61 156 q 57 161 57 160 l 58 163 q 61 167 58 164 l 61 168 q 100 176 82 176 l 160 172 l 208 174 q 229 167 222 174 l 231 156 l 232 151 m 139 615 q 132 614 136 615 l 97 615 q 82 617 85 615 l 74 615 q 72 599 72 614 l 72 503 l 74 500 q 72 497 74 499 l 74 497 q 75 492 75 496 q 90 482 75 482 l 90 483 q 132 485 117 485 l 211 492 q 213 507 213 493 l 214 540 l 214 561 l 231 599 q 210 611 210 604 q 194 610 197 611 q 139 614 192 610 l 139 615 m 72 44 q 75 25 75 33 q 90 17 75 17 l 118 19 l 125 18 q 211 26 129 19 q 213 42 213 28 l 213 107 l 214 133 q 210 146 210 142 l 185 144 q 132 149 163 144 l 97 150 q 82 151 85 150 l 74 150 q 72 133 72 149 l 71 101 q 72 96 72 101 l 72 65 l 74 44 l 72 44 z "},";":{"ha":285,"x_min":50,"x_max":231,"o":"m 111 -92 l 110 -78 q 118 -15 110 -50 l 119 -1 l 118 4 l 101 3 l 75 4 q 58 3 60 4 l 58 6 q 50 35 50 11 l 50 42 q 51 44 50 43 l 50 68 l 53 113 q 61 156 57 126 l 60 156 q 56 161 56 160 l 57 163 q 69 169 57 165 l 69 171 q 97 176 75 176 q 169 171 118 176 l 207 174 q 228 167 221 174 l 231 150 l 229 150 q 222 47 222 139 l 222 7 l 219 7 l 217 -4 l 218 -21 q 207 -115 218 -49 q 208 -128 208 -117 q 203 -139 208 -139 q 196 -137 197 -139 l 193 -139 q 182 -137 192 -137 l 182 -136 q 121 -139 153 -139 l 108 -139 q 110 -136 108 -137 l 106 -136 l 106 -107 q 111 -92 111 -101 m 58 628 q 71 635 58 631 l 71 636 q 99 642 76 642 l 171 636 l 204 638 q 229 632 224 638 l 231 621 l 224 510 q 215 464 217 467 l 214 461 q 211 463 213 461 l 210 465 q 194 469 206 469 l 142 464 l 76 469 q 60 468 61 469 l 60 471 q 54 476 54 475 l 53 567 l 54 567 l 63 621 l 61 621 q 57 626 57 625 l 58 628 m 138 150 q 131 149 135 150 l 81 151 l 72 150 q 71 133 71 149 l 69 101 q 72 49 72 75 q 74 20 72 24 q 89 17 76 17 l 89 18 q 131 19 115 19 l 132 21 l 131 17 l 133 13 l 132 7 q 126 -74 132 -25 q 122 -124 121 -122 q 125 -125 122 -125 q 139 -122 125 -125 l 150 -125 l 165 -124 l 165 -125 l 167 -124 l 190 -126 l 192 -126 l 190 -122 l 192 -122 q 194 -94 194 -103 q 196 -83 194 -85 l 206 -15 l 213 88 q 214 90 213 89 l 213 90 l 208 146 q 192 145 196 146 q 138 149 189 144 l 138 150 m 165 488 l 174 486 l 211 492 q 213 507 213 493 l 214 540 l 215 556 l 213 599 q 207 609 208 607 q 201 611 206 611 q 177 611 189 611 q 153 613 165 611 l 139 615 q 132 614 136 615 l 97 615 q 82 617 85 615 l 74 615 q 72 599 72 614 l 72 507 q 75 494 75 504 q 78 483 75 485 q 90 482 81 482 l 118 485 l 118 483 q 146 486 135 486 l 165 488 z "},"<":{"ha":504,"x_min":-6,"x_max":489,"o":"m 489 107 q 483 111 483 107 l 483 113 l 469 100 q 460 92 468 100 l 424 54 q 400 28 407 47 l 400 31 l 385 11 l 365 0 q 338 26 347 14 q 318 50 329 39 l 110 249 l 106 249 l 83 274 l 64 292 q 33 322 43 311 l 4 357 l -6 379 l 11 399 l 33 418 q 76 468 57 449 l 138 526 q 178 571 143 538 l 178 569 l 182 574 l 181 574 l 240 635 q 263 657 256 646 l 286 681 q 318 717 307 701 l 351 750 l 390 751 q 385 740 386 740 q 382 742 385 742 q 378 743 379 742 l 436 685 q 454 671 436 676 l 458 664 q 475 663 463 664 l 476 649 l 489 628 q 467 611 472 611 l 465 611 q 394 535 457 597 l 396 535 l 365 501 l 318 456 l 319 456 l 276 410 q 258 392 268 400 l 260 394 l 250 383 l 253 385 l 253 361 l 265 349 q 287 328 263 349 q 328 292 311 307 q 382 239 368 254 l 394 228 l 404 217 l 421 206 l 421 200 q 432 188 432 192 l 440 182 l 449 175 l 465 158 q 489 149 468 156 l 489 107 m 472 124 l 472 135 l 469 135 q 461 140 464 138 l 460 139 l 417 183 l 411 186 l 390 210 q 357 243 379 218 q 219 372 274 322 l 225 376 l 225 379 q 263 419 251 406 l 261 421 l 353 513 l 351 514 l 426 590 l 425 592 l 461 632 q 465 631 463 631 q 468 629 468 631 l 469 631 l 469 629 l 471 631 l 469 631 l 472 633 q 461 640 464 636 l 463 642 l 453 647 q 433 667 443 656 q 385 713 403 696 q 368 732 368 729 l 368 735 l 356 735 l 347 724 l 350 722 l 297 669 l 246 619 l 242 613 l 193 563 q 153 519 167 540 l 86 454 l 86 456 l 53 421 q 38 404 43 411 q 29 394 32 397 q 19 383 19 385 l 18 382 l 18 383 l 14 376 q 19 367 17 369 q 18 363 18 365 l 46 333 q 74 306 58 321 q 93 288 89 292 l 132 249 l 132 250 l 143 239 q 250 136 142 239 l 317 72 l 318 74 q 319 71 319 72 l 328 63 l 329 64 l 369 26 q 367 22 367 24 q 368 19 367 19 l 367 18 l 369 17 q 378 26 372 25 q 439 93 392 50 l 472 124 z "},"=":{"ha":647,"x_min":57,"x_max":589,"o":"m 583 331 l 585 281 q 581 181 585 249 q 524 178 567 178 l 468 176 l 467 174 q 464 172 465 172 l 463 174 q 460 175 463 175 l 460 172 l 413 172 l 275 171 l 275 168 q 254 167 275 168 l 217 167 l 217 164 l 182 167 q 167 164 171 164 l 103 164 q 86 167 97 164 l 69 167 l 69 171 q 58 175 69 172 q 57 183 58 182 l 58 210 l 57 208 l 57 210 q 58 219 58 211 l 60 279 l 58 283 l 60 304 l 58 331 l 64 343 l 61 344 q 60 347 60 344 q 71 351 64 351 l 249 353 l 268 353 q 299 357 281 357 l 413 357 q 482 360 414 357 l 482 357 l 485 357 l 485 360 q 488 358 486 360 l 501 357 l 501 360 l 565 361 q 575 363 567 363 q 588 353 582 358 q 583 331 583 349 m 583 499 q 586 485 586 490 l 586 479 q 589 478 586 478 l 589 471 q 588 465 588 469 l 589 454 l 588 453 q 581 463 581 453 q 524 460 539 460 l 468 458 l 467 456 q 464 454 465 454 l 463 456 q 460 457 463 457 l 460 454 l 413 454 l 275 453 l 275 450 l 203 447 q 182 449 183 447 q 134 446 171 446 q 86 449 97 446 l 69 449 l 69 453 q 58 457 58 456 q 57 465 58 464 l 58 486 l 57 486 q 58 513 58 490 q 60 561 58 535 l 58 565 q 60 613 58 583 l 58 613 q 64 625 58 621 l 61 626 q 60 629 60 626 q 71 633 64 633 l 268 635 q 299 639 281 639 l 413 639 q 482 642 414 639 l 482 639 l 485 639 l 485 642 q 488 640 486 642 l 501 639 l 501 642 l 510 639 q 528 642 524 642 l 565 643 q 575 644 567 644 l 576 646 q 585 576 585 626 q 583 499 585 526 m 544 221 l 543 235 l 544 265 l 546 265 l 546 267 l 544 275 l 546 275 l 547 296 l 544 338 q 529 335 538 338 l 503 336 l 428 336 l 407 338 l 353 336 l 335 333 q 322 335 333 335 l 281 333 q 278 335 279 333 l 268 333 l 268 331 l 238 333 l 188 333 l 188 329 q 158 327 174 328 q 133 326 142 326 q 115 324 124 325 q 101 322 106 324 q 92 317 96 319 q 85 293 85 313 q 86 255 85 274 q 86 236 88 236 l 88 229 l 86 229 l 86 217 q 96 197 86 197 l 174 197 l 174 193 q 290 200 225 193 l 293 201 l 306 200 l 310 201 l 311 199 l 313 201 l 414 201 q 422 204 414 204 l 422 200 l 499 203 q 501 201 501 203 l 528 203 l 529 204 l 529 203 q 536 204 531 204 q 529 207 533 204 q 524 210 525 210 q 544 221 544 210 m 349 485 l 364 483 l 414 483 q 422 486 414 486 l 422 482 l 529 482 l 529 485 q 536 486 531 486 q 529 489 533 486 q 524 492 525 492 q 544 503 544 492 l 544 547 l 546 547 l 544 549 l 544 557 l 546 557 q 547 568 547 558 l 544 597 l 544 619 q 529 617 538 619 q 503 618 517 618 l 428 618 l 407 619 l 353 615 l 335 615 q 322 617 333 617 l 239 613 l 238 615 l 238 613 l 235 614 l 232 615 l 232 613 l 147 613 l 147 608 l 125 607 q 110 606 121 606 q 85 590 89 604 l 88 522 l 88 508 q 96 479 88 479 l 174 479 l 174 475 q 226 478 186 478 q 313 482 267 479 l 343 483 q 349 485 344 485 m 518 492 l 518 489 l 514 488 q 507 492 508 488 l 518 492 m 518 210 l 518 206 q 507 210 508 206 l 518 210 m 519 489 l 518 490 l 522 492 l 519 489 m 522 208 q 519 207 522 207 l 522 210 l 522 208 z "},">":{"ha":504,"x_min":17,"x_max":511,"o":"m 17 107 l 17 149 q 40 158 38 156 l 57 175 l 65 182 l 74 188 q 85 200 74 192 l 85 206 l 101 217 l 111 228 l 124 239 q 193 310 147 271 q 240 349 239 349 l 253 361 l 253 385 l 256 383 l 246 394 l 247 392 q 231 408 239 400 l 186 456 l 188 456 l 140 501 l 110 535 l 111 535 q 40 611 49 597 l 39 611 q 17 628 33 611 l 29 649 l 31 663 q 47 664 43 664 l 51 671 q 69 685 69 676 l 128 743 q 124 742 126 742 q 120 741 121 742 q 115 751 119 740 l 154 750 l 188 717 q 219 681 199 701 l 243 657 q 265 635 250 646 l 325 574 l 324 574 l 328 569 l 328 571 q 368 526 365 531 l 429 468 q 472 418 451 446 l 494 399 l 511 379 l 504 364 q 501 357 501 358 l 472 322 q 445 295 464 313 q 422 274 426 278 l 400 249 l 396 249 l 188 50 q 163 24 172 35 q 140 0 153 13 l 121 11 l 106 31 l 106 28 q 82 54 99 47 l 46 92 q 36 100 38 100 l 22 113 l 22 111 q 17 107 22 107 m 158 724 l 150 735 l 138 735 l 138 732 q 132 725 138 729 l 110 703 q 89 681 103 696 q 53 647 58 647 l 43 642 l 44 640 q 33 633 42 636 l 36 631 l 35 631 l 36 629 l 36 631 l 38 629 q 40 631 38 631 q 44 632 43 631 l 81 592 l 79 590 l 154 514 l 153 513 l 244 421 l 243 419 q 281 379 254 406 l 281 376 l 286 372 q 149 243 213 306 q 115 210 126 218 l 94 186 l 89 183 q 61 156 71 168 l 46 139 l 44 140 q 36 135 42 138 l 33 135 l 33 124 l 67 93 q 128 26 114 50 q 136 17 133 25 l 139 18 l 138 19 q 139 22 139 19 q 136 26 139 24 l 176 64 l 178 63 l 186 71 q 188 74 186 72 l 189 72 l 256 136 q 308 187 281 160 q 350 226 336 214 l 374 250 l 374 249 l 413 288 q 432 306 417 292 l 488 363 q 486 367 488 365 q 492 376 489 369 l 488 383 l 488 382 l 419 456 l 419 454 l 353 519 q 313 563 339 540 l 264 613 l 260 619 l 221 658 l 208 669 q 185 692 197 682 q 156 722 174 703 l 158 724 z "},"?":{"ha":626,"x_min":22,"x_max":593,"o":"m 388 961 q 433 954 389 961 l 433 953 q 439 951 438 953 l 474 935 l 490 921 l 493 921 q 513 906 496 915 l 515 906 l 551 868 q 550 865 551 865 l 553 865 l 553 861 l 563 844 l 571 821 l 581 797 l 582 797 q 592 742 592 764 l 593 742 l 593 708 l 592 708 q 583 668 585 671 q 581 663 581 665 l 582 656 q 579 657 581 656 l 579 656 l 558 603 l 560 601 q 544 584 554 601 q 533 565 535 567 l 519 550 q 492 519 510 538 l 492 515 q 458 474 463 489 l 456 474 l 426 433 l 426 431 q 422 429 425 429 l 396 372 l 392 356 q 390 343 390 354 l 379 307 l 372 274 l 374 271 l 371 254 q 372 249 371 250 l 372 247 q 367 243 371 247 l 358 244 q 343 243 344 244 q 333 244 342 244 l 299 242 q 250 244 279 244 q 221 243 221 244 l 200 244 q 199 253 199 246 l 196 268 q 210 386 199 332 l 211 396 l 221 419 q 233 455 233 450 q 235 461 233 460 l 236 461 q 238 467 238 463 l 239 467 q 244 481 239 469 l 261 496 l 261 499 l 264 499 q 278 519 275 519 l 282 526 q 290 540 286 540 l 306 568 q 307 572 306 571 l 333 607 q 353 641 333 611 q 373 673 374 671 q 372 678 372 675 l 375 681 q 378 719 378 697 l 375 719 l 375 725 q 372 727 372 725 q 369 731 371 729 q 365 734 368 732 q 358 739 363 736 q 349 744 354 742 q 318 761 333 754 q 306 764 314 761 l 294 764 q 263 758 275 764 q 250 751 250 753 l 247 751 l 247 747 l 242 743 l 242 740 q 235 735 236 740 q 211 692 228 708 l 208 692 q 164 685 206 689 q 103 681 122 681 l 99 681 q 97 682 97 681 l 54 682 l 39 681 q 22 690 22 681 q 28 717 28 701 l 38 768 l 39 768 q 43 781 39 769 q 56 810 47 793 l 56 813 l 60 815 l 60 818 q 74 836 60 822 l 78 842 l 78 846 q 83 852 81 846 q 89 858 86 858 l 96 871 q 100 875 97 871 q 125 903 113 893 l 151 926 l 154 926 q 163 932 160 932 l 167 936 l 175 939 q 206 954 196 951 l 206 956 q 210 954 208 956 l 232 960 q 249 964 236 961 l 276 968 q 322 971 307 971 l 361 968 l 388 963 l 388 961 m 275 257 l 326 260 l 358 261 l 358 272 q 357 285 358 283 l 358 297 l 361 297 l 361 303 q 383 379 381 375 l 397 404 l 399 410 q 414 433 406 419 q 469 514 447 486 l 483 532 l 483 536 l 496 547 l 519 578 l 519 581 q 526 588 525 586 q 531 593 528 590 l 549 622 l 553 624 l 553 626 q 556 628 553 628 l 564 649 l 567 649 l 574 678 l 575 682 l 578 711 l 579 711 l 579 728 l 576 754 l 574 778 l 571 796 q 567 808 569 799 q 563 819 565 817 l 560 819 l 560 811 q 565 797 565 806 l 564 794 l 567 794 l 574 761 q 572 754 574 756 l 575 732 l 576 722 l 575 706 l 572 708 q 574 717 572 715 l 571 739 l 571 753 q 561 800 561 763 l 560 800 q 559 804 560 801 q 556 817 558 807 q 546 849 551 840 q 536 864 546 854 l 536 867 q 511 890 535 867 l 511 892 q 500 901 510 892 q 440 929 481 911 l 440 931 q 421 936 439 932 l 421 938 q 364 951 411 938 l 343 954 l 343 956 q 331 957 342 957 q 306 956 319 957 q 280 953 292 956 q 258 950 268 951 l 240 946 q 228 942 233 944 q 218 939 222 940 q 167 910 171 910 l 161 910 l 142 893 l 142 890 q 111 864 115 864 l 111 861 l 86 833 l 53 771 l 46 732 q 42 710 42 719 l 43 707 q 44 703 44 706 q 62 696 46 696 q 88 701 78 696 l 160 703 l 160 701 q 197 703 196 701 q 201 711 201 707 l 203 711 q 218 738 215 738 l 218 740 q 231 756 225 750 q 240 767 238 761 l 269 783 l 274 785 l 308 788 l 321 786 l 347 778 q 363 769 357 775 l 365 769 l 369 764 l 372 764 l 399 728 l 400 711 l 403 699 l 401 696 q 400 683 401 685 l 399 683 q 381 626 393 654 l 381 624 q 375 621 376 624 l 353 586 q 341 572 343 575 q 335 563 339 568 l 335 560 q 331 558 333 558 l 329 553 l 321 544 l 314 539 l 314 536 l 297 521 l 293 517 l 285 506 l 246 438 l 240 425 l 229 381 l 226 360 l 225 306 l 225 276 q 247 257 225 257 l 275 257 m 376 17 l 376 8 l 379 6 q 381 3 379 4 q 378 1 378 3 l 378 0 l 360 -3 l 360 0 l 336 -3 q 246 -6 335 -3 l 232 -3 l 226 -1 l 211 -6 q 188 15 188 -6 l 192 36 l 190 43 l 189 101 l 194 101 q 193 129 193 111 l 193 158 l 204 160 l 278 161 q 368 151 350 157 l 368 122 l 374 18 q 376 17 375 18 m 258 15 l 272 14 l 275 15 q 279 14 278 15 l 342 15 q 353 18 350 15 q 356 32 356 21 l 353 97 l 351 97 l 353 140 l 342 143 q 332 142 333 143 l 251 146 q 224 143 243 146 l 213 143 l 211 133 l 210 119 l 215 63 q 224 15 215 36 l 253 14 q 258 15 254 15 z "},"@":{"ha":783,"x_min":35,"x_max":731,"o":"m 561 529 l 557 388 q 558 363 557 364 l 563 344 l 599 335 q 614 478 614 435 q 611 544 614 521 q 599 613 608 568 q 586 685 590 658 q 564 720 579 693 q 537 761 549 747 q 496 789 525 775 q 434 803 467 803 q 373 799 401 803 q 326 790 344 794 q 288 781 307 786 q 265 775 268 775 q 207 735 222 760 q 176 653 192 711 l 176 626 q 168 506 176 575 q 160 404 160 438 q 186 219 160 294 q 214 178 200 206 q 240 135 228 151 q 297 106 253 119 q 384 93 342 93 q 450 94 426 93 q 597 132 529 103 l 622 138 q 650 151 636 147 q 682 164 664 154 l 728 67 q 592 10 688 35 q 449 -15 497 -15 q 367 -13 401 -15 q 290 -7 332 -11 q 229 -1 249 -3 q 136 56 169 10 q 60 231 79 133 q 47 331 51 274 q 38 409 42 389 q 35 443 35 429 q 58 693 35 551 q 147 844 75 789 q 318 900 219 900 q 450 894 436 897 q 471 897 469 897 q 664 811 601 879 q 694 765 683 790 q 731 593 731 704 l 728 465 l 728 446 q 729 426 728 429 q 707 292 719 313 q 658 247 692 263 q 593 231 625 231 q 506 268 561 231 q 383 242 438 242 q 232 364 276 242 q 224 421 224 389 q 260 554 224 453 q 447 649 322 649 q 544 639 489 649 q 561 551 561 625 l 561 529 m 543 349 l 546 413 q 536 622 546 489 q 453 626 457 626 q 301 561 329 603 l 288 540 q 256 386 265 521 q 261 357 258 376 q 267 326 264 338 q 281 300 271 314 q 374 263 301 274 q 452 275 422 264 q 488 286 482 286 l 497 286 l 574 246 l 669 269 q 706 322 697 297 q 715 389 715 346 l 715 425 q 713 464 713 450 l 722 617 q 683 758 722 685 l 683 760 q 602 844 660 807 q 485 881 544 881 l 467 883 q 451 879 458 883 q 369 888 382 888 q 58 635 79 888 l 56 582 q 53 511 53 557 q 67 299 53 451 q 115 122 71 208 q 232 11 158 35 l 340 0 q 574 22 479 0 q 711 72 668 43 l 676 146 q 490 93 568 93 l 486 93 q 397 81 447 81 l 367 81 q 219 136 249 81 q 144 374 144 271 q 161 574 144 476 q 178 704 178 672 q 286 799 200 765 q 381 819 342 819 q 457 810 421 819 q 515 800 493 801 q 606 673 578 765 q 633 479 633 581 l 626 393 l 628 379 q 610 321 615 342 q 564 326 574 324 l 553 335 q 543 349 543 340 m 396 558 q 401 559 396 558 q 424 560 406 560 q 450 561 442 560 l 464 551 l 464 396 l 456 374 q 424 358 449 371 q 378 344 400 344 q 333 369 357 344 q 310 432 310 393 q 324 501 310 471 q 349 540 339 531 q 373 553 360 549 q 396 558 386 557 m 438 543 l 406 547 q 355 519 378 547 q 332 461 332 492 q 400 376 332 376 q 444 388 425 376 l 444 394 q 451 422 444 401 l 453 419 l 453 424 l 451 422 l 451 426 l 450 421 l 450 438 q 454 454 450 447 l 449 454 q 444 510 444 492 q 450 543 444 528 l 438 543 m 376 365 q 390 364 378 364 q 446 375 401 364 q 410 370 436 375 q 376 365 385 365 z "},"A":{"ha":603,"x_min":1,"x_max":600,"o":"m 458 681 q 456 671 456 678 q 474 588 463 649 q 497 496 486 526 q 513 419 500 482 q 529 325 526 357 q 541 274 538 310 q 549 225 544 239 q 557 206 554 222 q 553 196 551 206 q 560 153 554 186 q 579 60 572 78 q 600 1 586 43 q 594 -7 597 -7 q 585 -6 592 -7 q 497 -1 568 -4 q 415 4 425 1 q 381 108 406 31 q 344 214 357 185 l 339 219 q 317 219 326 218 q 272 213 290 221 q 300 208 282 210 q 326 204 318 206 q 317 203 322 203 q 313 201 313 203 l 278 206 q 253 193 258 206 l 210 4 q 192 -3 203 -3 l 161 1 q 151 0 153 1 l 149 3 l 104 3 q 8 -1 38 3 q 5 1 8 0 q 1 3 1 1 q 3 6 1 6 l 11 21 q 7 28 7 25 l 17 46 q 67 332 53 226 q 37 216 60 332 q 6 68 14 100 q 45 283 10 86 q 104 578 81 481 q 103 564 104 567 l 103 547 q 175 858 154 753 q 170 850 172 856 q 167 842 168 844 q 192 917 169 874 q 238 978 214 961 l 261 978 l 383 983 q 435 761 428 808 q 450 701 442 714 q 458 681 458 688 m 236 231 q 300 243 257 243 q 356 244 343 243 q 361 242 357 243 q 371 228 371 236 l 368 222 q 396 133 376 204 q 432 36 415 61 l 426 36 l 426 25 q 439 31 436 28 q 488 26 444 26 q 558 28 532 26 l 569 28 l 563 69 q 522 226 553 131 q 492 339 492 321 l 492 343 q 475 421 492 360 l 440 549 q 478 447 443 549 q 488 428 488 435 l 488 424 l 485 424 l 492 400 q 496 403 493 400 q 493 407 493 406 l 499 415 l 461 583 l 461 592 q 446 657 461 615 q 429 715 431 699 l 429 710 q 432 697 432 701 q 428 683 428 689 l 436 643 q 433 639 436 639 l 432 643 q 431 646 432 646 l 428 636 q 407 759 426 671 q 381 885 388 847 l 382 883 l 375 935 q 363 950 375 950 l 343 949 q 333 951 336 949 q 338 957 338 956 q 233 956 293 957 q 211 860 228 911 q 180 731 194 810 q 147 614 165 653 l 151 614 q 132 536 142 549 l 135 519 q 121 465 135 511 q 99 381 107 418 q 86 335 92 344 q 89 322 86 322 l 81 281 l 81 276 q 85 289 83 279 q 94 301 88 299 q 63 138 92 247 q 32 17 35 28 l 38 14 q 192 42 189 42 q 222 134 207 65 q 243 219 236 203 l 236 231 m 356 397 l 339 396 l 269 399 l 251 399 q 246 408 246 399 l 250 422 l 250 428 q 251 433 250 432 l 253 432 q 256 457 254 436 q 272 574 260 529 q 283 633 283 619 l 283 640 q 293 657 283 647 q 292 673 292 658 q 299 688 292 688 q 317 644 307 688 q 339 513 326 600 q 360 400 351 426 l 356 397 m 306 643 q 301 653 306 650 q 297 644 300 650 q 289 621 289 632 l 289 610 q 263 424 289 564 l 260 426 l 257 421 l 260 422 l 265 407 l 344 407 l 350 411 q 333 514 343 424 q 306 636 324 604 l 306 643 m 61 336 l 68 338 q 103 532 79 382 q 78 425 90 494 q 61 336 65 356 m 3 57 l 6 68 l 3 57 m 3 54 l 3 57 l 3 54 z "},"B":{"ha":663,"x_min":60,"x_max":653,"o":"m 497 494 q 493 483 493 490 q 507 463 493 476 q 531 449 511 463 q 581 397 550 435 q 628 308 611 358 l 629 307 l 629 306 q 653 233 653 254 q 650 169 653 211 l 650 163 l 647 160 l 636 143 q 560 33 581 47 q 488 -6 549 26 l 483 0 q 372 -22 433 -22 q 254 -15 310 -22 l 133 -22 q 61 -10 88 -22 q 60 72 60 17 l 60 156 l 64 661 q 60 900 64 781 l 61 961 q 78 972 65 969 q 93 975 90 974 q 119 974 93 975 l 339 988 q 498 947 447 988 q 594 818 549 907 q 617 704 617 764 q 497 494 617 579 m 201 6 l 322 4 q 508 39 500 4 l 536 67 q 563 92 556 86 q 582 113 569 99 q 598 133 594 126 q 609 153 601 140 q 618 176 617 165 q 622 200 619 186 q 624 231 624 214 q 503 451 624 382 q 488 461 488 460 q 489 463 488 463 l 481 468 q 464 494 464 478 q 506 538 475 514 q 556 588 536 561 q 576 657 576 615 l 576 668 q 575 682 576 681 l 575 704 q 533 853 575 790 q 449 929 490 915 q 253 960 382 960 q 94 953 125 960 l 94 947 q 93 938 94 939 l 93 844 q 94 719 94 782 q 100 540 97 592 q 92 351 92 467 l 93 188 l 92 188 l 89 194 q 86 185 86 192 q 88 169 86 185 l 85 125 l 86 43 l 86 22 q 85 7 86 8 l 119 6 l 103 1 q 201 6 150 6 m 360 390 q 417 351 394 385 q 439 281 439 318 q 428 224 439 244 q 405 192 418 203 q 368 176 392 182 q 328 169 344 171 q 243 168 278 168 l 224 181 l 232 404 q 272 401 244 403 q 360 390 332 399 m 231 715 l 229 744 q 240 774 229 763 q 300 778 294 778 q 397 758 353 778 q 442 689 442 738 q 282 569 442 569 q 253 571 263 569 q 231 613 231 575 l 238 703 l 238 717 q 235 732 238 718 l 231 715 m 247 583 l 293 582 q 394 617 365 582 l 367 608 q 413 692 413 643 q 386 735 413 719 q 333 751 360 751 l 265 760 l 246 757 l 243 649 q 247 583 243 613 m 260 188 l 301 183 q 381 221 361 183 q 401 278 401 246 q 391 328 401 311 q 360 352 381 346 q 324 361 340 358 q 282 364 308 364 l 247 364 l 247 285 l 249 233 q 243 189 249 200 q 250 188 244 188 l 260 188 z "},"C":{"ha":678,"x_min":38,"x_max":660,"o":"m 493 582 l 464 581 q 454 583 461 582 q 439 596 439 586 q 437 637 438 607 q 433 687 436 667 q 424 731 431 707 q 353 779 410 779 q 281 750 314 779 l 264 728 q 253 421 253 550 q 353 206 253 206 q 450 308 442 206 q 453 353 451 326 q 457 396 456 381 q 496 394 467 394 q 600 392 525 394 l 622 396 q 644 388 635 396 l 653 242 q 563 57 653 136 q 386 -22 472 -22 q 324 -21 326 -22 l 268 -8 q 253 -21 268 -21 q 61 161 97 -21 q 46 396 50 221 l 44 399 q 39 349 39 382 q 46 271 39 315 l 38 272 l 50 668 l 50 721 q 47 774 50 738 q 142 975 79 901 q 192 994 168 990 q 221 998 215 997 q 239 999 226 999 q 256 1001 251 1000 q 275 1001 260 1001 l 293 1001 q 369 999 332 999 q 476 983 428 999 q 526 953 486 974 q 578 908 565 932 q 660 728 640 828 l 647 603 q 649 583 647 585 q 586 578 619 578 l 493 582 m 571 354 l 496 347 q 479 349 481 347 q 471 297 479 331 q 463 243 463 263 q 428 206 454 228 q 393 171 401 185 q 358 165 383 165 q 310 176 333 165 q 274 210 288 186 q 252 253 261 233 q 239 308 243 272 q 231 414 232 367 l 231 463 q 232 492 232 472 l 232 581 q 242 708 232 657 q 286 801 253 758 l 293 801 q 321 808 304 801 q 358 814 338 814 q 397 803 378 814 q 426 778 415 793 q 443 738 436 763 q 452 694 450 713 q 457 647 454 675 q 461 604 460 618 l 615 604 l 624 610 l 629 689 q 618 767 629 743 q 604 799 607 790 q 590 822 601 807 q 576 843 579 838 q 557 865 572 849 q 539 883 542 881 q 497 928 531 894 q 324 971 408 971 q 175 938 239 971 q 165 930 169 936 q 157 924 160 924 l 154 926 l 132 911 q 88 792 88 875 l 89 749 q 83 694 89 722 q 81 699 81 694 q 79 707 81 704 l 74 625 q 69 521 69 572 l 71 461 l 78 457 q 74 431 74 436 q 75 426 74 426 l 78 428 q 75 401 75 408 l 75 319 q 74 297 75 304 l 79 275 q 74 236 74 263 q 153 77 74 149 q 365 6 232 6 q 513 47 442 6 q 608 161 585 88 l 603 163 q 622 264 622 206 q 610 338 622 322 q 571 354 597 354 z "},"D":{"ha":669,"x_min":53,"x_max":639,"o":"m 228 976 l 361 975 l 390 975 q 548 854 489 954 q 633 624 607 754 q 639 515 639 574 q 581 185 639 278 q 538 79 569 131 q 458 4 506 28 l 161 1 l 146 1 q 106 3 125 3 q 100 -1 103 -1 l 86 1 l 78 -1 q 71 7 74 -1 q 65 17 68 15 q 69 21 69 19 q 66 28 69 22 q 60 35 63 35 q 57 33 58 33 q 56 35 56 33 l 68 86 l 60 222 q 64 267 60 243 q 53 478 53 444 q 56 483 57 481 q 58 512 54 486 q 61 549 61 538 l 61 583 l 53 879 l 53 913 q 54 946 53 935 q 176 976 54 976 l 228 976 m 342 43 q 369 40 356 40 q 382 46 375 46 q 392 38 389 46 q 405 39 393 39 q 439 35 417 39 q 469 32 461 32 q 468 36 468 33 q 470 43 468 39 q 474 53 472 47 l 478 49 q 485 59 482 49 q 502 84 489 69 q 553 160 515 99 q 597 231 592 222 q 596 240 596 232 q 603 261 596 247 q 613 288 610 275 q 618 335 617 300 q 621 379 619 371 l 615 381 q 628 506 628 442 q 568 768 628 653 l 563 771 q 454 890 514 860 q 408 930 428 922 q 382 940 389 938 q 362 946 375 943 q 344 949 349 949 q 324 951 339 950 q 306 951 310 951 q 255 951 288 951 q 89 942 222 951 l 92 894 l 88 776 l 88 753 q 82 653 88 725 l 82 622 l 79 408 l 76 239 q 75 235 75 238 l 75 226 l 76 211 l 74 211 l 74 204 l 76 207 l 79 203 l 72 181 q 81 164 72 167 q 83 118 82 154 q 94 67 85 82 q 90 103 90 86 q 93 139 90 119 q 101 114 96 119 l 106 129 q 110 72 110 96 l 110 50 l 104 40 q 106 38 104 38 l 100 35 l 99 35 l 100 31 l 113 32 l 153 28 q 242 33 169 28 q 321 39 314 39 l 314 36 l 342 36 l 342 43 m 299 678 l 356 676 q 417 629 397 665 q 446 563 435 597 q 460 492 460 519 q 431 367 460 426 q 354 292 403 307 q 289 289 301 289 q 246 315 246 289 l 250 351 l 250 372 l 251 519 l 249 638 l 249 656 q 253 674 249 671 q 274 678 257 678 l 299 678 m 285 667 l 272 668 q 254 639 254 668 l 254 397 q 253 361 254 372 l 257 303 q 300 297 268 297 q 381 313 332 297 q 420 365 408 343 q 438 419 432 386 q 446 461 443 451 q 361 651 438 608 q 339 665 361 665 l 315 664 l 300 671 l 285 667 m 621 349 l 621 344 l 624 349 l 621 349 z "},"E":{"ha":668,"x_min":58,"x_max":647,"o":"m 646 143 l 640 15 l 632 6 l 258 4 q 246 6 257 6 l 233 6 l 156 0 q 65 15 65 0 q 67 20 67 17 q 68 25 67 24 q 65 50 65 44 l 68 100 l 68 111 q 67 122 68 121 q 69 207 69 181 l 58 526 l 64 794 q 71 953 64 890 q 104 960 85 960 q 286 964 253 963 q 307 960 292 960 l 349 960 l 464 958 q 608 963 539 958 l 613 965 q 586 972 601 972 l 557 971 l 550 971 l 550 974 q 642 979 599 974 q 647 973 647 978 q 639 960 647 968 q 643 907 643 943 l 642 829 l 642 813 q 643 797 642 800 q 640 767 640 778 l 640 760 q 467 749 614 756 q 435 751 457 749 l 275 747 l 272 742 l 274 715 l 269 624 q 272 586 269 611 l 278 581 l 446 579 q 450 539 450 571 q 449 455 450 507 q 449 376 449 403 q 358 381 432 381 q 285 376 285 381 l 276 363 l 276 267 q 282 207 276 225 l 278 200 l 283 197 l 521 193 q 638 197 579 193 l 643 190 l 646 143 m 250 29 l 264 26 q 576 32 300 26 l 617 36 q 622 81 622 54 q 620 136 622 107 q 618 178 618 165 q 608 174 614 174 l 597 175 q 586 169 590 175 q 363 172 431 172 l 276 172 q 254 182 263 172 l 256 183 l 247 190 q 246 211 246 193 l 246 290 l 239 344 q 241 385 239 381 q 243 392 243 389 q 279 399 243 394 q 360 406 315 403 q 413 409 406 408 q 419 406 419 410 l 428 406 q 426 417 426 407 l 429 483 q 413 551 429 551 q 365 547 389 547 l 281 553 q 264 544 267 553 q 247 563 250 544 l 246 578 q 240 590 246 586 l 243 636 l 240 740 q 246 765 240 754 l 254 765 q 301 771 278 765 l 321 771 q 581 778 349 771 q 619 783 611 781 l 617 935 l 614 939 q 586 935 601 935 l 511 939 l 461 938 l 356 940 q 89 915 236 940 l 85 906 l 88 811 q 88 773 86 810 q 90 718 90 736 l 90 640 q 95 627 90 636 q 100 606 100 618 q 99 585 100 594 l 104 528 q 92 449 104 499 l 92 383 q 93 344 93 364 q 96 332 94 332 q 100 332 99 333 q 102 336 101 333 q 106 339 103 339 l 107 339 l 106 349 q 110 356 106 353 q 114 325 114 343 q 110 307 114 307 q 106 308 106 307 q 103 310 106 310 l 101 307 q 103 303 103 307 q 99 294 103 300 q 96 286 96 288 l 100 288 q 103 269 103 282 l 103 254 q 90 210 100 240 l 90 204 q 89 203 89 204 q 103 177 89 201 q 117 142 117 153 q 113 132 117 132 q 108 133 110 132 q 110 121 110 132 l 110 108 q 104 29 104 58 q 124 25 114 25 l 168 29 l 250 29 z "},"F":{"ha":686,"x_min":49,"x_max":688,"o":"m 499 390 l 500 376 q 493 363 500 372 l 485 360 l 485 363 q 415 353 460 357 q 350 344 369 349 q 323 340 331 340 q 314 340 315 340 q 308 231 308 304 q 305 132 308 157 q 301 100 301 107 l 301 76 q 306 24 301 49 l 301 24 q 292 15 292 24 l 304 14 q 297 -6 303 -1 l 296 -4 q 294 -7 294 -4 l 282 0 q 181 3 207 3 l 81 1 q 74 17 78 14 q 69 6 69 14 q 67 -4 68 -1 q 51 7 51 -1 q 64 33 64 19 q 60 36 63 35 q 56 42 56 39 l 58 44 q 70 285 65 44 q 76 579 75 526 l 74 590 q 61 429 61 508 l 61 404 q 63 382 61 389 l 60 378 l 64 361 l 64 360 q 56 396 56 360 q 62 549 56 432 q 68 747 68 667 q 60 932 68 828 l 49 938 q 53 942 50 942 l 64 939 q 71 951 67 939 q 78 965 75 963 l 78 964 l 117 960 l 128 960 q 117 958 125 958 q 107 954 110 957 q 176 953 119 953 q 503 963 233 953 l 661 958 q 663 964 663 960 q 668 971 664 968 l 682 939 l 688 938 q 683 929 688 929 q 678 925 678 929 l 681 914 l 679 776 q 676 767 676 774 l 688 764 l 688 760 q 674 735 688 743 q 658 724 660 729 q 635 743 651 743 q 614 735 619 743 q 549 729 593 729 q 411 719 506 729 q 360 724 385 724 q 325 718 336 724 l 317 719 q 311 703 311 719 l 311 692 q 310 678 311 679 l 307 681 q 301 625 301 675 q 397 583 301 583 l 471 586 q 499 579 499 586 q 498 574 499 576 q 500 572 497 572 l 514 578 q 517 574 517 578 l 517 568 l 521 561 q 507 558 517 558 q 492 554 497 558 l 499 408 q 506 404 499 407 l 506 400 q 499 390 499 396 m 569 769 l 617 768 q 640 782 640 768 q 635 842 640 792 q 636 860 636 851 l 636 904 q 626 921 636 921 l 628 917 q 624 915 628 915 q 610 921 621 915 l 599 921 q 586 922 592 922 l 572 922 l 503 921 q 408 922 410 921 l 408 929 l 396 925 l 396 922 q 393 921 394 921 l 385 924 q 379 919 381 924 q 192 910 236 918 q 171 915 182 915 l 133 910 l 125 911 l 129 885 q 128 876 129 878 q 117 882 122 876 l 121 885 q 124 886 124 885 l 122 890 q 124 893 122 893 q 108 924 119 897 l 97 465 q 103 333 103 414 l 96 100 l 96 69 q 97 40 96 50 l 150 35 l 150 32 l 153 32 q 164 25 158 32 l 217 29 l 272 40 q 279 100 278 60 q 283 154 281 140 l 285 154 l 281 161 l 283 164 q 286 163 285 164 l 286 167 l 283 186 l 283 189 l 286 189 q 284 280 285 190 q 281 371 283 369 l 281 378 q 283 383 281 381 q 272 381 281 381 q 261 386 263 381 q 274 394 265 394 q 292 392 282 393 q 299 402 297 393 q 305 411 301 411 q 310 408 308 411 q 313 400 311 404 q 367 390 317 390 q 467 404 417 390 q 463 426 463 414 l 464 456 q 458 558 464 543 q 374 568 410 568 q 308 558 339 568 q 300 560 307 560 l 297 560 q 290 561 292 560 l 282 542 l 278 546 q 279 551 279 547 q 271 560 279 556 q 263 569 263 564 q 272 574 267 574 l 276 574 l 276 585 q 271 592 271 590 l 272 593 l 271 593 l 274 596 q 268 599 274 599 q 271 620 269 604 q 276 643 272 636 l 281 608 l 279 713 q 267 731 278 713 l 264 742 l 263 744 q 272 758 263 750 q 283 771 282 767 l 286 764 l 289 764 q 306 769 300 764 l 314 761 l 358 764 q 460 774 451 769 l 465 768 q 496 776 478 776 l 526 768 l 535 775 q 539 771 536 775 q 543 776 539 776 l 550 776 q 553 778 553 776 q 554 772 554 776 q 550 771 553 771 l 550 768 q 569 769 551 769 m 68 617 q 71 644 71 625 q 69 663 71 663 l 69 651 q 69 636 69 647 q 68 617 68 625 m 76 593 l 76 603 l 75 593 l 76 593 m 290 565 q 289 567 290 567 l 288 567 l 290 564 l 290 565 z "},"G":{"ha":668,"x_min":42,"x_max":643,"o":"m 636 500 l 643 318 q 525 17 643 63 q 415 -8 463 -7 q 320 -10 368 -10 q 251 -12 272 -11 q 156 24 206 -10 q 83 97 106 58 q 51 240 61 136 q 42 446 42 344 l 47 782 q 50 800 50 788 q 56 819 50 813 q 54 826 54 821 q 171 956 83 910 q 257 981 221 981 q 533 946 403 981 q 611 866 593 918 q 629 733 629 814 l 629 665 q 597 657 621 657 l 568 657 l 528 656 q 450 661 485 656 q 441 688 444 669 q 435 713 438 707 q 408 756 431 738 q 357 775 386 775 q 307 763 328 775 q 267 715 286 751 q 249 660 249 678 l 261 532 q 257 526 257 532 q 260 486 260 496 l 249 340 q 272 251 249 290 q 351 213 296 213 q 433 242 419 213 q 444 288 444 261 q 442 319 444 314 q 426 328 439 325 l 339 328 l 332 336 q 339 427 339 408 q 336 499 339 446 q 424 503 372 503 q 483 500 476 503 q 577 506 529 506 q 632 504 625 506 l 636 500 m 279 29 l 340 25 q 481 38 431 25 q 529 51 504 38 q 560 68 554 65 l 561 67 l 581 92 q 611 186 604 115 q 614 214 613 211 q 629 293 629 235 q 626 289 626 290 q 629 371 629 342 q 613 483 629 483 q 603 481 603 482 l 571 479 l 489 474 q 472 475 474 474 l 474 479 q 361 486 457 483 l 361 418 q 357 353 361 386 l 390 353 l 450 354 q 471 349 471 354 q 464 340 471 344 l 464 310 q 452 219 464 233 q 417 198 440 206 q 363 185 393 190 q 322 176 332 179 l 324 185 q 218 399 218 210 l 225 588 q 214 708 225 660 q 230 727 217 715 q 243 749 243 739 q 229 741 240 746 q 215 735 218 736 q 256 763 215 743 q 313 782 296 782 l 319 782 q 351 790 335 790 q 383 789 367 790 q 406 788 399 788 q 335 807 392 799 q 298 797 321 806 q 271 788 275 789 q 340 814 293 814 q 426 781 386 814 q 465 700 465 749 q 474 694 469 700 q 496 689 478 689 q 571 694 514 689 q 583 688 576 688 q 614 692 589 688 q 582 875 614 824 q 296 967 525 967 q 99 890 168 967 q 64 738 64 835 l 71 578 l 67 578 q 61 465 61 528 l 63 411 l 65 411 l 71 336 l 68 338 q 75 288 75 303 q 74 272 75 274 l 69 285 q 65 240 65 268 q 76 193 65 211 l 76 197 q 79 203 76 200 l 96 125 l 88 139 q 114 89 97 103 q 108 99 108 94 q 110 104 108 103 q 176 40 136 63 q 241 18 215 18 q 279 24 267 18 l 275 28 q 279 29 276 29 z "},"H":{"ha":693,"x_min":54,"x_max":660,"o":"m 451 4 q 436 374 436 118 l 433 374 l 433 376 q 425 389 433 389 l 283 390 q 269 376 269 381 l 268 246 q 274 86 268 158 l 272 88 q 268 48 268 75 q 265 10 268 21 q 256 11 264 11 l 219 6 l 215 -3 q 144 8 192 6 q 90 11 97 10 q 75 3 82 10 l 76 19 q 72 25 76 25 l 68 24 l 69 42 q 54 622 54 419 q 57 967 54 825 l 76 960 q 182 967 149 967 q 222 965 215 967 q 243 926 243 961 q 251 711 243 890 l 249 711 q 247 703 247 710 q 255 657 247 697 q 263 599 263 617 q 308 594 283 594 l 413 599 l 417 604 q 424 829 424 743 l 424 893 q 421 963 424 915 q 425 961 422 961 q 431 967 428 961 q 436 974 433 974 q 475 969 456 969 q 601 990 581 969 l 608 983 q 611 986 608 986 q 610 976 610 985 l 639 950 q 632 944 638 944 l 629 944 l 629 825 q 634 676 633 776 q 642 522 635 576 q 636 519 639 522 q 642 504 642 514 l 635 410 l 642 250 l 649 247 q 643 236 643 243 l 649 213 q 660 32 653 171 l 653 29 q 638 8 650 8 l 632 6 l 554 7 l 451 4 m 483 24 l 565 21 q 632 26 608 21 l 632 31 q 626 45 632 36 q 621 56 621 54 l 600 708 q 604 835 604 772 q 599 943 604 897 l 526 943 q 458 949 488 943 q 447 807 447 896 l 454 660 l 453 628 l 447 617 l 449 604 q 438 582 449 582 q 432 583 433 582 q 396 576 408 576 l 300 578 q 247 575 283 578 l 239 567 q 221 583 235 579 q 217 686 217 635 l 219 901 q 204 949 219 949 q 108 942 163 942 l 75 943 l 75 808 q 74 796 74 807 l 75 765 l 74 711 q 71 692 71 697 l 75 588 q 72 564 75 586 l 74 565 q 83 348 74 494 q 93 149 93 201 q 90 38 93 96 q 144 28 110 28 q 231 36 178 28 l 242 36 q 249 42 249 36 q 247 49 249 47 l 244 44 q 243 53 243 46 l 249 81 q 244 169 244 124 l 249 342 l 247 392 l 251 406 q 254 407 253 407 q 263 403 256 407 l 271 415 q 290 404 274 404 q 439 413 394 404 q 453 406 444 408 q 465 397 465 401 l 457 382 q 458 378 457 379 l 461 382 l 468 372 q 465 276 465 325 q 474 164 465 176 q 471 160 474 163 l 483 24 z "},"I":{"ha":365,"x_min":54,"x_max":328,"o":"m 175 967 l 283 974 q 292 992 290 979 q 294 1001 293 999 q 299 988 296 999 q 308 972 303 976 l 328 972 q 318 961 328 967 q 308 950 308 956 l 308 946 q 300 822 300 897 l 303 665 q 299 568 303 615 q 300 524 300 553 l 300 481 l 293 300 q 310 19 303 78 l 319 0 q 309 -8 319 -8 q 270 -3 299 -8 q 208 1 242 1 l 158 1 q 122 3 146 1 l 119 3 q 79 -14 86 -14 q 72 -12 72 -14 l 72 -11 q 64 -6 67 -11 q 60 0 61 0 l 54 -3 q 64 210 56 42 q 72 469 72 379 q 67 639 72 560 q 78 754 69 731 l 72 756 l 74 764 q 75 761 74 763 l 79 803 l 78 854 l 82 922 q 78 953 82 939 l 74 953 q 82 969 74 964 q 93 976 90 974 l 113 976 q 126 978 119 976 l 125 972 q 175 967 142 967 m 264 521 l 271 718 l 271 785 q 269 826 271 814 q 272 825 271 826 l 272 828 l 267 838 l 269 840 l 271 839 l 271 911 q 268 933 271 914 q 160 946 200 946 l 135 946 q 122 933 122 946 q 129 900 122 921 q 119 907 126 903 l 121 888 q 115 874 121 878 l 114 876 l 113 863 q 119 850 113 857 q 111 813 119 813 q 101 576 101 724 q 105 378 101 429 q 112 291 108 326 q 115 251 115 256 l 114 253 l 114 242 q 121 115 121 179 l 117 65 q 122 36 117 46 q 231 40 225 38 q 238 49 238 43 q 248 40 243 42 q 254 38 253 39 q 258 99 258 58 l 258 150 l 254 149 l 254 156 q 256 169 256 156 l 256 233 q 260 347 256 301 q 256 386 260 358 q 260 403 256 394 q 263 401 261 403 l 265 411 q 260 440 265 424 l 261 440 q 263 451 263 440 q 260 494 263 463 q 258 526 257 525 q 261 522 261 524 l 264 521 z "},"J":{"ha":643,"x_min":-11,"x_max":583,"o":"m 376 792 l 374 928 q 376 992 374 947 l 382 996 l 469 996 q 553 994 526 996 q 567 1000 554 996 q 576 907 576 974 l 575 819 l 578 674 l 578 653 q 583 538 583 593 q 582 403 583 482 q 581 285 581 324 l 579 286 l 578 254 q 574 240 576 251 q 568 224 571 229 l 568 217 q 560 189 568 207 q 551 164 553 171 q 435 24 507 53 q 259 -14 338 -14 q 124 17 181 -14 q 49 114 67 49 q 24 197 25 181 l 17 204 q 8 246 17 235 l -3 399 l -11 404 l 3 415 q 7 413 6 413 q 14 414 7 413 l 65 407 l 154 407 q 200 408 185 407 q 208 406 203 406 q 224 394 224 406 q 221 376 221 381 l 221 358 q 237 276 221 321 q 282 232 253 232 l 304 232 q 315 228 311 228 q 362 268 343 228 q 381 351 381 308 l 381 379 l 379 438 l 379 444 q 378 464 379 461 q 374 469 374 467 q 376 476 376 469 l 374 517 l 374 546 q 372 549 372 547 l 376 560 q 375 565 376 564 q 378 658 378 624 l 372 765 l 376 792 m 561 385 l 558 536 q 561 615 558 563 q 554 792 554 674 q 547 974 554 911 l 531 976 l 508 971 l 429 978 q 399 974 414 978 l 396 921 q 415 519 415 636 q 408 397 415 403 q 392 278 406 306 q 364 236 378 251 q 342 222 358 233 q 297 199 306 199 q 215 249 250 199 q 179 350 179 300 q 174 364 174 356 q 175 374 174 372 q 153 379 174 374 q 119 385 132 385 l 94 382 l 36 392 q 22 378 22 392 q 31 367 22 369 q 29 347 29 364 l 29 329 q 81 119 29 213 q 159 43 108 72 q 280 14 210 14 q 421 46 350 14 q 456 59 442 47 q 487 91 471 71 q 515 121 503 111 q 561 385 561 214 z "},"K":{"ha":638,"x_min":47,"x_max":646,"o":"m 83 1 q 65 0 81 1 l 47 7 l 53 11 l 53 40 l 54 174 q 49 294 54 240 q 56 450 56 358 l 56 543 l 60 779 l 60 971 l 197 967 l 222 967 q 247 953 235 967 q 250 665 250 672 l 254 663 q 280 691 271 676 q 304 735 289 706 q 344 801 319 765 q 397 888 371 838 q 436 960 422 939 l 449 968 l 638 968 l 646 958 q 625 901 643 938 q 604 842 607 864 q 483 633 531 721 l 465 588 l 483 633 q 458 583 475 618 q 415 501 421 504 q 433 456 415 483 q 456 417 451 428 q 488 347 460 406 l 488 354 q 497 328 496 336 q 494 333 496 331 q 636 22 610 89 q 635 18 635 21 l 639 7 q 583 -1 639 -1 l 568 -1 l 444 3 q 406 55 429 17 q 369 111 383 93 q 344 149 356 129 q 312 213 333 169 q 257 315 290 257 q 253 300 253 307 l 257 268 q 256 257 257 258 l 260 254 q 257 224 257 235 l 257 190 l 263 22 q 271 15 271 19 q 263 1 271 10 l 258 8 q 208 -1 243 -1 l 139 1 l 103 -1 l 83 1 m 247 282 l 244 360 q 246 368 246 361 l 246 379 q 253 392 246 388 q 454 36 400 147 q 469 21 464 21 q 478 26 474 21 q 508 11 493 11 q 532 15 522 11 q 576 18 542 18 q 622 19 611 18 q 589 82 618 38 q 531 222 574 132 q 475 347 489 313 q 436 429 468 382 q 397 486 404 476 l 397 513 q 444 594 407 540 q 490 676 481 649 l 493 674 l 532 742 l 524 729 q 544 776 525 732 q 585 870 554 814 q 625 946 615 926 l 625 954 l 572 946 q 533 956 558 956 l 457 947 q 409 867 435 921 q 369 793 383 813 q 269 614 303 669 l 267 614 q 253 602 261 614 q 238 590 244 590 l 232 593 q 240 736 240 649 l 240 846 q 242 876 240 867 l 239 879 q 206 946 239 946 q 194 943 201 944 q 186 950 190 950 l 174 949 q 167 951 169 949 l 171 956 l 99 961 l 81 960 q 83 704 83 790 l 76 79 q 81 17 76 25 l 199 24 q 208 25 200 25 l 229 24 q 244 28 236 24 q 243 56 243 38 l 243 83 l 247 282 m 425 51 q 450 8 428 21 q 425 51 449 18 z "},"L":{"ha":640,"x_min":46,"x_max":640,"o":"m 561 7 l 547 11 q 538 5 542 11 q 528 -1 533 -1 l 500 10 q 489 6 494 10 q 457 11 465 11 l 457 6 q 433 11 447 11 l 407 10 l 397 10 l 397 11 l 369 11 q 315 7 328 11 l 319 7 q 322 6 322 7 l 319 3 l 264 3 l 261 1 l 261 3 l 239 8 l 231 6 q 226 8 226 6 q 228 11 226 10 q 196 10 218 10 l 118 11 q 89 7 89 11 q 70 14 83 7 q 53 28 57 21 l 53 29 l 54 28 q 63 93 63 60 l 64 93 l 63 93 q 64 96 64 94 l 61 107 q 64 115 63 110 l 64 107 l 68 119 l 64 115 l 75 299 q 68 842 69 821 q 65 885 67 864 q 61 963 63 907 q 52 969 58 967 q 46 972 46 971 q 92 983 46 983 q 104 981 93 983 l 197 986 q 281 975 247 986 q 278 875 278 908 l 278 672 l 283 482 l 278 260 q 286 251 286 258 l 283 239 q 285 233 283 235 l 281 222 q 287 220 283 219 q 293 219 290 221 q 304 231 297 231 q 317 228 311 231 q 367 225 322 225 l 394 225 q 510 217 453 225 q 526 222 515 222 q 572 211 539 211 l 599 211 l 603 215 l 567 228 q 583 231 581 231 q 640 196 640 231 l 633 142 l 635 132 q 633 104 633 122 l 633 78 q 638 14 633 43 q 618 1 631 1 l 583 7 q 550 6 571 7 q 561 7 551 7 m 529 32 l 574 22 l 592 22 q 606 21 604 22 q 617 79 614 42 q 607 115 607 93 l 611 165 q 610 185 611 183 q 522 187 578 186 q 431 189 465 188 q 261 206 336 190 q 265 196 264 196 q 260 178 265 183 q 246 194 246 179 l 249 217 q 242 233 249 226 q 233 313 233 258 q 235 406 233 368 l 238 472 q 242 464 239 472 q 253 588 253 503 q 250 608 250 596 l 250 667 q 247 688 250 679 q 253 696 253 692 l 247 714 q 249 721 247 715 q 251 774 251 732 l 251 926 q 254 939 251 936 l 257 936 l 258 939 q 197 950 258 950 q 93 944 136 950 q 89 794 89 799 l 92 665 l 83 271 q 90 85 83 189 q 83 75 83 81 l 86 57 l 86 53 q 88 44 88 50 l 88 36 q 97 28 88 28 q 154 38 144 32 q 399 29 293 29 q 504 28 504 29 q 529 32 514 32 z "},"M":{"ha":696,"x_min":40,"x_max":643,"o":"m 631 847 l 636 572 q 631 439 636 499 q 632 157 632 418 q 643 44 639 65 q 642 26 642 40 q 622 -7 642 -4 q 565 -1 604 -1 l 499 -3 l 481 -3 q 464 -1 467 -3 q 458 -10 461 -10 l 447 -4 q 443 -6 444 -4 q 432 81 432 25 l 433 121 q 431 171 433 138 q 428 316 429 204 q 419 489 426 428 l 415 489 q 374 403 393 476 q 335 331 354 331 q 318 340 324 331 l 319 344 q 310 365 319 353 q 301 379 301 376 l 303 388 q 293 415 303 393 l 296 415 l 308 399 q 322 382 317 388 q 281 449 288 449 q 279 446 279 449 q 269 478 278 447 q 256 513 260 510 q 251 407 251 497 q 256 254 251 317 q 253 239 254 249 l 254 239 l 249 42 l 249 19 q 250 -1 249 1 l 242 -7 l 236 -7 q 178 -4 194 -4 l 79 -7 q 50 25 50 -7 l 51 53 q 50 65 51 63 l 47 65 l 54 113 q 42 471 43 471 q 42 470 42 471 q 40 469 42 469 l 49 817 q 46 926 49 851 l 49 935 q 60 960 53 960 l 82 958 l 243 958 l 276 913 l 274 908 q 298 858 288 892 q 317 799 308 824 q 335 775 325 775 q 361 811 346 775 q 394 896 376 847 q 424 963 411 944 l 519 960 q 596 969 568 960 l 635 967 l 629 958 q 633 953 629 957 q 631 900 631 917 l 631 847 m 433 522 l 439 418 l 439 396 q 449 186 439 357 q 460 13 460 15 q 524 7 478 7 q 608 13 569 7 q 621 106 617 22 l 621 146 l 611 457 l 626 538 q 621 561 626 551 l 625 582 q 621 650 621 622 q 626 699 621 678 q 624 739 624 724 l 625 814 q 606 939 625 838 q 588 954 606 942 q 569 953 585 953 l 507 953 q 408 897 443 953 q 369 778 374 842 q 350 732 351 738 l 347 733 l 336 731 q 275 867 314 731 q 242 938 267 888 q 174 935 228 935 l 100 936 l 74 936 q 58 793 58 867 l 58 776 l 57 724 q 64 663 57 701 q 57 560 57 621 l 61 385 l 61 349 q 67 232 67 297 l 65 86 q 79 13 65 25 q 140 1 93 1 q 219 8 186 1 q 246 204 222 11 l 243 322 l 242 489 l 240 508 q 247 538 240 538 q 272 499 251 538 q 296 447 292 460 q 340 356 331 378 l 346 361 l 346 360 q 358 385 350 360 q 400 503 390 479 l 424 554 l 436 554 q 433 522 433 532 m 438 264 q 440 257 438 260 l 440 263 q 438 269 440 267 l 438 264 m 438 285 l 438 272 l 439 288 l 438 285 z "},"N":{"ha":692,"x_min":32,"x_max":638,"o":"m 451 -10 l 446 -1 q 389 86 403 42 q 374 138 386 97 q 351 214 363 179 l 338 253 q 334 251 338 251 q 322 282 331 251 l 321 301 l 260 424 q 256 401 256 415 l 256 386 l 261 290 l 261 211 q 260 194 261 197 q 261 189 261 193 l 253 126 q 257 67 253 108 q 253 44 253 50 l 257 21 l 257 10 q 254 -4 256 6 l 250 4 q 235 -4 242 -4 l 224 1 q 196 -4 213 1 q 138 0 169 0 q 99 1 106 0 q 83 3 93 3 q 68 0 74 3 l 51 -7 l 42 0 q 38 -1 42 -1 q 37 6 35 -1 q 39 36 39 14 l 35 113 l 38 154 q 32 194 38 183 l 33 328 q 38 703 39 650 q 38 769 38 757 l 38 783 l 43 918 l 43 954 q 75 985 43 985 l 117 981 l 200 993 q 248 951 222 993 q 277 896 274 910 q 288 870 281 882 q 308 843 296 858 q 325 819 319 828 q 343 767 331 811 q 361 717 356 722 q 377 690 364 708 q 390 660 390 672 l 396 654 q 393 653 394 654 l 424 610 q 428 615 428 611 l 425 628 q 426 633 425 632 l 429 631 q 417 746 429 646 l 419 742 l 418 789 q 417 883 417 836 l 415 929 q 413 942 413 938 q 416 964 415 946 q 422 989 417 982 q 449 986 442 986 l 594 993 q 604 992 597 993 l 606 993 q 635 986 611 993 l 633 982 q 629 978 632 982 q 626 974 626 975 l 633 961 q 632 958 633 960 q 638 847 638 908 l 631 603 l 633 293 q 629 136 633 190 l 636 15 q 594 -1 631 11 l 576 -1 l 507 0 q 458 -3 489 0 l 451 -10 m 578 21 l 606 24 l 613 24 l 611 54 l 614 54 q 613 75 613 57 l 613 96 l 615 224 l 613 800 q 610 918 613 840 l 603 931 l 610 933 l 610 939 q 604 963 610 953 l 586 960 q 553 963 564 963 l 522 963 l 444 961 q 438 795 438 879 q 440 603 438 711 l 432 592 q 404 618 428 592 q 379 644 381 644 l 364 671 q 311 803 324 778 q 210 965 282 869 l 189 967 q 126 959 165 967 q 74 950 86 951 l 65 683 l 61 678 l 63 635 l 58 472 q 63 361 58 368 q 65 203 64 328 q 71 19 65 78 q 142 14 99 14 q 224 22 186 14 l 219 35 q 224 39 222 39 l 231 79 q 236 207 236 114 l 233 424 l 231 428 q 239 480 231 474 q 254 486 247 486 l 260 485 q 292 408 264 453 q 325 349 321 364 q 334 329 329 335 q 339 320 339 324 q 338 315 339 317 l 344 297 q 350 288 350 294 l 453 25 l 528 21 q 564 25 547 21 q 578 21 568 21 m 351 214 l 347 224 l 351 214 z "},"O":{"ha":671,"x_min":38,"x_max":628,"o":"m 38 464 l 42 622 q 44 680 43 640 q 47 743 46 719 q 83 853 54 810 q 165 940 107 913 q 297 968 224 968 l 325 968 q 497 933 421 968 q 600 821 574 897 q 628 657 628 757 l 622 492 l 622 472 q 624 453 622 456 q 621 385 622 438 q 618 314 619 333 q 611 251 617 294 q 597 181 606 207 q 542 53 576 108 q 494 20 522 31 q 422 2 467 10 q 364 -8 376 -6 l 338 -8 l 228 -14 q 122 33 171 -14 q 60 139 74 81 q 44 300 46 197 q 38 446 43 403 l 38 464 m 588 533 l 586 575 l 588 674 q 533 892 588 813 q 275 943 435 943 q 178 911 210 943 l 176 915 q 178 919 178 917 q 97 839 128 890 q 65 726 65 788 q 61 600 65 665 q 57 497 57 535 q 63 439 57 460 l 61 439 q 58 440 60 440 l 60 379 q 68 290 63 358 q 86 178 74 221 q 126 104 99 136 q 286 26 158 35 q 342 35 294 28 q 488 67 389 43 q 570 196 557 165 q 583 296 583 226 l 583 394 l 586 406 l 583 401 q 588 533 583 500 m 440 236 q 408 206 440 226 q 356 186 376 186 q 327 169 351 169 q 276 185 303 169 q 239 215 250 200 q 204 263 228 229 q 190 407 196 304 l 190 421 q 201 516 190 454 q 211 603 211 578 q 207 651 211 629 l 219 708 q 228 718 225 711 q 233 728 231 725 q 338 771 276 771 q 344 773 343 771 q 345 776 346 775 q 346 780 344 778 q 353 782 347 782 q 422 743 371 782 q 446 628 438 694 q 453 336 446 624 q 440 242 453 279 l 440 236 m 361 249 q 401 463 401 410 q 397 544 401 515 q 392 627 393 574 q 380 712 390 681 q 343 743 369 743 q 306 738 317 743 q 289 718 296 732 q 275 697 282 704 l 269 699 l 274 713 l 251 697 q 246 656 246 678 l 246 631 q 244 586 244 615 l 244 544 q 248 440 244 464 q 254 362 251 415 q 265 273 257 308 q 293 211 272 238 l 299 211 q 361 249 347 239 m 364 776 l 368 775 l 364 776 z "},"P":{"ha":690,"x_min":56,"x_max":676,"o":"m 64 518 l 65 660 l 65 729 q 67 800 65 776 q 60 949 60 828 q 172 982 60 982 l 213 982 q 421 972 256 982 q 599 865 521 958 q 676 674 676 771 q 636 533 676 607 q 597 467 622 507 q 540 425 550 432 q 509 405 529 418 q 476 386 489 392 q 408 367 435 371 l 397 367 l 325 364 l 313 364 q 300 365 301 364 l 296 363 l 304 353 q 297 285 297 314 l 297 274 q 299 261 297 263 q 293 256 293 260 l 296 246 q 294 243 296 243 l 294 233 l 296 236 q 299 199 299 228 l 299 126 l 300 64 l 300 63 q 296 65 299 63 l 296 63 q 303 50 296 57 q 297 37 297 44 q 302 27 297 29 q 307 22 307 25 l 301 15 q 288 21 292 21 q 257 7 285 21 q 246 11 251 11 l 186 7 l 93 7 q 82 -4 85 7 q 67 8 69 8 q 61 4 65 8 l 58 6 l 56 6 q 64 14 56 7 q 72 28 72 21 l 68 99 q 72 172 68 133 q 64 518 64 438 m 271 386 l 268 396 q 278 401 268 401 l 279 410 q 290 392 290 410 q 349 382 314 382 q 408 388 383 382 q 447 399 432 393 q 479 413 461 404 q 519 430 497 422 q 572 465 540 438 q 608 521 603 493 q 639 621 635 547 q 646 668 642 654 q 619 785 640 722 l 569 854 q 517 900 540 883 q 481 917 493 917 q 397 937 468 917 q 282 957 325 957 l 263 957 q 240 956 244 956 q 235 960 236 956 q 217 958 231 958 q 201 953 204 958 q 193 956 196 953 l 169 956 l 157 951 q 153 954 156 951 l 125 947 q 113 946 114 947 q 104 794 110 835 q 107 764 107 772 l 97 500 q 99 488 99 499 q 88 319 88 354 q 92 247 88 285 q 88 215 88 231 l 92 150 q 90 131 92 132 l 96 79 l 94 63 l 101 38 l 100 31 l 113 29 q 117 26 115 26 l 122 26 q 128 22 125 26 q 190 19 172 19 q 226 22 208 19 q 269 31 269 26 l 269 42 l 272 40 q 279 106 279 40 l 279 124 l 278 168 q 281 222 278 189 q 279 263 279 229 q 275 310 279 297 q 268 326 268 317 l 271 351 l 268 379 l 271 386 m 272 769 l 282 768 q 292 771 289 768 q 307 774 294 774 l 322 774 q 427 742 375 774 q 479 661 479 711 q 450 590 479 607 q 398 572 426 576 q 363 565 369 567 q 271 560 357 564 l 261 576 q 267 583 261 579 l 261 760 q 272 769 261 769 m 433 614 q 450 664 450 635 q 433 710 450 693 q 398 733 417 728 q 349 744 379 739 q 306 754 318 750 q 281 742 282 744 q 294 589 281 675 q 305 587 297 588 q 315 583 313 586 q 433 614 367 592 m 294 215 l 296 208 l 294 215 z "},"Q":{"ha":688,"x_min":38,"x_max":646,"o":"m 644 608 l 643 513 q 646 424 643 482 l 639 318 q 640 292 640 308 l 640 269 q 613 135 640 210 l 586 114 q 631 54 631 69 q 598 29 631 49 q 540 -1 565 10 l 524 -11 q 499 -1 515 -11 q 483 17 483 8 l 483 18 q 485 22 485 19 q 483 25 485 24 q 335 6 383 6 l 271 6 q 100 76 139 6 q 79 112 96 85 q 60 157 63 139 q 38 332 38 171 l 40 501 q 39 569 40 501 l 42 715 l 42 749 q 40 782 42 771 q 45 810 43 792 q 50 836 47 828 q 110 910 63 865 q 200 972 157 954 q 267 992 243 990 q 349 994 290 994 l 374 994 q 526 963 488 994 q 622 822 600 911 q 644 608 644 733 m 593 86 l 569 114 q 578 128 569 125 q 640 443 640 151 q 633 664 640 560 q 636 723 636 694 q 625 798 636 751 q 597 849 614 844 q 526 938 579 904 q 410 981 474 971 q 375 979 399 979 l 328 981 q 146 925 188 981 q 84 865 101 888 q 63 812 67 842 q 60 730 60 782 q 56 653 60 678 l 54 653 l 56 632 q 53 624 56 626 q 57 560 57 593 l 54 444 l 56 365 l 56 304 q 69 183 56 233 q 128 88 83 132 q 361 21 194 21 q 471 43 428 21 l 485 51 q 508 28 493 51 q 528 4 522 4 q 589 40 539 4 l 594 43 q 613 54 599 47 q 593 86 593 76 m 463 683 l 461 675 l 465 661 q 479 435 479 550 q 467 243 479 319 l 467 240 q 463 233 467 238 q 460 238 461 233 l 458 238 l 460 239 q 433 267 450 244 q 408 299 415 289 q 396 308 400 308 q 382 302 392 308 q 358 285 372 296 q 336 268 344 272 l 325 258 q 336 242 326 257 q 382 176 369 192 l 383 172 l 381 168 l 375 164 l 374 164 q 331 158 357 158 l 289 165 l 279 165 q 274 167 275 165 l 282 169 q 270 180 278 174 q 260 190 263 186 q 250 206 258 193 q 231 242 242 219 q 203 304 221 265 l 207 303 q 208 315 208 304 l 189 524 q 189 526 189 525 l 193 529 q 192 557 192 539 l 192 588 q 229 763 192 704 q 343 797 290 797 q 429 764 396 797 q 463 683 463 731 m 453 636 l 454 654 q 438 736 454 690 q 431 733 435 733 q 422 753 428 733 q 403 765 418 758 q 385 779 388 772 l 385 775 l 342 786 q 274 758 304 783 q 233 703 243 733 q 226 488 226 585 q 235 300 226 392 q 275 224 244 263 q 335 186 306 186 q 350 188 349 186 q 304 258 304 233 q 329 282 304 264 l 365 307 q 401 329 401 325 l 401 331 q 447 274 428 325 q 458 439 458 311 q 447 632 458 567 l 453 636 z "},"R":{"ha":719,"x_min":56,"x_max":714,"o":"m 700 4 l 547 -1 l 524 -1 q 467 22 467 -1 q 469 28 467 28 l 475 25 l 478 28 q 450 76 468 44 l 421 131 q 372 238 394 178 l 288 358 l 288 292 q 297 33 288 113 l 294 32 l 308 19 q 299 11 301 19 q 293 1 296 3 q 288 4 290 4 l 281 1 q 275 6 279 1 l 168 0 l 151 0 l 114 3 l 100 3 l 82 6 q 76 3 76 6 l 76 1 q 74 6 74 4 l 71 0 l 65 7 l 60 3 l 57 14 q 64 63 64 53 q 61 89 64 72 q 58 117 58 106 l 60 115 q 61 113 61 115 q 64 121 64 115 l 64 167 l 67 304 l 56 789 q 57 968 56 892 l 74 988 l 81 975 q 93 974 82 974 l 104 974 q 207 986 122 974 l 204 983 q 257 979 229 979 l 357 982 l 376 982 q 396 981 393 982 l 400 985 q 385 988 396 985 q 601 911 486 979 l 600 908 q 681 775 646 876 q 682 782 682 776 q 686 707 686 750 q 578 456 686 522 q 516 435 557 446 q 465 421 475 424 q 517 339 485 386 l 572 260 q 675 82 665 126 q 708 13 679 63 l 708 10 q 712 8 711 10 q 714 6 713 6 l 701 1 l 699 1 l 700 4 m 160 15 l 210 11 q 238 15 222 11 l 235 15 q 267 28 247 24 l 274 244 q 272 272 274 263 l 268 265 q 267 278 267 267 l 267 292 q 275 428 267 401 q 279 413 279 419 l 279 410 q 297 391 288 407 q 310 372 307 375 l 307 369 q 428 161 392 240 q 458 101 442 144 q 497 35 474 58 q 558 11 519 11 q 650 19 597 11 l 647 25 l 653 25 l 678 19 q 686 22 683 19 q 678 26 683 26 q 674 28 674 26 q 678 33 674 29 l 653 85 l 653 89 q 628 138 653 100 q 599 190 604 175 q 552 267 583 211 q 497 350 521 322 q 513 325 507 331 q 488 354 506 335 q 461 385 471 374 q 428 444 436 413 q 432 443 429 443 q 501 465 465 443 q 561 522 536 488 l 567 522 q 637 631 615 588 q 658 726 658 674 q 657 743 658 726 l 651 743 l 651 753 q 522 897 651 829 l 524 899 q 544 892 531 896 q 585 869 575 879 q 453 953 489 943 q 269 965 394 965 q 96 958 144 965 l 96 954 l 99 942 l 106 944 l 110 939 l 143 943 q 147 942 144 943 q 151 942 150 942 q 138 938 147 939 q 108 919 117 935 l 108 911 q 100 867 108 892 q 90 596 90 656 q 97 451 90 536 q 104 361 104 367 l 104 331 l 101 200 q 108 111 101 147 q 113 106 113 108 q 104 51 113 103 l 103 51 q 97 58 100 53 l 101 26 q 126 17 107 17 l 133 17 q 147 15 146 17 l 146 14 l 160 15 m 272 786 l 336 785 q 385 789 369 785 q 378 797 378 796 q 401 783 382 797 q 439 745 419 768 q 458 711 458 722 q 456 693 457 700 q 457 678 457 692 q 407 604 457 639 q 392 603 403 603 q 376 594 381 603 q 331 601 351 601 l 278 600 l 261 600 q 253 607 253 600 l 253 611 q 246 615 253 615 q 254 635 254 629 q 253 643 254 642 q 254 657 254 644 l 254 714 q 247 760 254 754 l 244 785 l 272 786 m 283 607 l 347 611 q 369 610 368 611 q 383 624 369 624 q 386 622 385 622 q 394 621 392 621 q 389 618 393 619 q 379 611 379 615 q 427 633 406 611 q 449 683 449 654 q 324 776 449 776 l 264 772 l 265 740 l 263 640 q 283 607 263 607 z "},"S":{"ha":674,"x_min":10,"x_max":654,"o":"m 399 4 l 361 0 q 353 1 354 0 q 336 0 350 0 l 321 0 q 150 24 244 0 q 79 92 117 35 q 53 129 63 118 q 10 293 17 189 l 18 300 q 127 294 72 294 q 217 300 182 294 q 237 272 231 296 q 250 243 243 249 q 324 201 279 201 q 394 228 368 201 q 421 300 421 256 q 413 325 421 313 q 352 382 390 364 q 257 410 314 400 q 176 428 200 419 q 70 519 107 454 q 33 661 33 583 q 97 868 33 785 q 220 942 146 914 q 369 969 294 969 q 554 906 486 969 q 654 701 654 833 q 651 661 654 692 q 527 650 608 650 q 429 663 446 650 q 435 678 435 668 q 407 734 435 713 q 344 756 379 756 q 300 747 308 756 l 306 744 q 254 678 254 738 q 287 615 254 633 q 370 591 319 597 q 438 575 421 585 q 565 489 538 515 q 640 288 640 418 q 605 134 640 201 q 501 35 569 67 q 519 50 506 40 q 538 68 532 60 l 522 68 q 490 50 500 54 l 461 38 q 404 4 432 24 l 399 4 m 567 678 l 594 672 l 596 672 q 600 674 597 674 l 614 681 l 614 708 q 519 872 614 813 q 409 924 458 910 q 358 938 360 938 l 343 938 q 253 925 299 938 q 188 892 208 913 q 162 880 175 892 q 147 868 149 868 q 144 871 144 868 q 150 877 144 874 q 164 885 156 881 q 176 897 172 890 q 133 865 157 893 q 110 828 110 838 q 135 853 110 839 l 138 844 q 99 792 111 819 q 80 741 88 765 q 66 699 72 717 q 60 642 60 681 q 143 485 60 554 q 163 461 143 469 q 222 446 185 454 q 285 431 260 438 q 342 411 311 424 q 438 333 406 388 q 446 299 446 317 q 409 221 446 256 q 324 186 372 186 q 280 194 293 186 q 260 206 267 201 q 247 219 254 210 q 236 233 239 229 q 217 264 219 258 q 174 269 201 269 l 68 261 l 56 261 q 44 263 46 261 q 69 165 58 165 q 142 77 86 117 q 244 38 197 38 q 260 43 254 38 q 274 39 264 39 l 281 39 l 338 29 q 582 178 469 29 q 610 294 610 240 q 598 383 610 349 q 572 437 586 417 q 526 478 558 457 q 475 506 493 499 q 413 533 457 514 l 278 590 q 238 679 238 610 q 259 758 238 725 q 331 790 281 790 q 415 756 381 790 q 461 675 449 722 q 504 671 481 671 l 567 678 z "},"T":{"ha":615,"x_min":14,"x_max":606,"o":"m 601 772 q 589 758 589 765 q 588 750 589 750 l 575 751 q 558 750 572 749 q 536 751 544 751 l 490 749 q 474 750 475 749 l 421 747 q 415 697 415 735 l 417 660 l 414 508 q 419 444 414 458 q 424 369 424 431 l 418 193 q 426 13 418 143 l 411 4 l 408 7 q 201 1 314 1 l 200 4 l 206 22 l 206 25 q 207 49 207 38 l 207 61 q 201 88 204 82 l 199 79 l 199 58 q 193 39 199 44 l 193 44 q 200 188 200 124 l 199 292 q 203 310 201 308 q 201 343 201 333 l 203 371 l 203 375 q 210 408 210 393 q 207 426 210 424 l 204 440 l 207 493 q 204 526 207 507 l 210 524 q 211 533 211 525 q 207 546 211 542 q 206 572 206 558 l 206 579 l 203 579 l 204 589 l 199 710 l 197 731 l 206 750 q 176 756 197 750 q 139 750 164 750 l 93 751 l 50 750 q 21 753 29 750 q 18 817 18 768 l 18 854 q 17 896 18 883 l 14 929 q 21 968 14 947 l 15 978 l 17 978 l 51 975 q 108 972 86 972 q 151 975 129 972 l 204 974 l 246 972 q 367 978 321 972 l 372 974 q 575 967 481 967 q 606 957 593 967 l 604 907 l 603 908 l 600 904 l 601 772 m 454 771 l 582 778 l 586 921 q 572 953 586 953 l 551 953 q 531 947 540 953 q 525 949 526 947 q 526 957 526 950 l 526 958 q 509 947 515 947 q 499 953 503 947 q 492 947 497 947 q 485 948 486 947 q 481 949 483 949 l 486 951 l 476 951 l 476 947 l 474 946 l 471 946 l 472 947 q 364 951 463 951 q 186 946 265 951 q 181 950 181 947 l 107 954 l 103 949 q 88 951 89 951 l 43 947 q 29 949 31 947 l 29 944 l 28 918 q 33 875 28 899 l 36 858 l 36 822 q 39 774 36 792 q 111 765 67 765 l 213 768 q 231 761 231 763 q 226 729 229 757 q 231 525 231 629 l 224 40 q 390 19 224 31 l 397 92 l 397 249 q 399 281 397 271 l 392 700 l 389 714 l 390 735 q 389 744 390 738 q 397 758 393 750 q 407 774 403 774 l 407 775 l 443 771 l 454 771 z "},"U":{"ha":701,"x_min":49,"x_max":649,"o":"m 511 942 l 626 947 q 634 942 632 947 q 639 936 636 936 l 643 938 q 649 701 649 819 l 647 514 q 644 503 647 513 q 640 469 640 494 q 644 443 640 444 q 636 339 640 408 q 596 121 628 193 q 580 103 585 115 q 568 86 575 90 q 571 85 568 85 q 576 88 574 88 q 579 80 579 88 q 567 61 579 72 q 493 15 551 44 q 364 -4 424 -4 q 267 1 304 -4 q 185 24 229 6 q 113 76 140 43 q 67 173 86 110 q 49 324 49 236 l 51 481 l 51 508 q 50 536 51 526 q 56 683 56 601 l 51 888 l 51 904 l 54 940 l 53 949 l 53 951 l 100 946 l 138 951 l 190 947 q 218 953 208 947 q 233 949 224 949 q 249 946 243 949 q 243 735 243 879 q 254 326 243 590 q 279 235 254 279 q 350 192 304 192 q 386 210 365 192 l 388 204 q 419 239 408 207 q 428 257 426 254 l 433 276 q 438 422 438 356 l 436 586 q 443 788 436 722 l 440 933 q 444 939 440 939 l 453 939 q 460 946 457 939 q 511 942 483 942 m 71 428 l 69 397 l 71 367 q 68 346 68 347 l 68 322 q 131 101 92 169 q 126 100 129 100 l 124 100 q 164 49 133 72 q 211 25 194 25 q 229 26 228 25 q 343 6 283 6 l 363 6 q 379 13 375 6 l 450 15 l 489 29 q 525 47 504 35 l 525 44 q 557 78 547 50 l 556 79 q 615 207 606 144 q 628 343 624 269 q 634 528 632 417 q 638 674 636 640 l 639 819 q 626 935 639 892 q 546 938 579 938 q 503 936 513 938 l 493 938 q 465 926 481 938 q 468 894 468 907 l 454 610 l 454 585 q 456 561 454 571 l 456 538 l 460 386 q 417 199 460 269 l 413 203 q 365 178 389 178 q 326 183 340 179 q 300 196 300 193 q 303 195 301 196 q 306 196 304 194 q 264 238 269 229 q 254 264 258 247 q 238 281 250 281 l 240 285 l 240 475 l 228 479 q 219 631 219 547 l 228 697 l 228 710 q 226 733 225 718 q 228 760 228 747 l 228 799 q 222 933 228 874 l 217 933 q 182 926 186 926 l 146 931 q 135 929 136 931 q 123 933 133 931 q 111 939 113 935 q 97 935 106 935 l 69 939 l 69 924 l 74 785 q 68 726 74 754 l 71 678 l 75 643 q 78 578 78 608 q 72 522 78 549 q 65 475 65 496 l 71 428 z "},"V":{"ha":611,"x_min":25,"x_max":618,"o":"m 471 954 l 504 956 q 535 953 531 956 q 547 950 540 950 l 593 958 q 618 942 608 958 q 571 732 597 890 q 565 708 565 722 q 433 181 522 475 q 409 88 422 150 q 386 -3 396 26 q 390 -11 386 -3 l 372 -18 l 347 -17 l 325 -17 l 247 -18 q 188 -12 211 -18 l 178 -3 q 128 196 149 76 q 66 601 107 315 q 25 949 25 886 l 28 949 q 35 958 33 949 q 44 967 38 967 l 144 963 l 222 958 q 283 417 222 722 q 290 413 289 415 q 332 569 308 453 q 363 708 356 685 q 367 732 363 725 l 365 733 q 372 758 368 739 q 382 785 376 776 q 396 866 383 808 q 410 950 408 924 q 422 961 417 961 q 471 954 442 954 m 333 13 l 357 19 q 364 17 361 19 q 386 111 368 57 q 413 192 404 165 q 438 287 421 219 q 465 385 456 354 l 467 385 q 498 521 474 438 q 563 813 522 604 l 586 936 q 561 940 579 940 l 538 940 q 522 942 524 940 l 493 942 q 449 932 460 942 q 439 903 439 922 l 440 883 q 435 856 440 865 q 366 579 415 771 q 299 306 317 388 l 292 304 q 283 315 290 310 q 276 324 275 321 q 276 329 276 326 q 278 333 276 332 q 259 408 271 356 q 233 501 247 460 q 215 682 219 543 q 199 871 211 821 q 194 897 194 876 q 175 947 194 947 l 172 947 l 111 950 q 60 939 78 950 q 81 783 63 925 q 105 616 100 640 q 110 569 110 592 l 110 558 q 156 306 126 482 q 208 33 185 131 l 217 19 q 333 13 296 19 z "},"W":{"ha":646,"x_min":31,"x_max":619,"o":"m 467 963 l 563 964 l 588 964 q 615 963 606 964 q 619 953 619 958 l 614 931 q 603 771 614 910 l 599 764 l 557 332 q 529 7 540 214 q 522 3 528 3 l 506 6 l 414 6 l 408 11 l 406 10 q 335 171 360 132 q 297 96 319 147 q 261 21 275 44 q 238 3 261 3 q 218 4 236 4 q 164 0 200 4 q 136 10 144 1 q 110 202 132 78 q 83 385 89 326 l 49 706 q 31 949 38 843 l 40 963 q 60 965 54 965 l 136 965 q 160 963 156 963 l 214 967 l 231 965 l 235 961 q 244 807 240 906 q 281 460 256 593 q 326 638 311 567 q 364 539 331 638 l 379 501 q 394 458 389 478 q 411 712 403 546 q 426 958 419 878 l 435 963 l 467 963 m 519 167 l 515 253 q 525 271 515 261 l 524 307 q 551 513 528 342 q 582 783 574 685 q 590 906 590 881 l 590 922 q 589 940 590 938 q 531 935 572 938 q 468 928 489 932 q 461 868 465 913 q 440 760 451 764 q 439 771 439 761 q 442 798 439 781 q 444 824 444 815 q 438 792 439 811 q 433 756 436 772 q 428 732 431 739 q 425 719 426 725 q 424 711 424 714 q 425 700 424 708 q 426 686 426 692 q 435 692 429 689 l 424 624 q 425 600 424 615 q 422 601 424 601 q 429 578 429 597 q 425 557 429 560 q 421 546 421 554 q 428 517 421 538 q 422 489 422 507 l 424 463 q 417 412 424 447 q 401 365 411 376 q 374 408 385 375 q 351 491 363 442 q 331 564 340 540 q 308 466 321 536 q 275 367 296 396 q 250 454 260 389 q 227 685 240 519 q 204 928 214 851 q 156 939 175 928 l 156 942 l 135 940 q 117 935 125 935 q 85 939 89 939 q 67 936 81 939 l 67 932 l 65 915 q 72 863 65 908 q 92 651 79 817 q 113 419 106 485 l 113 385 q 114 379 114 383 q 111 375 114 375 l 110 361 q 111 358 110 360 q 114 353 113 356 q 118 310 118 344 l 132 233 q 151 126 135 196 q 172 32 168 57 l 231 33 l 243 26 q 285 135 258 57 q 325 242 311 213 q 372 153 347 242 q 383 108 383 110 q 396 82 390 100 q 409 52 401 64 q 432 40 417 40 l 446 42 l 490 35 q 513 81 506 35 q 519 167 519 126 z "},"X":{"ha":606,"x_min":6,"x_max":618,"o":"m 93 8 l 50 7 q 10 14 22 7 q 22 66 11 32 q 36 118 33 100 l 38 117 l 78 214 q 86 251 88 244 q 111 366 85 272 q 147 485 138 460 l 6 950 q 13 965 8 961 q 6 967 11 967 q 18 977 8 972 q 29 983 28 982 l 79 983 q 69 978 76 978 q 61 971 61 978 q 104 967 82 967 q 126 969 126 967 l 97 976 l 97 978 q 114 979 99 979 l 161 975 q 172 976 171 975 q 181 971 174 971 l 192 972 q 199 971 197 972 l 201 978 q 211 970 208 978 q 219 963 214 963 q 225 964 224 963 q 267 859 243 924 q 304 760 290 794 q 326 725 318 725 q 335 742 331 725 q 343 767 339 758 l 342 756 q 397 990 396 981 l 413 990 l 463 986 q 474 988 472 986 q 460 983 471 983 q 446 982 450 983 q 467 979 465 979 l 510 979 q 531 982 511 979 l 533 988 q 565 995 543 993 q 596 1000 588 997 l 597 993 l 594 989 q 607 985 603 985 q 613 985 611 985 q 618 986 615 986 q 503 622 526 710 q 471 474 481 533 l 601 0 l 590 4 l 478 0 q 414 6 438 0 l 406 17 q 381 107 396 49 q 319 299 344 244 l 315 299 q 265 168 292 256 q 219 42 239 81 q 221 36 221 42 q 219 29 221 31 l 218 31 q 212 13 218 15 q 192 9 206 10 q 168 1 179 8 l 93 8 m 481 19 l 528 22 l 529 22 l 554 26 q 551 56 551 46 q 556 78 551 67 q 501 233 553 171 q 480 313 497 253 q 463 376 463 372 l 463 386 q 465 403 463 400 l 467 401 l 454 469 q 450 450 454 457 l 442 483 q 450 514 444 490 q 464 547 456 538 q 463 559 463 549 q 473 593 463 569 q 483 629 483 617 q 482 643 483 642 q 495 687 483 658 q 510 731 507 715 q 558 875 529 771 l 558 850 l 569 899 l 564 900 q 567 917 565 906 q 582 950 569 944 q 563 956 576 956 l 542 956 q 511 949 524 949 l 458 954 q 433 950 446 954 q 358 741 401 885 q 308 579 314 597 l 306 578 q 299 583 304 578 q 203 946 253 796 q 138 956 174 956 q 75 955 103 956 q 35 954 47 954 l 36 942 q 85 815 51 900 q 128 699 118 731 q 156 594 138 667 q 164 563 164 581 l 164 556 l 157 558 q 158 545 157 551 q 160 538 160 539 l 164 542 q 168 536 168 539 l 164 524 q 169 486 169 513 q 147 380 169 460 q 92 194 124 300 q 46 22 60 88 q 116 21 58 21 q 186 22 174 21 q 218 106 192 51 q 251 185 244 161 q 280 269 257 208 q 310 365 303 331 q 324 349 319 363 q 332 332 329 335 q 446 22 361 199 q 481 19 468 19 m 528 22 l 526 25 l 529 22 l 528 22 z "},"Y":{"ha":604,"x_min":15,"x_max":625,"o":"m 17 6 q 18 10 17 7 q 15 17 19 13 q 47 82 26 24 q 74 156 67 140 l 71 158 q 85 181 82 165 q 94 213 89 196 q 131 301 100 229 q 175 419 163 374 q 200 475 197 461 q 178 539 182 531 l 181 551 q 122 697 160 593 q 54 850 83 801 q 40 894 49 864 q 24 940 31 925 q 28 950 28 944 q 31 957 28 956 l 53 957 q 82 954 69 957 q 181 958 131 958 l 196 958 q 236 949 236 958 l 232 947 q 252 883 238 924 q 272 826 267 843 l 276 821 q 275 818 275 819 q 278 815 275 817 q 282 803 282 814 q 288 776 282 793 q 303 738 293 760 q 317 707 314 717 q 354 786 332 732 q 385 857 376 840 q 403 889 394 874 q 421 942 421 924 q 432 951 422 947 q 443 960 442 956 q 450 953 446 956 q 600 960 565 956 q 606 956 601 958 q 611 951 611 954 q 615 957 614 953 q 618 961 615 961 l 621 961 l 625 954 q 524 692 572 796 q 451 535 476 588 q 401 433 426 483 l 372 375 q 239 51 289 199 q 226 25 231 43 q 218 1 222 7 q 208 7 208 7 l 17 6 m 139 31 l 193 39 l 201 39 q 248 141 221 74 q 282 222 275 208 l 442 576 q 589 936 546 801 l 544 939 q 520 929 535 929 q 504 931 506 929 q 440 903 454 907 l 397 836 q 379 795 392 821 q 363 760 367 769 q 333 676 363 718 l 329 678 q 320 667 324 678 q 313 656 317 657 q 314 666 314 657 q 306 685 314 675 l 300 679 q 271 779 278 735 l 271 781 q 260 814 267 785 l 256 814 q 249 829 249 825 q 250 835 249 833 l 251 832 q 238 853 238 847 l 239 856 q 219 889 231 856 q 203 929 207 922 l 99 929 l 89 932 q 74 928 83 932 q 60 924 65 924 q 146 693 89 807 q 185 620 171 664 q 212 538 200 576 q 229 485 224 499 q 140 265 171 365 l 142 251 q 111 156 142 214 q 103 141 106 156 q 97 122 100 126 l 103 132 q 94 89 103 114 l 83 56 q 75 44 82 50 q 68 35 68 39 q 81 33 69 33 l 114 36 q 139 31 126 31 m 210 493 l 208 496 q 210 493 208 493 z "},"Z":{"ha":658,"x_min":19,"x_max":628,"o":"m 110 736 l 43 749 l 36 746 q 28 817 28 746 q 35 961 28 889 l 92 963 q 171 958 131 963 l 167 958 q 199 950 189 950 q 226 954 210 950 q 307 950 265 950 l 565 960 l 600 960 q 606 953 604 958 q 611 946 608 947 q 606 867 606 908 l 610 732 l 608 714 q 553 628 588 681 q 451 469 478 517 q 387 376 424 421 q 336 311 350 332 q 335 318 336 317 q 272 233 297 281 l 272 219 l 281 219 q 285 222 282 219 l 310 221 q 314 220 313 221 q 317 219 315 219 q 372 214 324 217 l 385 217 l 383 218 l 394 218 l 394 214 q 513 200 497 203 l 526 201 q 535 204 529 203 l 533 208 l 521 210 l 532 210 l 553 211 q 606 194 586 211 l 608 210 q 618 161 618 192 q 613 113 618 131 q 618 81 618 103 l 617 47 q 623 27 622 42 q 628 7 624 13 q 617 3 625 3 l 607 4 q 479 -1 601 -1 l 128 -1 q 24 1 93 -1 q 19 56 19 17 l 22 113 q 19 118 22 118 l 28 214 q 24 218 28 218 q 137 399 64 299 q 231 532 210 500 q 301 638 254 563 q 379 751 347 713 q 110 736 336 747 m 572 772 q 585 845 585 835 q 583 857 585 856 q 596 939 583 932 q 594 943 594 939 l 586 942 q 525 946 549 946 l 461 939 q 444 940 458 940 l 326 933 l 324 938 q 226 931 265 931 q 164 936 188 931 l 67 928 q 74 808 69 819 q 66 799 68 808 q 58 790 64 790 q 95 776 86 776 q 108 783 104 776 q 156 779 125 779 l 196 781 q 235 776 215 781 l 235 774 q 178 771 179 771 q 200 768 197 768 l 253 768 q 279 771 260 768 q 278 775 278 772 q 283 777 278 778 q 300 776 289 776 l 301 771 l 349 778 q 361 775 353 778 l 397 775 q 428 771 417 775 q 422 768 425 768 l 415 768 q 406 735 414 768 q 394 697 399 703 l 365 661 q 356 643 356 647 l 349 638 l 349 635 q 325 597 344 622 q 254 482 299 561 l 250 483 q 219 442 240 467 q 190 397 197 417 q 158 362 176 388 q 126 326 140 336 l 125 328 l 121 324 l 124 325 q 117 308 117 311 q 118 304 118 306 q 83 242 85 250 q 67 224 79 229 q 65 231 65 224 l 53 214 l 54 214 q 63 207 63 214 q 51 38 58 178 q 90 39 64 39 l 129 39 q 398 28 328 31 q 494 25 468 25 l 488 21 q 544 14 522 14 q 574 25 567 14 q 580 56 581 36 q 583 85 579 76 l 579 147 q 583 181 579 164 q 221 194 376 185 q 215 205 215 199 q 232 238 215 211 q 319 366 249 265 q 424 524 390 467 q 497 621 435 539 q 579 746 558 703 l 586 797 q 574 763 582 775 q 572 772 572 764 z "},"[":{"ha":446,"x_min":53,"x_max":410,"o":"m 400 974 l 404 978 q 410 957 410 972 q 407 921 410 957 l 407 857 l 404 857 l 404 835 q 408 828 408 833 q 403 820 406 828 q 399 810 400 813 q 378 813 379 813 l 350 811 l 319 811 q 308 808 315 810 l 246 808 q 244 800 244 807 l 244 771 l 239 697 l 240 626 l 239 551 q 243 473 239 525 q 247 372 247 421 q 246 321 247 322 l 247 319 l 246 319 q 247 315 247 318 l 246 267 l 250 267 q 249 260 250 261 l 250 231 q 249 228 250 228 l 251 197 q 261 196 260 197 l 296 189 q 361 185 358 185 l 376 186 l 393 183 q 399 185 394 185 l 403 172 l 403 128 l 401 121 l 404 106 l 404 90 q 401 72 401 76 q 403 61 401 67 l 406 31 q 407 28 406 29 l 406 28 q 407 21 406 22 l 404 6 l 403 7 l 401 1 q 394 0 400 0 q 386 1 388 0 l 381 0 l 381 -1 l 363 1 l 363 0 q 156 1 347 1 l 139 3 q 122 1 125 3 l 118 1 l 100 0 l 94 1 q 68 0 78 0 l 68 1 q 62 0 65 0 q 57 -1 58 0 l 56 14 l 56 75 l 54 75 q 56 78 56 75 l 56 97 q 58 118 58 117 l 53 179 l 63 400 l 61 725 l 61 850 q 69 954 61 954 q 78 975 72 974 l 78 978 q 86 979 85 978 l 86 981 l 158 976 q 171 975 160 975 q 199 978 182 975 l 219 974 q 224 975 222 974 l 269 971 l 283 974 l 290 972 l 313 971 l 313 972 q 333 971 328 971 q 339 972 338 971 l 342 971 l 388 975 q 400 974 399 975 m 83 635 l 81 621 l 82 604 q 81 596 82 597 l 78 546 q 76 531 76 544 l 78 500 l 78 436 l 76 415 q 78 404 76 406 l 81 349 l 79 340 l 81 306 l 79 267 q 81 254 79 256 l 79 242 q 81 239 81 242 l 79 236 q 81 233 81 236 l 79 175 l 81 175 l 82 146 l 79 124 q 82 58 82 93 l 82 31 q 85 28 85 31 q 88 25 86 25 l 106 24 q 119 21 108 21 l 161 24 l 168 24 l 189 21 l 321 29 l 329 28 q 335 29 333 28 q 338 28 335 28 l 338 29 l 349 29 q 379 35 375 29 q 383 49 383 42 l 383 147 q 368 169 383 169 q 360 171 361 169 l 338 174 q 335 172 336 174 l 292 174 l 229 171 l 229 174 q 221 172 228 172 l 219 182 l 211 183 l 210 203 l 211 211 l 211 233 q 213 256 211 247 l 211 269 l 213 310 l 211 344 q 214 365 211 346 l 214 378 l 215 406 l 218 439 l 217 458 q 219 503 217 472 l 222 551 q 224 574 224 563 l 222 579 q 224 593 224 589 q 222 599 224 597 l 225 631 q 226 643 225 642 l 226 665 l 225 669 l 224 664 l 221 681 l 222 694 l 219 704 q 224 750 219 708 l 222 751 l 224 751 l 221 793 l 222 793 l 221 806 l 222 813 q 235 825 229 825 q 251 818 235 821 l 290 817 l 307 819 l 342 819 l 342 822 l 386 824 q 385 836 385 825 l 385 864 q 386 954 385 899 q 331 958 346 954 l 225 960 l 211 961 l 203 963 l 194 961 l 99 961 q 92 948 92 961 q 93 933 92 935 l 94 933 l 93 924 l 92 908 l 93 901 l 90 892 q 92 889 90 890 l 90 867 q 89 864 90 865 l 89 839 l 88 839 q 82 758 82 785 l 82 724 l 83 700 l 83 692 l 85 683 l 85 682 l 83 657 q 82 649 82 656 l 83 635 z "},"\\":{"ha":572,"x_min":7,"x_max":519,"o":"m 221 888 l 222 879 l 229 860 l 231 860 q 240 838 231 853 q 259 790 249 824 q 400 374 269 757 l 493 99 l 494 99 l 494 92 l 503 67 q 507 54 506 56 l 510 47 l 513 43 q 518 17 517 18 l 519 17 q 518 10 519 11 l 510 10 q 508 3 510 4 q 458 7 481 3 l 440 6 l 424 8 q 417 7 418 8 l 417 6 q 413 7 415 7 l 372 6 q 338 1 347 6 q 333 13 336 10 l 333 18 q 331 19 332 18 l 332 24 l 331 24 q 329 39 331 38 l 311 94 l 308 106 q 292 163 308 114 q 271 218 275 211 q 249 285 268 225 q 221 371 231 346 q 194 450 211 396 q 163 532 178 504 l 165 533 l 163 536 q 148 590 163 557 q 131 631 133 624 q 128 629 129 631 l 128 632 q 118 656 128 646 q 119 658 118 658 l 117 667 q 99 703 104 676 q 86 743 93 729 q 62 808 79 757 q 33 885 44 858 q 7 967 7 953 q 10 982 7 982 q 11 978 10 979 q 13 976 13 978 l 25 981 l 44 979 l 46 978 q 68 979 47 979 l 115 978 l 115 981 l 118 981 q 119 978 119 979 l 139 978 l 139 979 l 168 981 l 168 979 l 175 979 q 185 974 181 979 q 190 967 190 969 l 193 960 l 199 943 l 207 926 l 221 888 m 292 228 l 293 218 l 296 211 l 299 208 q 300 201 299 203 l 306 190 l 322 136 l 325 125 q 336 81 333 100 q 340 67 340 75 l 354 35 l 360 29 l 363 24 q 400 18 368 18 l 443 18 q 469 21 444 18 l 485 18 l 488 19 q 468 81 483 40 q 467 90 468 89 l 444 158 l 432 193 l 429 201 l 426 206 q 424 219 425 211 q 417 242 424 221 l 415 242 q 411 251 415 247 q 399 293 411 256 l 397 293 q 386 339 397 306 l 385 339 q 383 347 383 342 q 382 353 383 353 l 379 354 l 360 417 l 357 425 l 356 433 l 336 482 l 335 485 q 331 496 335 492 q 329 500 331 499 l 328 500 q 324 518 325 504 l 321 521 l 318 538 l 317 538 q 315 543 315 539 l 314 543 q 306 571 306 568 l 293 604 q 289 614 289 611 l 285 628 l 281 633 l 279 636 l 275 653 q 274 656 275 654 l 263 685 q 258 694 261 692 l 249 729 q 246 738 246 732 l 238 763 l 229 779 q 222 803 222 793 l 219 810 l 217 819 l 211 832 l 203 856 l 200 865 l 199 865 q 197 868 197 865 l 196 879 l 183 914 l 181 917 l 167 964 l 110 967 l 88 965 q 72 968 79 968 l 60 967 l 60 968 q 47 969 56 968 q 32 969 38 969 l 36 950 l 40 935 l 43 933 l 65 872 l 67 864 l 69 861 q 74 849 69 853 l 81 831 l 85 811 l 89 800 q 94 782 89 792 l 96 782 q 97 776 97 781 q 101 767 97 771 q 103 757 101 758 l 114 724 q 124 697 124 700 l 128 692 q 129 687 128 690 q 132 678 131 683 q 135 669 133 674 l 140 653 q 144 642 143 643 l 146 639 q 153 621 146 635 l 154 621 q 156 613 154 614 l 171 571 l 174 569 q 179 553 174 553 l 190 526 q 193 514 190 514 q 213 463 201 506 l 215 460 l 217 451 l 218 449 q 222 435 222 449 l 239 389 l 242 381 l 243 381 q 244 374 243 375 l 246 374 q 247 364 246 365 l 250 358 l 257 338 l 268 294 l 274 285 l 272 282 q 275 281 275 282 l 283 249 l 286 240 l 289 231 l 292 228 z "},"]":{"ha":446,"x_min":33,"x_max":390,"o":"m 39 978 l 43 974 q 56 975 44 975 l 101 971 l 104 972 q 110 971 106 971 q 131 972 115 971 l 131 971 l 153 972 l 160 974 l 174 971 l 219 975 q 224 974 221 974 l 244 978 q 272 975 261 975 q 285 976 283 975 l 357 981 l 357 979 q 365 978 358 978 l 365 975 q 373 972 372 975 q 374 954 374 968 q 382 850 382 954 l 382 725 l 381 400 l 390 179 l 385 118 q 388 97 385 117 l 388 78 q 389 75 388 75 l 388 75 l 388 14 q 387 6 388 11 q 386 -1 386 0 q 375 1 381 1 l 375 0 q 349 1 365 0 l 343 0 l 325 1 l 321 1 q 304 3 318 3 l 288 1 q 81 0 96 1 l 81 1 l 63 -1 l 63 0 l 57 1 q 49 0 56 0 q 42 1 43 0 l 40 7 l 39 6 l 36 21 q 38 28 38 22 l 36 28 q 38 31 38 29 l 40 61 q 42 72 42 67 q 39 90 42 76 l 39 106 l 42 121 l 40 128 l 40 172 l 44 185 q 50 183 49 185 l 67 186 l 82 185 q 154 190 126 185 l 182 196 q 192 197 183 197 l 194 228 q 193 231 193 228 l 194 260 q 193 267 193 261 l 197 267 l 196 315 q 197 319 196 318 l 196 319 l 197 321 q 196 372 196 322 q 200 473 196 421 q 204 551 204 525 l 203 626 l 204 697 l 199 771 l 199 800 q 197 808 199 807 l 135 808 l 124 811 l 93 811 l 65 813 q 44 810 64 813 q 42 817 43 813 q 35 828 38 828 q 39 835 35 833 l 39 857 l 36 857 l 36 921 l 33 957 q 39 978 33 972 m 240 963 l 232 961 l 218 960 l 113 958 q 57 954 97 954 q 58 864 58 899 l 58 836 q 57 824 58 825 l 101 822 l 101 819 l 136 819 l 153 817 l 192 818 q 208 825 208 821 q 222 806 218 825 l 221 793 l 222 793 l 219 751 l 221 751 l 219 750 q 224 704 224 708 l 221 694 l 222 681 l 219 664 l 218 669 l 217 665 l 217 643 q 218 631 218 642 l 221 599 q 219 593 219 597 q 221 579 219 589 l 219 574 q 221 551 219 563 l 224 503 q 225 471 225 492 l 225 439 l 228 406 l 229 378 l 229 365 q 232 344 232 346 l 231 310 l 231 233 q 233 203 231 219 l 232 183 l 224 182 l 222 172 q 214 174 215 172 l 214 171 l 151 174 l 108 172 q 106 174 107 174 l 83 171 q 75 169 82 169 q 60 147 60 169 l 60 49 q 68 33 60 35 q 81 30 76 31 q 94 29 86 29 l 106 29 l 106 28 q 108 29 108 28 q 114 28 110 28 l 122 29 l 254 21 l 275 24 l 282 24 l 324 21 q 338 24 335 21 l 356 25 q 359 28 358 26 q 361 31 360 31 l 361 58 q 364 124 361 93 l 361 146 l 363 175 l 364 175 l 363 233 q 364 236 363 236 l 363 239 q 364 242 363 242 l 363 254 q 364 267 364 256 l 363 306 l 364 340 l 363 349 l 365 404 q 367 415 367 406 l 365 436 l 365 500 l 367 531 q 365 546 367 544 l 363 596 q 361 604 361 597 l 363 621 q 360 635 360 624 q 360 651 360 646 q 360 657 361 656 l 358 682 l 358 683 l 361 718 l 361 739 q 356 839 361 785 l 354 839 l 354 864 q 353 867 353 865 l 351 889 q 353 892 353 890 l 350 901 l 351 908 l 350 924 l 349 933 l 350 933 q 351 948 351 935 q 344 961 351 961 l 247 961 q 240 963 244 961 z "},"^":{"ha":611,"x_min":15,"x_max":569,"o":"m 214 882 q 220 890 214 889 q 228 893 226 892 l 239 904 q 256 925 247 924 l 263 938 l 285 965 l 300 965 l 311 954 l 331 926 q 342 911 342 918 l 361 890 l 364 890 l 372 882 l 386 875 l 385 874 l 394 863 l 403 857 l 404 854 l 424 835 q 464 788 449 803 l 483 767 q 529 726 496 756 l 550 704 l 569 688 l 550 685 l 547 678 l 549 676 l 538 668 l 532 669 q 505 663 522 669 q 486 657 488 657 l 482 657 l 476 661 l 465 663 l 392 660 q 376 661 378 660 q 369 660 375 660 l 357 661 l 344 658 l 340 658 q 333 665 339 660 q 321 675 326 669 q 306 696 306 690 l 292 706 l 276 694 q 253 662 258 664 q 246 658 247 660 l 242 658 q 210 663 219 658 l 190 660 l 121 663 l 107 661 l 103 657 l 99 657 q 71 665 96 657 l 54 669 l 51 668 q 41 673 46 668 q 36 681 36 678 l 33 685 l 15 688 l 56 726 q 161 835 121 788 l 182 857 q 190 863 186 861 l 190 865 l 200 875 l 207 878 q 214 882 207 881 m 339 700 q 353 685 339 694 l 364 685 q 374 686 372 685 l 376 686 q 396 685 386 685 l 410 685 q 429 686 411 686 l 493 686 l 493 683 l 525 694 l 514 706 q 406 818 467 749 l 400 826 q 397 828 399 826 l 372 850 l 372 847 l 346 871 q 342 873 343 871 q 339 878 342 875 q 326 890 333 881 l 292 924 l 289 919 l 269 896 q 243 875 260 886 l 233 865 l 235 864 l 213 847 l 213 849 l 201 842 l 190 829 l 188 829 q 72 706 174 807 l 60 694 q 92 683 63 694 l 92 686 l 156 686 q 175 685 174 686 l 188 685 q 210 686 199 685 l 213 686 q 221 685 214 685 l 233 685 q 249 704 240 690 q 278 729 275 728 l 293 743 l 306 729 q 324 719 307 729 l 339 700 z "},"_":{"ha":903,"x_min":67,"x_max":858,"o":"m 853 -106 q 858 -128 856 -122 q 857 -164 858 -161 l 858 -203 q 851 -211 851 -210 l 847 -211 q 842 -208 844 -208 q 835 -207 839 -208 l 832 -208 q 772 -204 775 -204 l 767 -208 q 760 -207 764 -206 l 756 -206 l 736 -206 l 732 -208 q 728 -210 732 -210 l 714 -207 q 703 -208 713 -208 l 669 -208 q 665 -211 667 -211 l 663 -208 l 642 -207 l 633 -208 l 565 -207 q 550 -206 558 -206 q 528 -204 532 -208 l 514 -206 q 506 -204 508 -204 l 506 -206 l 460 -203 l 415 -203 q 356 -204 379 -203 l 285 -208 l 271 -208 q 251 -210 260 -210 l 240 -208 l 151 -208 l 138 -207 l 135 -208 l 79 -212 l 75 -211 l 72 -203 q 71 -197 71 -201 l 74 -197 l 72 -164 q 74 -144 74 -154 l 74 -136 q 68 -101 74 -124 q 69 -85 69 -99 l 68 -67 q 67 -61 67 -67 l 68 -61 q 72 -44 72 -57 q 78 -54 78 -50 q 82 -53 81 -54 l 85 -56 l 119 -56 l 138 -53 q 185 -50 157 -50 l 293 -53 l 317 -56 l 425 -56 l 629 -50 l 738 -53 l 756 -54 q 779 -56 757 -56 l 793 -57 q 832 -56 829 -57 q 849 -57 833 -57 l 851 -75 q 853 -82 851 -81 l 853 -106 m 840 -132 l 844 -82 l 836 -72 l 831 -72 q 809 -74 825 -74 q 792 -72 793 -74 l 768 -72 q 753 -69 767 -72 l 719 -69 q 703 -69 713 -69 l 629 -67 l 501 -68 q 492 -67 493 -68 l 486 -67 l 475 -68 q 417 -67 474 -68 q 343 -71 360 -67 l 333 -69 q 319 -72 331 -72 q 308 -69 308 -72 l 179 -68 l 111 -72 q 90 -67 96 -72 l 90 -76 q 85 -100 90 -89 q 89 -154 89 -110 l 85 -192 l 97 -194 l 100 -193 l 136 -192 q 144 -193 138 -193 l 290 -190 q 294 -190 292 -190 q 301 -190 296 -189 l 458 -186 q 464 -187 461 -186 q 468 -187 467 -187 l 460 -192 l 483 -187 l 504 -187 l 550 -190 l 642 -190 q 656 -192 647 -190 q 667 -193 664 -193 l 665 -192 l 703 -192 q 714 -190 713 -192 l 724 -193 q 732 -189 728 -193 l 751 -190 q 760 -190 758 -189 q 768 -190 763 -190 q 781 -189 774 -189 l 842 -192 q 844 -193 843 -192 l 846 -190 q 840 -132 840 -178 m 351 -187 l 356 -187 l 351 -187 z "},"`":{"ha":354,"x_min":18,"x_max":371,"o":"m 43 899 q 57 906 53 906 l 61 906 q 89 931 71 913 l 89 938 q 97 950 89 949 l 125 985 l 136 971 q 156 958 140 971 l 153 956 q 178 932 171 940 l 190 919 l 193 919 l 200 913 l 211 907 l 210 904 l 244 872 q 285 822 275 832 q 318 792 296 811 q 371 744 340 772 l 356 743 q 353 739 356 742 q 353 735 351 736 l 343 726 l 338 729 q 299 718 304 718 l 293 717 l 290 721 l 281 722 q 214 719 281 722 q 203 722 210 721 q 171 719 189 719 q 138 756 151 742 q 113 781 124 769 q 94 799 103 792 l 40 850 q 36 849 39 849 q 31 848 33 849 q 24 854 28 847 l 18 861 l 26 868 l 22 878 l 21 893 l 35 889 q 43 896 36 893 l 43 899 m 185 742 q 200 743 199 742 l 281 743 l 308 742 q 332 750 314 744 q 253 828 268 808 q 229 858 238 847 l 199 886 l 199 883 l 161 919 q 132 947 136 940 q 97 908 119 928 q 64 878 75 889 l 51 867 q 103 821 68 853 l 158 771 l 176 750 l 182 742 l 185 742 z "},"a":{"ha":661,"x_min":31,"x_max":601,"o":"m 596 111 q 601 22 601 64 q 586 0 601 7 q 478 6 536 6 q 399 0 419 6 q 389 19 389 13 q 392 38 389 25 q 394 56 394 50 q 353 33 378 49 q 256 -1 301 -1 q 85 95 139 -1 q 31 340 31 192 q 50 511 31 440 l 69 565 q 253 688 196 688 l 268 692 q 401 654 372 689 q 403 667 403 656 l 403 682 q 406 700 403 686 q 585 688 464 688 q 588 691 586 688 q 592 694 589 694 q 601 653 601 694 q 600 576 601 611 q 596 501 599 540 q 592 422 593 463 l 592 394 l 590 319 l 590 257 q 596 113 590 174 l 596 111 m 586 419 l 585 528 l 590 647 q 583 671 590 668 q 581 665 581 671 q 574 658 581 658 q 547 667 567 658 q 500 653 529 653 q 429 668 471 653 q 425 653 428 664 q 411 624 419 632 q 383 645 404 628 q 353 663 363 663 l 354 667 q 340 673 354 669 q 313 676 325 676 q 210 663 226 676 q 161 625 193 649 q 79 543 96 576 q 56 408 56 501 q 60 272 56 315 q 76 175 64 228 q 193 43 103 68 q 210 38 197 43 q 242 33 222 33 q 299 42 261 33 q 342 58 336 51 q 344 55 344 58 q 346 51 344 51 q 407 96 404 94 q 408 82 408 94 l 404 36 q 426 19 404 19 l 544 28 q 586 24 565 28 q 583 247 583 179 l 586 419 m 389 242 l 381 207 l 382 207 l 382 217 q 358 203 376 214 q 296 185 326 185 q 222 231 265 185 q 178 333 178 276 q 198 444 178 389 q 248 511 218 499 q 375 526 278 524 q 417 426 417 507 q 389 242 417 346 m 394 386 l 394 401 q 313 499 394 499 q 237 468 264 499 q 210 385 210 438 q 233 249 210 294 q 322 200 257 203 q 393 369 382 258 q 394 386 394 372 z "},"b":{"ha":644,"x_min":33,"x_max":607,"o":"m 339 703 l 347 701 q 413 703 357 703 q 498 694 469 703 q 546 656 526 686 q 597 471 579 606 q 607 386 607 410 q 584 176 607 263 q 499 43 561 90 q 422 7 476 25 q 349 -11 367 -11 q 308 0 331 -11 q 233 53 281 14 q 231 40 231 50 l 236 1 q 216 -6 228 -6 q 198 -3 204 -6 q 192 -1 192 0 l 192 -4 q 192 -7 192 -6 q 181 -11 193 -8 q 100 -18 151 -18 q 35 4 49 -18 l 33 299 l 49 750 q 56 957 49 846 l 56 960 q 51 964 56 963 q 47 971 47 965 l 67 990 q 72 985 71 990 q 75 979 72 979 l 85 979 l 199 975 q 217 976 215 975 q 233 899 233 953 q 239 795 233 846 q 244 718 244 744 l 242 721 l 242 718 l 243 699 q 240 682 243 696 q 253 681 242 681 l 339 703 m 561 469 l 564 531 q 545 624 564 583 q 481 665 526 665 l 421 663 l 339 668 q 235 640 307 668 q 224 802 225 694 q 215 963 222 910 q 200 967 210 967 l 183 967 l 185 963 q 117 949 142 949 l 79 953 q 78 947 78 953 q 75 940 78 940 l 75 933 q 65 892 65 908 q 69 889 68 889 q 61 814 61 826 l 61 800 l 64 783 q 72 708 72 733 q 68 682 72 682 q 63 685 65 685 q 47 274 51 685 l 49 275 q 51 254 51 275 l 44 113 q 53 53 44 81 q 56 65 53 57 l 54 82 q 57 94 57 90 q 68 15 57 31 q 199 19 128 15 q 211 6 206 6 q 222 40 222 6 q 213 89 222 75 q 229 100 218 94 q 238 79 236 94 q 281 53 254 71 q 365 8 342 8 q 451 45 406 8 q 531 155 496 82 q 569 254 565 228 l 569 265 l 561 463 l 561 469 m 231 518 l 228 506 q 235 505 228 499 q 244 513 243 511 q 249 522 246 515 q 254 529 253 528 q 312 528 269 528 q 378 521 354 528 q 417 493 401 514 q 443 433 436 461 q 450 331 450 404 q 412 199 450 257 q 315 142 374 142 q 236 195 257 142 q 215 368 215 249 l 219 433 q 213 479 219 454 q 217 494 217 483 q 218 513 217 506 q 228 521 219 521 q 231 518 231 521 m 431 372 q 402 474 431 438 q 330 511 374 511 q 269 501 286 511 q 236 335 236 482 q 261 210 236 242 q 290 182 271 196 q 322 168 310 168 q 340 174 333 168 q 358 192 347 179 q 372 207 369 204 q 431 372 431 274 z "},"c":{"ha":614,"x_min":38,"x_max":594,"o":"m 440 283 l 501 279 q 535 283 518 279 l 538 282 q 541 288 540 282 q 556 294 542 294 q 578 287 569 294 q 586 223 586 279 q 569 92 586 167 q 511 -1 551 18 q 415 -19 478 -19 l 311 -14 l 256 -17 q 200 -3 232 -17 q 129 40 151 18 q 55 173 72 81 q 38 404 38 265 q 93 671 38 638 q 111 676 99 674 q 133 681 124 678 q 162 695 142 683 q 202 713 182 707 q 254 718 222 718 q 328 707 286 718 q 385 704 343 704 q 444 699 426 704 q 522 661 500 686 q 554 597 543 636 q 575 531 565 558 q 594 447 594 478 q 573 407 594 415 q 507 399 551 399 l 406 408 l 388 407 q 303 493 357 493 q 247 462 271 493 q 222 397 222 431 l 226 319 l 224 290 q 265 224 224 247 q 344 201 306 201 q 401 231 383 201 q 401 245 401 233 q 413 270 400 257 q 440 283 426 283 m 547 176 l 558 172 l 558 174 q 560 176 560 175 l 561 232 l 561 247 q 440 256 506 247 q 438 242 439 251 q 433 228 436 233 q 372 185 419 206 q 292 164 325 164 q 239 189 260 164 q 213 267 213 222 l 213 271 l 204 361 q 237 488 204 436 q 326 540 269 540 q 394 458 360 540 l 408 426 q 454 438 435 438 l 511 435 q 565 438 518 435 q 564 515 565 493 q 547 574 563 538 q 500 642 532 610 q 488 655 497 644 q 472 669 478 665 q 435 692 457 686 q 354 697 414 697 q 258 693 294 697 q 140 669 165 683 q 99 633 115 654 q 74 578 83 613 q 60 522 65 544 q 53 452 56 500 q 51 392 51 404 l 51 332 q 290 1 51 1 q 483 31 418 1 q 549 139 549 60 q 544 176 549 156 l 547 176 z "},"d":{"ha":643,"x_min":13,"x_max":607,"o":"m 542 4 l 531 6 l 511 6 q 474 -1 511 0 q 432 -4 438 -3 q 422 -7 426 -6 q 415 -9 418 -8 q 410 -10 413 -10 q 407 -11 408 -11 l 406 -11 q 399 10 401 -11 l 397 56 q 399 68 397 67 q 389 47 393 63 q 372 17 385 31 q 283 -10 339 -10 q 191 -2 228 -10 q 154 15 154 6 q 156 19 154 18 q 55 151 97 56 q 13 342 13 247 q 135 683 13 617 q 207 703 139 688 q 299 718 275 718 q 403 689 322 718 q 401 696 401 690 q 408 768 401 701 q 415 885 415 835 q 400 990 415 936 l 435 997 q 507 990 463 997 q 572 982 551 982 q 597 990 592 982 q 607 997 601 997 q 606 853 606 932 q 597 574 606 774 q 588 267 588 375 l 588 201 l 594 74 q 590 4 594 38 q 573 12 583 4 q 551 19 563 19 q 549 11 550 18 q 542 4 549 4 m 410 672 l 383 668 q 344 678 369 668 q 301 688 318 688 q 229 675 283 688 q 208 681 219 681 q 90 595 139 681 q 40 385 40 510 q 56 284 40 336 q 76 217 72 232 q 135 81 100 121 q 257 42 171 42 q 335 64 301 42 q 383 90 369 86 q 399 107 392 107 q 410 94 410 103 q 406 81 410 86 q 415 32 415 69 q 463 25 440 25 q 579 32 485 25 q 578 110 578 58 l 578 188 l 590 967 l 501 979 l 485 978 l 483 978 q 453 969 469 978 q 433 940 436 961 q 422 708 429 919 l 424 681 q 423 672 424 678 q 422 665 422 667 q 410 672 415 672 m 422 265 l 417 269 q 414 268 414 269 q 382 176 408 215 q 316 138 356 138 q 253 163 276 138 q 217 218 231 189 q 201 256 203 247 q 199 276 200 264 q 197 299 199 289 q 179 401 179 368 q 222 507 179 461 q 332 561 265 553 l 343 561 q 416 527 399 561 q 433 379 433 493 q 422 265 433 265 m 410 357 q 410 388 410 361 q 408 436 410 414 q 401 489 407 458 q 340 547 390 547 q 242 501 289 547 q 194 372 194 454 q 233 231 194 290 q 329 171 272 171 q 410 357 410 171 z "},"e":{"ha":617,"x_min":36,"x_max":585,"o":"m 353 343 l 322 349 l 279 346 q 226 358 250 346 q 238 299 232 339 q 247 235 243 260 q 270 189 251 210 q 322 168 289 168 q 411 281 403 168 q 553 275 450 275 q 571 281 565 275 l 572 188 q 546 64 572 96 q 450 6 514 31 q 321 -18 386 -18 q 109 72 182 -18 q 36 299 36 161 l 36 397 q 113 656 36 581 q 196 695 135 678 q 329 713 257 713 q 465 684 401 713 q 543 614 529 656 q 550 593 547 607 q 567 556 556 563 q 585 410 585 443 q 579 361 585 378 q 496 338 556 338 l 360 346 l 353 343 m 207 379 l 218 378 q 232 390 225 378 q 247 383 239 383 l 285 388 q 328 381 300 388 q 360 375 356 375 l 535 365 q 556 367 553 365 q 567 446 567 397 q 463 664 567 611 q 313 685 425 685 q 108 614 175 685 q 62 533 81 586 q 43 408 43 481 q 99 142 43 256 q 235 21 154 29 q 344 17 272 17 q 446 26 417 17 q 507 76 475 36 q 556 264 556 150 q 508 267 519 267 l 458 267 q 436 268 446 267 q 410 201 419 217 q 388 165 400 185 q 315 131 365 131 q 230 185 264 131 q 196 308 196 239 q 207 379 196 338 m 324 581 l 344 582 q 367 574 353 582 q 387 567 381 567 q 394 568 393 567 q 442 479 442 514 q 435 457 442 472 q 426 442 428 442 q 417 449 424 442 q 378 443 407 443 q 302 452 350 443 q 238 461 254 461 q 219 446 222 461 q 214 451 218 447 q 203 472 203 460 l 207 511 q 206 525 207 524 q 221 544 214 533 l 236 567 q 279 593 256 593 l 324 581 m 385 485 l 413 483 q 397 544 413 524 q 342 564 382 564 q 266 550 301 564 q 231 515 231 536 q 235 498 231 510 q 239 478 239 486 q 290 479 240 479 q 356 478 340 479 q 357 481 357 479 q 356 482 356 481 l 356 485 q 375 479 374 481 q 385 485 375 485 z "},"f":{"ha":526,"x_min":4,"x_max":528,"o":"m 386 751 l 354 753 q 308 731 326 750 q 290 688 290 711 q 300 647 290 665 q 399 651 324 650 q 510 665 475 653 q 515 640 513 640 q 500 483 513 525 l 485 483 l 365 471 q 310 486 333 471 q 301 334 304 435 q 296 207 297 233 q 285 83 285 92 q 301 8 285 22 q 291 -1 297 -1 q 242 2 285 -1 q 101 6 200 6 q 97 31 97 11 l 101 90 l 97 235 l 106 326 l 99 456 q 13 467 21 467 l 10 506 l 10 613 q 4 664 10 649 q 10 681 10 676 q 31 675 17 679 q 88 664 63 664 q 103 726 97 679 q 124 808 108 772 q 157 863 140 843 q 185 888 174 882 q 210 900 196 894 q 235 915 225 906 q 258 924 246 924 q 294 939 269 924 q 330 954 319 954 q 340 949 340 954 l 339 947 q 451 963 440 963 q 476 963 463 963 q 497 962 489 963 q 513 954 506 961 q 521 933 521 947 l 519 871 q 528 775 519 817 q 386 751 442 751 m 250 74 l 249 99 q 259 276 249 160 q 269 454 269 392 l 269 500 q 293 508 276 507 q 314 510 310 508 q 318 506 318 508 l 318 503 q 383 497 318 497 q 483 514 447 497 l 488 547 q 496 644 494 640 q 481 642 482 642 q 399 647 424 647 l 311 635 l 288 638 q 278 684 278 656 q 301 739 278 713 q 357 765 325 765 l 389 764 q 507 785 435 764 q 510 884 510 832 q 503 942 510 936 q 475 947 497 947 q 412 935 453 947 q 350 924 371 924 l 321 926 q 267 910 286 924 q 233 885 249 897 q 211 867 218 872 q 229 885 215 874 q 244 904 243 897 q 128 731 128 850 l 128 718 q 190 842 142 793 q 124 649 133 767 l 119 644 l 115 646 q 101 639 111 646 q 77 633 92 632 q 58 635 63 635 q 21 581 21 635 l 26 499 l 50 499 q 118 522 108 499 q 128 492 118 501 q 124 464 124 478 l 133 365 l 128 293 q 144 56 128 163 q 143 39 144 42 q 199 30 164 32 q 244 26 233 28 q 250 74 250 44 z "},"g":{"ha":649,"x_min":1,"x_max":613,"o":"m 596 614 l 592 436 q 601 317 592 392 q 613 215 611 242 q 599 -99 613 68 q 528 -252 590 -203 q 375 -301 467 -301 q 164 -253 219 -301 q 131 -231 147 -239 q 90 -200 106 -219 q 31 -61 36 -128 q 129 -53 43 -58 q 233 -49 215 -49 q 257 -104 233 -83 q 317 -125 281 -125 q 376 -97 353 -125 q 399 -19 399 -68 l 399 -4 q 397 10 399 8 q 281 -33 311 -33 q 147 -7 218 -33 q 51 63 75 19 q 1 329 1 143 q 18 474 1 415 q 81 586 35 532 q 101 617 85 590 q 132 657 117 644 q 270 701 188 701 q 396 665 353 701 q 397 689 397 668 l 397 718 l 403 721 q 493 706 418 706 l 564 708 q 596 678 596 708 l 596 614 m 49 318 l 38 210 q 111 66 38 124 q 250 8 185 8 q 314 19 290 8 q 360 40 338 29 q 396 57 383 51 q 408 24 397 47 q 419 -19 419 0 q 390 -117 419 -75 q 324 -160 361 -160 q 256 -136 286 -160 q 218 -79 226 -112 q 149 -69 193 -69 q 71 -75 106 -69 q 125 -192 76 -158 q 206 -231 161 -218 q 265 -251 250 -244 q 401 -285 335 -285 q 503 -255 468 -285 q 563 -144 538 -225 q 589 39 589 -64 l 578 233 l 579 374 l 579 411 q 567 503 579 440 q 554 599 554 567 l 560 674 q 559 682 560 676 q 558 692 558 688 q 524 689 536 689 l 425 694 q 411 682 411 694 l 419 638 q 411 631 413 638 q 407 622 410 624 q 296 669 393 669 l 222 658 q 102 566 156 658 q 49 354 49 474 l 49 318 m 257 532 l 275 547 q 389 513 322 543 q 417 421 403 499 q 428 375 422 396 q 438 310 438 339 q 408 182 438 228 q 301 136 379 136 q 205 215 251 136 q 158 369 158 294 q 246 533 158 481 l 257 532 m 326 161 l 331 161 q 390 235 367 168 q 413 333 413 301 q 377 472 413 418 q 288 525 342 525 q 222 472 247 525 q 196 345 196 418 q 228 217 196 272 q 326 161 260 161 z "},"h":{"ha":622,"x_min":38,"x_max":581,"o":"m 581 486 l 579 417 q 569 242 579 361 q 560 74 560 122 l 560 51 q 563 29 560 49 q 568 28 564 28 q 576 18 576 25 q 468 -11 528 -4 q 393 -22 408 -18 l 393 -19 q 416 -6 393 -8 q 443 1 439 -3 q 420 7 438 7 q 392 0 403 7 q 386 11 386 6 q 392 26 386 17 q 397 137 397 69 q 392 251 397 204 q 383 324 386 299 q 378 360 381 349 q 372 394 376 372 q 362 426 368 415 q 347 449 356 436 q 326 467 339 461 q 297 472 314 472 q 268 458 281 472 q 249 417 256 444 q 237 363 242 389 q 231 294 232 338 q 228 165 228 211 l 236 83 l 231 47 q 235 35 231 42 q 230 26 233 32 q 225 15 226 19 q 207 4 219 4 l 108 10 l 85 10 q 40 68 40 10 l 43 183 l 42 243 l 42 281 l 39 365 q 43 473 39 393 q 47 650 47 553 l 54 801 q 43 944 54 831 q 38 982 38 961 q 60 1019 38 1003 q 103 1013 72 1013 q 201 1006 181 1006 q 224 1008 221 1006 q 227 1014 226 1010 q 231 1021 228 1018 q 238 996 238 1021 l 238 958 l 251 685 l 247 683 q 240 689 246 683 l 240 654 q 318 669 267 657 q 401 683 369 682 l 435 676 q 464 674 440 675 q 531 658 514 671 q 556 626 547 644 q 569 593 565 608 q 581 486 581 561 m 75 739 l 63 314 q 67 137 63 222 q 72 50 72 51 q 141 38 93 38 q 204 42 189 38 q 203 78 203 54 l 203 115 q 215 383 203 183 l 215 406 q 240 466 215 435 q 289 497 264 497 q 332 489 314 497 q 360 469 350 481 q 375 433 369 457 q 389 346 383 404 q 408 89 408 260 l 408 57 q 406 26 408 46 q 469 31 436 31 q 544 25 501 31 q 554 307 554 103 l 554 404 q 549 458 554 428 q 542 517 544 489 q 537 555 540 546 q 528 572 533 564 q 515 588 522 579 q 489 620 507 597 q 451 654 471 643 q 398 665 431 665 q 350 663 365 665 q 318 655 335 661 q 294 646 301 649 q 265 631 286 643 q 236 617 243 619 q 222 633 225 632 q 226 805 226 663 q 224 978 226 947 q 144 984 192 978 q 82 992 97 990 q 64 936 64 992 l 64 918 l 75 739 z "},"i":{"ha":288,"x_min":39,"x_max":253,"o":"m 79 707 l 157 699 q 249 701 246 699 q 251 588 251 626 l 238 85 l 238 39 q 243 30 239 36 q 247 18 247 24 q 186 3 247 3 l 165 3 l 57 6 q 50 -2 51 4 q 46 -8 49 -8 q 39 32 39 -8 l 39 82 q 60 613 39 276 l 60 681 q 57 703 60 689 q 79 707 65 707 m 114 36 l 210 35 l 221 35 q 226 326 222 99 q 238 681 231 554 q 213 679 228 679 l 188 679 q 82 685 119 679 q 71 617 71 660 q 66 543 71 575 q 59 421 61 511 q 53 287 57 331 q 50 182 50 243 q 53 43 50 121 l 58 42 q 68 39 60 42 q 114 36 82 36 m 44 1000 l 211 990 l 228 990 q 244 992 242 990 q 243 976 243 990 l 243 957 q 253 814 243 894 q 247 803 247 811 q 244 790 247 794 q 240 797 240 790 l 240 806 q 233 810 240 810 q 82 793 82 810 q 74 797 78 797 l 71 797 q 58 851 64 797 q 51 937 51 904 q 56 982 51 969 q 50 991 56 988 q 44 1000 44 994 m 182 986 l 183 978 q 131 968 183 968 q 76 969 78 968 l 74 956 q 76 928 75 942 q 79 905 78 914 q 81 892 81 896 q 89 859 83 892 q 94 815 94 826 l 119 817 l 175 815 q 238 824 215 815 q 224 942 224 907 q 225 979 224 978 q 188 986 215 986 l 182 986 z "},"j":{"ha":283,"x_min":-203,"x_max":256,"o":"m 240 688 l 238 647 q 251 492 238 600 q 256 392 256 444 l 249 164 q 232 -93 249 -19 l 224 -118 q 192 -188 204 -178 q 172 -199 181 -199 q 146 -215 163 -199 q 121 -219 144 -219 q 47 -233 97 -219 q -22 -250 -3 -247 l -39 -243 q -123 -256 -101 -256 q -146 -254 -144 -256 l -169 -257 q -178 -260 -175 -257 q -183 -244 -183 -256 l -183 -233 q -193 -192 -183 -219 q -203 -150 -203 -165 l -194 -115 q -189 -86 -194 -103 l -183 -64 q -15 -44 -62 -61 q 32 25 32 -26 l 31 51 l 46 204 l 49 322 q 44 576 49 482 q 39 690 39 669 q 47 714 39 710 l 194 697 q 221 706 221 697 l 221 710 q 228 713 221 713 q 240 688 240 703 m 61 396 l 60 307 q 54 108 54 172 q 60 29 54 44 q 43 -6 47 19 q 35 -36 39 -31 q -69 -78 15 -62 q -171 -101 -153 -93 q -176 -168 -176 -136 q -175 -211 -176 -200 q -162 -233 -174 -222 q -132 -243 -150 -243 q -103 -242 -114 -243 q -81 -238 -92 -240 q -41 -229 -71 -236 q 33 -212 -11 -222 q 97 -192 76 -201 q 130 -167 117 -183 q 153 -142 143 -150 q 167 -135 157 -139 q 181 -126 178 -131 q 226 282 226 -78 q 215 686 226 360 q 185 682 206 682 l 68 690 q 61 686 65 690 l 58 690 q 68 576 68 615 l 60 458 l 60 436 l 61 422 q 61 396 61 408 m 175 801 l 63 793 q 51 794 58 793 q 42 794 44 794 q 42 835 43 797 q 42 938 42 872 q 54 1004 42 1004 q 60 995 58 1004 q 72 986 61 986 q 139 995 83 986 q 224 1004 194 1004 q 233 946 231 988 q 236 894 235 904 q 228 863 228 886 q 240 818 228 839 q 227 813 238 813 q 215 811 217 813 q 219 797 215 807 q 175 801 197 801 m 86 819 l 172 818 q 221 824 200 818 q 213 908 215 849 q 204 992 210 967 q 200 994 203 992 q 129 980 178 981 q 60 971 81 979 l 60 956 l 64 833 l 64 819 l 86 819 z "},"k":{"ha":604,"x_min":40,"x_max":631,"o":"m 247 10 l 250 -8 q 249 -14 250 -12 q 172 3 192 3 q 129 -4 153 3 q 62 0 72 0 q 50 -1 51 0 q 40 296 40 139 q 50 551 46 469 q 61 1010 61 936 q 144 1013 76 1011 q 236 1019 213 1015 q 254 1011 239 1011 q 246 968 246 989 q 258 557 246 710 q 392 726 357 678 q 415 725 401 725 l 511 725 q 596 721 567 725 q 571 665 592 690 q 542 628 550 639 q 519 588 535 617 q 457 503 489 526 q 425 453 449 486 q 394 403 401 421 q 489 238 467 276 q 526 172 511 199 q 550 128 540 144 q 567 98 560 111 q 578 77 574 85 q 585 65 583 69 q 591 57 588 61 q 601 46 594 53 l 614 33 q 621 12 614 21 q 631 -3 628 3 q 606 -6 611 -6 l 581 -6 l 442 0 l 417 0 q 394 -3 414 0 q 265 232 356 60 q 256 151 256 206 l 257 60 l 257 25 q 253 18 257 19 q 247 10 247 15 m 229 519 l 215 1006 q 78 997 111 1003 q 82 885 82 939 q 71 510 71 667 q 79 250 71 353 q 88 90 88 147 l 88 56 q 86 21 88 33 q 154 18 111 18 l 207 18 q 218 19 208 19 q 243 325 218 242 q 326 189 281 276 q 378 90 372 101 q 392 61 385 78 q 419 19 408 24 q 464 10 432 10 l 567 18 q 604 14 586 18 q 550 107 588 44 q 494 204 513 169 l 378 392 q 372 386 375 392 q 368 381 369 381 l 365 383 q 412 472 374 426 q 463 536 450 518 q 583 710 542 679 q 515 714 550 714 l 399 711 q 358 644 360 644 q 356 646 356 644 q 344 632 344 642 l 290 544 q 253 496 264 503 q 232 488 242 489 q 228 490 232 490 q 229 519 229 492 z "},"l":{"ha":286,"x_min":25,"x_max":242,"o":"m 235 114 q 242 7 235 114 l 242 -1 l 201 0 l 99 -3 l 74 -3 q 50 0 69 -3 q 42 288 50 92 q 33 589 33 483 l 42 875 l 42 924 q 39 976 42 940 q 32 982 39 981 q 25 989 25 983 q 39 997 31 989 q 54 1022 54 1013 l 56 1022 q 63 1011 58 1022 l 76 1011 l 197 1000 q 233 1006 224 1000 q 239 978 239 996 l 235 735 l 239 522 l 239 386 l 242 214 l 233 129 q 235 114 233 115 m 58 388 l 63 99 q 62 57 63 85 q 61 15 61 29 q 158 31 118 31 q 228 28 197 31 q 219 456 219 201 l 219 626 q 215 985 219 863 q 183 979 206 979 q 126 989 160 979 q 82 999 93 999 q 61 993 71 999 q 68 817 68 968 l 60 618 l 61 529 l 58 388 z "},"m":{"ha":950,"x_min":33,"x_max":904,"o":"m 250 646 q 396 682 340 682 q 539 632 489 682 q 565 647 542 633 q 599 665 589 661 q 631 678 608 669 q 715 693 665 693 q 801 681 764 693 q 878 643 869 660 q 904 428 904 521 l 904 393 q 895 276 903 365 q 888 140 888 186 l 890 64 l 883 13 q 890 8 883 10 q 896 0 896 6 q 799 -9 868 -6 q 713 -17 731 -12 q 717 122 717 96 l 714 207 l 717 308 q 693 412 717 369 q 622 454 669 454 q 590 447 611 454 q 569 271 569 383 l 575 49 l 574 -1 l 549 0 l 444 -4 l 428 -4 q 404 2 417 -4 q 383 10 392 8 q 399 193 399 76 q 363 439 399 310 q 317 456 346 456 q 269 444 289 456 q 242 406 250 432 q 228 283 228 367 l 233 147 l 229 50 q 233 7 229 25 q 200 -1 222 -1 l 150 0 q 91 -9 126 0 q 53 -18 56 -18 q 46 15 46 -12 q 39 44 46 42 q 40 58 40 46 l 40 72 l 33 293 q 35 644 33 589 q 44 700 36 700 q 58 688 46 700 q 246 681 92 683 q 250 663 250 675 l 250 646 m 564 260 l 561 322 l 561 404 q 568 448 561 438 q 601 469 575 458 q 644 481 626 481 q 721 394 685 481 q 743 271 743 338 q 731 17 743 204 q 815 6 778 6 q 869 11 853 6 q 878 248 878 108 q 856 625 878 388 q 758 675 797 675 q 660 663 719 675 q 583 633 601 651 l 567 617 q 535 597 547 597 q 513 602 524 597 q 488 615 501 607 q 376 646 436 646 q 254 608 315 646 q 242 598 251 607 q 224 589 233 589 q 231 633 231 617 q 225 667 231 649 q 150 669 204 668 q 69 674 96 669 l 67 671 q 68 667 67 668 q 63 479 63 579 l 65 219 l 58 78 q 67 3 58 35 q 149 13 103 11 q 213 15 196 14 q 208 74 213 17 l 203 125 l 208 174 l 207 256 l 207 326 q 230 442 207 392 q 306 493 253 493 q 344 478 329 493 l 363 460 q 378 447 367 454 q 394 433 390 439 q 429 207 429 388 l 429 179 q 422 25 429 99 q 435 26 424 26 l 447 26 q 563 10 499 26 q 564 24 564 11 l 557 100 l 564 260 z "},"n":{"ha":625,"x_min":24,"x_max":604,"o":"m 238 217 l 225 13 q 228 -24 225 -1 q 218 -25 226 -25 l 67 -12 q 57 -21 61 -14 q 50 -28 53 -28 q 34 -7 36 -28 q 24 15 32 14 q 27 22 24 18 q 31 31 31 25 q 24 169 24 99 q 35 522 24 240 l 43 646 q 40 677 40 665 q 56 701 40 689 q 111 694 86 694 l 224 706 q 250 703 231 706 q 241 664 244 690 q 236 633 238 638 l 236 629 q 263 646 246 629 q 290 658 271 651 q 315 667 308 664 q 331 676 322 671 q 346 683 340 681 q 376 692 363 692 l 411 688 l 467 690 q 583 581 557 690 q 604 413 604 494 q 597 233 604 332 q 589 124 589 135 l 589 99 q 572 -24 589 60 q 521 -12 553 -12 l 414 -24 l 404 -24 q 396 -22 397 -24 q 401 33 401 -4 q 395 131 401 71 q 388 212 389 190 q 386 275 386 233 q 385 344 386 317 q 379 400 383 371 q 333 458 371 458 q 250 403 268 458 q 236 274 236 356 l 238 217 m 565 -8 q 582 190 582 175 l 582 215 q 546 550 582 433 q 419 667 510 667 q 240 610 297 667 l 243 601 q 242 599 242 600 q 233 601 233 599 l 219 597 q 217 599 218 597 l 225 658 l 224 671 l 81 676 q 63 650 63 676 q 64 646 64 649 q 65 642 64 643 q 67 648 67 643 q 74 653 68 653 q 57 544 57 613 l 63 374 l 61 300 l 63 213 l 50 19 q 130 8 81 19 q 204 -4 179 -4 q 218 19 218 -4 q 218 25 218 24 l 210 176 q 226 338 210 256 q 247 431 242 419 q 278 462 251 442 q 330 482 304 482 q 376 457 356 482 q 404 385 396 432 q 415 297 413 339 q 419 194 418 254 q 424 105 421 135 q 426 60 426 75 l 426 8 q 422 3 426 6 q 417 -4 417 1 q 497 1 449 1 q 565 -8 544 1 z "},"o":{"ha":622,"x_min":21,"x_max":588,"o":"m 42 543 l 39 576 q 185 718 39 700 q 285 725 231 725 q 424 705 340 725 q 532 661 508 685 q 541 646 536 658 q 553 633 546 633 q 557 625 557 631 l 557 617 q 565 563 557 597 q 576 510 574 528 q 579 452 578 493 q 584 375 581 411 q 588 273 588 339 q 571 156 588 207 q 563 131 569 151 q 554 104 557 111 q 545 80 551 97 q 533 53 539 63 q 518 33 526 44 q 475 0 501 10 q 381 -10 449 -10 l 322 -8 q 119 21 164 -8 q 48 129 75 50 q 21 275 21 208 q 31 423 21 342 q 42 543 42 504 m 558 472 q 485 669 558 640 q 467 673 479 672 q 447 676 456 674 q 415 690 438 678 q 385 701 393 701 q 353 699 376 701 q 267 694 329 696 q 107 675 135 693 q 91 644 100 669 q 79 614 82 619 q 49 468 49 532 l 49 301 q 61 135 49 165 q 79 108 67 124 q 97 81 92 93 q 181 34 113 57 q 300 11 249 11 q 435 33 351 11 q 541 138 524 68 q 558 472 558 208 m 211 371 l 206 418 q 214 444 207 425 q 221 476 221 464 l 221 485 q 247 506 226 489 q 316 539 286 539 q 379 499 346 539 q 417 428 413 458 q 421 389 421 399 l 415 238 q 395 186 413 203 q 318 169 378 169 q 229 190 258 169 q 200 261 200 210 q 211 371 200 282 m 228 240 q 259 208 235 221 q 302 194 283 194 q 330 197 321 194 q 346 205 339 199 q 357 215 353 211 q 366 232 361 219 q 372 249 371 244 q 378 271 374 253 q 394 385 394 331 q 376 469 394 440 q 310 503 358 497 q 244 475 261 503 q 221 408 222 439 q 217 310 217 360 q 228 240 217 261 z "},"p":{"ha":644,"x_min":21,"x_max":636,"o":"m 340 682 q 371 682 340 682 q 441 667 403 682 q 497 638 479 651 q 540 597 515 624 q 567 569 565 571 q 594 526 593 547 q 608 498 597 518 q 619 474 618 478 q 636 338 636 424 q 590 114 636 251 q 581 85 588 107 q 563 44 575 64 q 365 -32 515 -32 q 246 -8 301 -32 q 238 -155 242 -40 q 236 -279 235 -269 q 221 -297 224 -286 q 129 -289 189 -289 l 82 -289 q 40 -286 65 -289 q 29 -162 29 -250 q 35 565 29 -75 q 25 676 35 640 q 22 701 21 696 q 28 708 22 707 q 74 703 44 703 q 174 708 135 708 q 223 703 214 708 q 232 681 232 697 q 235 658 232 665 q 340 682 276 682 m 222 651 q 221 664 222 663 q 150 667 200 665 q 75 672 100 669 q 72 668 74 669 q 49 225 64 658 q 53 0 53 111 l 51 -225 l 51 -262 q 103 -272 69 -272 l 214 -262 l 215 -215 q 219 -29 219 -69 l 219 3 q 217 35 219 15 q 223 33 218 33 q 247 42 228 33 q 246 25 246 32 q 299 -4 246 10 q 393 -18 351 -18 q 493 22 469 -18 q 513 48 496 26 q 544 90 531 69 q 572 151 558 111 q 589 238 586 192 l 589 253 q 585 368 589 325 q 561 475 582 411 q 503 578 540 539 q 427 639 467 617 q 361 661 388 661 q 297 657 335 661 q 253 647 258 653 q 241 627 247 642 q 226 613 235 613 q 221 631 221 618 l 222 651 m 217 390 q 211 447 217 431 q 326 540 240 528 l 335 540 q 428 485 393 540 q 463 363 463 429 q 418 197 463 256 q 378 158 400 174 q 342 138 357 143 q 318 133 326 133 q 294 140 310 133 q 267 147 278 147 q 228 178 244 147 q 211 261 211 210 l 217 390 m 289 158 q 388 208 349 158 q 435 329 426 258 l 435 342 q 406 433 435 396 q 384 457 396 446 q 365 476 372 468 q 352 488 357 485 q 340 497 347 492 q 326 506 333 503 q 310 508 319 508 q 278 491 300 508 q 244 456 257 474 q 231 401 231 438 q 240 196 231 222 q 289 158 257 158 z "},"q":{"ha":643,"x_min":25,"x_max":600,"o":"m 597 307 l 599 265 l 599 236 q 592 -79 599 236 l 597 -236 l 597 -264 q 536 -274 581 -264 q 465 -283 492 -283 l 382 -283 q 376 -228 376 -260 l 378 -99 q 375 7 378 -68 q 282 1 332 1 q 100 81 133 1 q 78 126 89 110 q 25 350 25 200 q 60 503 25 419 q 118 608 96 586 q 188 662 140 642 q 279 682 235 682 q 386 647 324 682 l 386 663 q 419 692 386 683 q 517 703 451 701 q 589 707 582 706 q 600 686 600 699 q 590 660 600 674 q 597 317 597 617 l 597 307 m 406 -37 l 415 -218 l 415 -240 q 414 -264 415 -260 q 572 -235 518 -257 q 571 -197 571 -222 l 571 -162 l 574 32 l 564 301 l 560 660 l 425 667 q 419 643 419 657 l 421 615 q 410 590 421 597 q 344 628 390 596 q 267 660 297 660 q 199 653 238 660 l 164 628 q 56 288 56 538 q 63 197 56 235 q 94 119 71 160 q 306 36 143 36 l 396 44 q 425 38 407 44 q 406 -37 406 18 m 419 401 l 418 339 q 374 151 418 176 q 322 160 356 156 q 273 167 288 164 q 236 182 258 171 q 206 211 214 193 q 176 338 179 261 q 250 500 203 476 q 285 511 256 503 l 310 517 q 371 503 340 517 q 408 471 401 489 q 419 401 419 444 m 394 433 q 325 499 388 499 q 231 436 263 499 q 200 286 200 374 q 240 206 200 236 q 347 172 279 175 q 394 433 394 208 z "},"r":{"ha":511,"x_min":25,"x_max":500,"o":"m 54 700 l 71 697 q 150 703 104 697 q 215 708 196 708 l 231 708 l 233 713 l 238 717 q 244 681 243 707 q 250 643 246 654 q 483 701 429 683 q 490 697 488 700 q 493 693 492 693 q 496 694 493 694 q 500 696 499 694 q 489 422 500 422 l 471 424 q 469 427 469 425 q 467 431 468 429 q 449 443 461 439 q 338 467 394 467 q 242 276 242 467 q 249 105 242 194 q 258 -6 257 15 q 67 -22 161 -22 q 36 -11 47 -22 l 36 28 q 25 310 25 253 l 38 599 q 33 672 38 639 q 47 676 44 672 q 51 688 50 681 q 54 700 53 696 m 467 454 l 475 614 q 471 674 475 644 q 393 654 440 674 q 334 633 346 635 q 293 628 322 631 q 247 619 264 626 l 247 617 l 249 611 q 242 601 249 604 q 211 674 211 621 l 74 661 q 65 563 65 621 l 67 451 l 64 433 l 64 439 q 60 413 60 428 l 68 244 q 72 164 69 213 q 78 50 78 64 l 78 38 l 85 25 l 75 -1 q 69 4 72 -1 l 69 1 q 96 -7 69 -7 q 147 -3 122 -7 q 242 14 176 1 q 221 292 221 113 q 322 501 221 501 q 403 480 354 501 q 467 454 453 458 z "},"s":{"ha":625,"x_min":19,"x_max":614,"o":"m 438 403 l 457 404 q 530 371 490 404 q 590 303 569 338 q 610 223 610 269 q 574 110 610 176 q 496 8 539 43 q 413 -44 453 -28 q 310 -60 372 -60 q 101 12 183 -60 q 19 211 19 83 q 20 226 19 215 q 21 242 21 236 q 78 232 40 232 l 206 243 l 219 243 q 257 197 246 243 q 280 166 261 181 q 329 151 299 151 q 383 175 360 151 q 406 233 406 199 q 366 288 406 268 q 269 320 326 308 q 156 349 213 332 q 59 410 99 367 q 19 525 19 453 q 60 642 19 597 q 189 714 100 688 q 218 724 199 717 q 283 738 257 738 q 460 713 374 738 q 578 643 547 689 q 597 571 589 624 l 603 531 q 614 492 604 513 q 510 460 582 460 q 397 483 438 460 q 385 522 389 496 q 370 563 382 549 q 326 576 358 576 q 277 563 294 576 q 260 528 260 549 q 270 486 260 508 q 282 456 281 464 q 324 438 294 446 q 358 428 353 431 q 382 419 364 426 q 438 403 419 403 m 167 219 l 57 211 l 44 211 q 33 213 35 211 q 50 119 40 144 q 325 -4 96 -4 q 517 83 456 -4 q 581 250 581 186 q 553 320 581 282 q 497 375 526 358 q 395 402 468 392 q 296 426 322 413 q 249 471 269 439 q 229 540 229 503 q 283 606 229 606 q 378 571 331 606 q 442 517 394 525 q 536 508 483 508 q 589 540 589 508 q 567 623 589 585 q 518 661 544 661 q 458 681 492 661 q 407 700 425 700 l 386 700 q 344 707 369 700 q 308 714 319 714 q 290 711 296 714 q 245 699 283 708 q 192 683 207 689 q 68 589 129 661 q 46 513 46 563 q 72 438 46 464 q 149 393 97 411 l 176 382 q 276 353 200 372 q 392 311 353 335 q 432 241 432 288 q 402 163 432 194 q 339 131 372 131 q 250 171 281 131 q 238 189 247 175 q 215 211 229 203 q 167 219 201 219 z "},"t":{"ha":538,"x_min":6,"x_max":526,"o":"m 299 428 l 304 236 q 340 224 319 236 q 378 211 360 211 q 419 201 396 211 q 447 190 442 192 q 475 189 453 189 q 518 194 497 189 q 525 126 525 150 q 510 -15 525 103 q 458 -21 499 -21 q 367 -6 418 -21 q 288 14 315 8 q 248 23 261 19 q 215 32 235 26 q 160 67 182 42 q 104 306 104 131 l 107 471 l 107 500 q 67 510 96 508 q 31 513 39 511 q 24 505 25 511 q 19 499 22 499 q 13 514 15 499 q 6 532 11 529 q 22 603 22 567 q 18 690 22 640 q 22 689 19 690 l 33 694 q 40 688 35 694 q 57 682 44 682 l 108 682 q 122 681 121 682 q 126 770 126 701 q 122 953 126 839 q 144 956 136 956 l 264 949 q 292 961 279 949 q 319 953 296 953 q 317 781 317 822 q 319 693 317 740 l 331 693 l 436 689 l 510 700 q 526 694 521 700 q 525 692 525 693 l 524 681 l 524 671 l 515 508 l 319 515 q 303 513 311 515 q 299 428 299 471 m 142 711 l 143 690 q 135 677 138 688 q 129 664 132 667 q 39 674 47 671 q 32 546 39 596 q 125 533 56 546 l 125 528 q 133 507 125 517 q 129 501 133 504 q 125 489 125 497 l 125 456 q 139 303 125 399 q 153 167 153 208 l 153 144 q 229 53 153 78 q 363 21 279 36 q 481 -3 447 6 q 501 72 501 15 l 500 133 l 500 144 q 501 157 500 156 q 489 156 500 156 l 476 156 q 378 182 435 156 q 351 192 371 185 q 324 204 332 200 q 288 235 301 215 l 288 232 q 282 228 288 228 q 276 318 276 228 q 282 503 276 408 q 275 509 282 507 q 268 517 268 511 l 269 521 l 289 525 q 373 536 356 536 q 437 541 390 536 q 507 546 483 546 q 501 619 501 589 q 505 660 501 650 q 511 674 508 669 q 514 681 514 679 q 462 674 496 672 q 382 675 428 675 q 286 669 336 675 l 288 753 q 283 932 288 831 q 198 940 225 940 q 146 932 171 940 q 142 711 142 750 m 408 0 q 415 1 414 0 q 408 0 408 1 z "},"u":{"ha":625,"x_min":24,"x_max":589,"o":"m 513 694 l 560 699 q 586 690 575 699 q 583 636 583 657 l 589 449 q 578 269 589 389 q 567 96 567 150 l 567 71 q 553 1 556 6 q 508 8 522 8 l 381 -4 q 365 -1 368 -4 q 363 11 363 3 l 363 19 q 368 69 363 49 q 349 57 363 64 q 323 43 335 50 q 306 34 311 36 q 288 26 300 32 q 269 17 276 19 q 250 11 261 15 q 231 6 239 7 q 188 1 203 1 q 70 67 113 1 q 28 235 28 133 l 31 299 l 24 347 l 29 639 l 28 708 l 28 713 q 33 715 31 715 q 37 711 35 715 q 40 707 39 707 l 60 707 q 71 713 69 707 q 106 706 94 706 l 190 713 q 224 708 208 713 q 231 592 231 674 l 228 401 l 228 350 q 292 225 228 225 q 372 263 344 225 q 394 417 394 292 q 394 438 394 431 l 396 582 l 396 633 q 393 676 396 651 q 403 683 394 681 q 413 690 413 685 q 428 686 417 686 l 486 696 l 513 694 m 549 170 q 550 197 549 170 q 551 290 551 224 q 554 438 551 357 l 554 493 l 553 590 l 553 676 q 477 679 508 679 q 418 672 446 679 q 408 531 408 608 l 417 363 q 394 292 417 333 q 369 242 372 251 q 307 213 342 213 q 254 224 272 213 q 225 262 236 236 q 208 310 214 288 q 200 372 201 333 q 196 527 196 439 q 201 681 196 615 q 167 685 186 685 q 120 683 147 685 q 75 681 93 681 q 76 657 76 676 l 76 633 q 67 515 76 594 q 57 375 57 436 l 60 208 q 105 79 60 132 q 205 26 150 26 q 293 47 260 26 q 350 103 326 68 q 393 144 374 138 q 397 128 393 136 q 406 122 404 124 q 396 97 396 113 q 397 66 396 82 q 397 42 397 50 q 425 46 410 46 l 504 36 q 538 76 529 36 q 549 170 547 117 z "},"v":{"ha":596,"x_min":3,"x_max":576,"o":"m 575 681 q 574 674 574 678 q 576 668 574 671 q 538 506 563 614 q 497 338 513 399 q 438 22 481 276 l 449 17 q 289 0 449 14 q 164 22 165 13 q 161 42 163 42 l 160 42 q 96 286 149 42 q 40 543 43 531 q 20 602 38 556 q 3 675 3 649 l 3 683 q 6 689 3 689 q 14 683 6 689 q 44 689 19 689 l 111 688 q 171 706 171 688 q 176 698 175 706 q 182 690 178 690 q 190 693 186 690 q 201 678 193 693 q 208 660 208 664 q 190 678 206 660 l 186 678 q 206 597 189 661 q 229 494 224 533 q 288 331 278 349 q 303 301 299 314 q 351 493 324 367 q 392 668 378 619 l 401 693 q 431 686 401 686 l 535 693 q 575 681 575 693 m 463 675 l 411 678 q 356 422 388 589 q 314 210 324 256 q 307 213 307 210 l 308 221 l 308 224 q 299 218 303 218 q 293 221 296 218 l 292 221 q 168 665 267 322 q 90 667 129 667 l 67 667 q 40 665 50 667 q 86 438 78 489 q 125 281 103 343 q 168 116 149 194 q 189 33 188 38 q 267 24 211 24 l 307 24 l 365 17 q 385 22 374 17 q 408 28 397 28 q 444 165 414 28 q 482 353 474 303 q 513 512 490 403 q 544 676 535 621 q 526 678 543 678 q 507 676 510 678 l 503 676 q 510 681 503 678 q 463 675 497 681 z "},"w":{"ha":949,"x_min":3,"x_max":939,"o":"m 836 689 l 903 700 l 915 700 q 919 707 918 700 q 924 717 919 714 q 930 705 928 715 q 939 693 932 694 q 935 683 939 688 q 931 676 931 679 q 901 535 931 617 q 849 353 871 454 q 813 207 828 253 q 771 38 788 81 q 778 35 772 35 q 785 32 785 35 q 774 22 785 25 q 764 10 764 22 q 765 1 764 7 q 765 -7 765 -4 q 630 3 697 3 q 504 0 563 3 q 463 247 503 99 q 417 31 421 92 q 406 3 408 26 q 368 7 386 7 q 339 3 350 7 q 292 7 311 7 l 247 6 l 200 7 q 167 -1 200 7 q 160 5 160 -1 q 169 15 160 11 q 165 24 169 21 q 158 31 160 28 q 137 147 149 67 q 117 264 125 228 q 90 371 108 300 q 63 476 71 442 q 3 692 31 628 q 82 701 22 701 q 157 697 142 701 l 188 689 q 192 693 192 692 l 189 704 q 193 710 189 708 q 253 510 229 654 q 290 326 276 367 q 317 422 300 351 q 373 589 335 493 q 417 691 411 685 q 428 701 424 697 q 478 694 446 701 q 526 690 526 686 l 526 697 q 528 701 526 701 q 537 694 533 701 q 542 686 540 688 q 546 693 546 686 l 546 697 q 549 703 546 703 l 551 703 q 562 687 551 693 q 572 676 572 681 q 560 667 572 671 q 639 265 569 624 q 694 463 669 343 q 722 598 718 583 q 731 629 725 613 q 738 654 736 646 l 739 675 q 767 697 739 697 l 836 689 m 726 38 l 750 36 q 803 263 774 124 q 829 345 811 292 q 856 433 847 399 q 883 551 865 467 q 911 676 900 635 q 857 668 896 675 q 793 661 818 661 l 781 661 q 768 663 769 661 q 711 443 747 590 q 653 224 675 296 q 629 213 632 215 q 572 448 594 278 q 529 676 550 618 l 451 688 q 435 686 436 688 q 356 403 407 597 q 297 208 306 208 q 269 238 297 231 l 279 289 q 240 499 279 356 q 194 672 200 643 q 176 676 192 672 q 138 681 160 681 l 69 679 q 32 686 50 679 q 71 497 39 628 q 109 348 103 365 q 122 316 115 331 q 131 288 128 301 q 138 233 135 274 q 147 168 142 193 q 185 19 153 139 l 257 14 q 347 28 304 28 l 386 26 q 396 28 394 26 q 424 156 400 54 q 449 322 449 258 q 465 328 458 328 q 478 315 478 328 q 522 96 481 218 q 535 53 535 57 l 533 44 q 569 25 533 25 l 726 38 z "}}}
